<?xml version="1.0" encoding="utf-8"?>
<!-- Generator: Adobe Illustrator 27.7.0, SVG Export Plug-In . SVG Version: 6.00 Build 0)  -->
<svg version="1.1" id="Layer_1" xmlns="http://www.w3.org/2000/svg" xmlns:xlink="http://www.w3.org/1999/xlink" x="0px" y="0px"
	 viewBox="0 0 1200 1200" style="enable-background:new 0 0 1200 1200;" xml:space="preserve">
<style type="text/css">
	.st0{fill:#6B4C4D;}
	.st1{fill:#467E3B;}
	.st2{fill:#46813C;}
	.st3{fill:#76BD93;}
	.st4{fill:#9B8530;}
	.st5{fill:#B4DFD3;}
	.st6{fill:#DDD0B3;}
	.st7{fill:#BAB282;}
	.st8{fill:#B2A771;}
	.st9{fill:#FFFFFD;}
	.st10{fill:#927A7F;}
	.st11{fill:#66AE7B;}
	.st12{fill:#CBC098;}
	.st13{fill:#F9F8CD;}
	.st14{fill:#E0D81E;}
	.st15{fill:#FFFFFF;}
	.st16{fill:#C99B2C;}
	.st17{fill:#F5F0A2;}
	.st18{fill:#F0EA82;}
	.st19{fill:#EAE239;}
	.st20{fill:#E1D81E;}
</style>
<path class="st0" d="M902.53,248.35c8.11,1.48,15.78,4.24,23.29,7.62c13.37,6.02,25.24,14.15,35.81,24.3
	c8.47,8.14,17.04,16.18,25.75,24.07c12.42,11.26,22.41,24.3,29.09,39.66c2.27,5.21,5.45,10.17,5.47,16.34
	c0.01,3.77,0.04,7.37-1.84,10.68c-4.1,7.24-9.21,13.69-15.36,19.31c-5.14,4.7-10.23,9.46-15.73,14.57c1.78,1.21,3.2,2.74,4.93,3.25
	c7.69,2.28,13.78,6.9,18.69,12.95c10.13,12.47,16.94,26.47,18.92,42.64c0.72,5.88,2.49,11.64,2.97,17.52
	c0.52,6.37,0.63,12.89-0.06,19.23c-0.76,6.9-2.78,13.66-4.02,20.52c-1.43,7.9-4.3,15.31-8.2,22.18
	c-12.28,21.63-31.05,34.62-55.16,40.06c-4.92,1.11-9.97,1.62-14.96,2.41c-5.52,0.04-11.05,0.07-16.57,0.11
	c-4.75-0.94-9.55-1.7-14.25-2.86c-6.67-1.65-13.41-3.19-19.87-5.49c-12.04-4.28-23.17-10.43-33.66-17.72
	c-1.35-0.93-2.69-1.87-4.17-2.89c-2.4,3.16-4.49,6.34-7,9.15c-9.93,11.13-22.53,17.76-36.72,21.92
	c-13.24,3.88-26.72,5.36-40.39,4.26c-5.35-0.43-10.64-2.12-15.87-3.55c-16.44-4.5-30.05-13.88-42.54-25.09
	c-1.2-1.08-2.38-2.17-4.08-3.72c-5.83,11.5-15.25,17.74-27.25,20.37c-4.72-0.02-9.44-0.04-14.16-0.06
	c-4.14-1.05-8.28-2.09-12.19-3.08c1.1,7.34,2.26,14.65,3.26,21.97c0.84,6.13,1.53,12.28,2.22,18.42
	c1.14,10.26,1.84,20.58,3.43,30.76c1.71,10.94,3.93,21.84,7.84,32.28c2.38,6.35,4.87,12.66,7.31,18.99
	c0.34,0.67,0.67,1.34,1.01,2.01c0,0,0.09,0.19,0.09,0.19c0.43,0.86,0.85,1.72,1.28,2.58c0.28-0.11,0.56-0.22,0.85-0.33
	c-0.26-0.84-0.52-1.67-0.79-2.51c0.34-10.31,0.46-20.7,3.31-30.67c2.38-8.32,5.35-16.5,8.55-24.56c2.72-6.85,5.85-13.58,9.31-20.1
	c3.66-6.89,8.69-12.78,16.26-15.58c3.85-1.43,8.03-1.95,12.06-2.88c6.26-0.02,12.53-0.04,18.79-0.07
	c15.05,1.42,22.74,11.79,29.25,24.44c1.62-3.05,3.04-5.79,4.5-8.49c3.14-5.8,6.19-11.67,9.49-17.38
	c5.83-10.08,14.82-15.81,26.04-18.22c5.49-1.18,11.02-2.19,16.55-3.18c4.57-0.81,9.25-0.56,13.37,1.36
	c2.65,1.23,4.79,3.81,6.79,6.12c1.76,2.03,2.98,4.52,4.7,7.2c9.08-4.49,18.32-7.41,28.09-8.38c5.17,0.01,10.34,0.01,15.5,0.02
	c8.57,1.14,16.6,3.84,24.27,7.86c10.32,5.41,16.53,14.13,20.71,24.64c7.08,17.79,8.28,36.35,7.34,55.22
	c-0.2,3.96,0.29,7.95,0.46,11.93c0.38-0.1,0.76-0.2,1.15-0.3c3.94-2.98,7.87-5.97,11.82-8.93c4.97-3.73,10.57-3.13,15.96-1.71
	c3.43,0.9,5.44,4.01,5.31,7.58c-0.19,5.05-0.59,10.16-1.6,15.11c-1.86,9.08-4.46,18-6.29,27.08c-1.26,6.21-2.55,12.33-5.28,18.1
	c-1.69,3.58-3.16,7.26-4.73,10.89c-1.01,1-1,1.91,0.48,2.21c1,0.2,2.1-0.05,3.15-0.1c7.05,0.21,13.58,2.41,19.95,5.2
	c5.43,2.38,6.86,6.23,6.68,12.64c-0.18,6.5-3.12,11.76-5.61,17.37c-2.47,5.56-4.74,11.23-6.79,16.96
	c-8.22,22.94-21.39,42.16-41.65,56.19c-8.48,5.88-17.63,10.06-27.79,11.95c-6.94,0.01-13.87,0.01-20.81,0.02
	c-12.9-1.53-25.06-5.09-35.65-12.96c-1.15-0.86-2.32-1.69-3.83-2.78c-16.9,17.91-37.33,28.47-62,30.18c-8.8-0.1-17.6-0.2-26.4-0.3
	c-1.95-0.17-3.9-0.34-5.86-0.51c-6.02-0.11-12.05-0.36-18.07-0.27c-3.8,0.06-7.59,0.64-11.38,0.99
	c-11.09,0.74-21.86,2.92-31.79,8.04c-7.34,3.79-13.71,8.85-17.83,16.27c-0.14,0.34-0.27,0.69-0.41,1.04
	c-5.51,6.51-8.46,14.37-11.63,22.11c-0.09,0.3-0.16,0.61-0.21,0.92c-1.14,1.8-2.31,3.59-3.42,5.41c-2.39,3.9-5.19,7.34-9.67,9
	c-3.64,0.02-7.29,0.03-10.93,0.05c-3.74-1.14-6.61-3.51-9-6.5c-1.47-1.84-2.83-3.76-4.25-5.65c-0.36-0.45-0.71-0.91-1.07-1.36
	c-2.98-6.95-5.97-13.91-8.95-20.86c0.02-0.35,0.01-0.69-0.03-1.04c-0.27-0.74-0.55-1.48-0.82-2.22c-0.39-2.66-0.89-5.31-1.16-7.99
	c-1.06-10.51-2.03-21.04-3.08-31.55c-0.16-1.63-0.41-3.29-0.88-4.85c-0.49-1.63-1.45-2.7-3.49-2.91
	c-5.02-0.53-10.04-1.18-14.99-2.18c-7.11-1.43-14.32-2.59-20.95-5.77c-5.05-2.42-9.15-6.07-12.77-10.28
	c-1.17-1.36-2.36-2.71-4.04-4.63c-6.24,16.19-16.79,26.97-33.63,30.63c-1.83,0.31-3.66,0.61-5.49,0.92
	c-2.2-0.02-4.39-0.05-6.59-0.07c-1.45-0.3-2.9-0.59-4.35-0.89c-3.36-2.06-7.29-3.55-9.93-6.29c-4.15-4.31-7.95-9.16-10.98-14.33
	c-6.75-11.5-11.2-23.91-13.34-37.15c-1.34-8.34-1.3-16.69-0.87-25.05c0.4-7.81,0.99-15.63,2.08-23.36
	c1.1-7.77,2.99-15.44,4.44-23.17c1.85-9.9,3.48-19.85,5.41-29.74c4.88-24.89,4.49-49.99,3.52-75.17c-0.32-8.21-0.21-16.59,1.1-24.66
	c1.07-6.6,3.65-13.14,6.54-19.24c5.67-11.98,13.23-22.82,22.05-32.75c0.21-0.24,0.21-0.66,0.43-1.44
	c-13.51-6.23-21.39-18.11-28.91-30.74c-1.45,0.91-2.6,1.41-3.48,2.21c-12.75,11.58-27.19,20.57-43.02,27.17
	c-5.98,2.5-12.54,3.61-18.84,5.36c-8.47-0.05-16.93-0.11-25.4-0.16c-4.6-0.74-9.27-1.2-13.79-2.3c-5.6-1.37-11.28-2.25-16.68-4.65
	c-10.8-4.8-20.54-11.05-29.24-19c-2.71-2.47-5.56-4.79-8.72-7.49c-0.31,0.25-1.43,1.07-2.46,2c-10.24,9.27-21.15,17.52-33.93,23.08
	c-8.11,3.53-16.05,7.43-24.11,11.05c-1.77,0.8-3.77,1.11-5.66,1.64c-2.52,0.33-5.04,0.65-7.56,0.98c-1.46,0.01-2.92,0.01-4.38,0.02
	c-1.89-0.25-3.78-0.5-5.66-0.76c-3.27-0.06-6.54-0.11-9.81-0.17c-9.18-1.64-17.18-5.87-24.73-11.15
	c-9.77-6.83-20.43-12.66-29.18-20.6c-13.14-11.94-25.19-25.12-37.25-38.2c-6.08-6.6-9.59-14.72-11.7-23.68
	c-2.87-12.16-3-24.27-0.49-36.23c1.98-9.4,6.81-17.87,12.48-25.71c2.46-3.39,4.93-6.77,7.67-10.54
	c-14.24-7.78-21.66-21.04-28.37-34.48c-3.01-6.02-4.28-13.17-5.07-19.96c-1.08-9.26-1.41-18.67-1.26-28
	c0.29-17.48,5.11-33.93,14.94-48.35c8.58-12.58,19.54-22.61,35.21-26.28c6.38-1.49,12.79-2.4,19.25-3.23c3.33,0,6.66,0,10-0.01
	c9.01,1.61,18.28,2.15,26.85,5.63c8.25,3.35,16.52,6.79,24.35,10.99c13.39,7.18,26.44,15,39.64,22.54
	c5.39,3.08,10.75,6.21,16.22,9.14c1.73,0.93,3.82,1.15,5.65,1.93c8.84,3.76,15.79,9.86,21.41,17.56c0.75,1.03,1.48,2.09,2.24,3.12
	c0.1,0.13,0.32,0.16,0.85,0.41c0.99-1.3,2.04-2.69,3.08-4.08c7.93-10.56,15.97-21.01,26.48-29.25
	c12.48-9.79,26.44-16.05,42.27-17.95c1.96-0.23,3.88-0.76,5.82-1.15c3.66-0.31,7.33-0.62,10.99-0.93c0.34-0.14,0.68-0.27,1.01-0.39
	c2.99,0.07,5.99,0.15,8.98,0.22c0.74,0.06,1.48,0.12,2.22,0.18c3.66,0.31,7.33,0.62,11,0.94c6.15,1.21,12.32,2.28,18.41,3.71
	c1.68,0.39,3.29,1.66,4.63,2.86c6.26,5.59,11.45,11.85,12.45,20.66c0.22,1.94,0.88,3.83,1.35,5.76c2.75,0.17,2.99-2.11,3.78-3.54
	c4.1-7.41,8.61-14.48,14.27-20.84c8.15-9.16,18.42-14.76,29.95-18.33c0.68-0.21,1.46-0.08,2.19-0.1c6.99,0,13.98-0.01,20.98-0.01
	c11.12,1.9,21.6,5.55,31.24,11.48c7.82,4.8,15.65,9.58,23.44,14.42c11.11,6.92,21.39,14.87,30.39,24.42c0.96,1.02,2.1,1.89,3.6,3.22
	c1.86-4.24,3.42-8.04,5.17-11.75c3.19-6.75,6.37-13.51,9.78-20.16c5.34-10.43,13.99-16.74,25.26-19.6c2.23-0.04,4.46-0.09,6.69-0.13
	c7.76,1.41,13.78,5.59,18.08,12.04c3.65,5.47,6.86,11.23,10.27,16.86c0.93,1.53,1.86,3.05,3.19,5.23c1.42-1.64,2.39-2.85,3.46-3.98
	c6.15-6.49,12.05-13.26,18.58-19.35c6.23-5.83,13.92-9.26,22.39-10.79c2.23,0.02,4.46,0.05,6.69,0.07
	c9.71,2.12,14.22,8.81,17.16,17.83c2.89,8.85,4.61,17.8,6.11,26.93c2.52,15.44,3.79,30.99,5.26,46.53c0.06,0.65,0.19,1.29,1.16,2.14
	c1.05-3.02,2.35-5.98,3.1-9.08c2.79-11.58,7.12-22.61,12.15-33.33c5.35-11.4,11.06-22.65,16.96-33.78
	c3.97-7.47,8.96-14.29,15.25-20.09c6.26-5.78,13.51-9.3,21.99-10.25C893.68,248.38,898.11,248.36,902.53,248.35z M841.96,592.25
	c-2.67,0.45-5.35,0.9-8.02,1.33c-13.31,2.13-23.6,8.4-29.42,21.08c-3.58,7.8-7.43,15.48-11.15,23.22c-0.4,0.82-0.65,1.72-1.1,2.51
	c-1.8,3.19-4.07,3.6-6.51,0.98c-1.48-1.59-2.67-3.48-3.85-5.32c-1.88-2.92-3.62-5.93-5.48-8.87c-5.01-7.95-11.97-12.7-21.58-13.05
	c-4.08-1.49-8.14-1.46-12.2,0.07c-6.46,0.6-13.08,1.32-17.86,6.11c-3.57,3.57-7.05,7.69-9.09,12.24
	c-5.17,11.53-10.27,23.2-13.98,35.25c-4.09,13.3-6.52,27.09-3.36,41.15c0.08,0.36,0.11,0.73,0.14,1.09
	c0.36,4.31-0.91,5.84-5.21,5.65c-1.52-0.07-3.4-0.6-4.42-1.62c-2.05-2.04-4.03-4.36-5.31-6.93c-2.62-5.24-4.89-10.67-7.07-16.12
	c-6.01-15.03-9.13-30.84-11.91-46.67c-1.71-9.72-2.1-19.67-3.17-29.5c-0.75-6.89-1.43-13.8-2.56-20.64
	c-1.07-6.47-2.39-12.94-4.18-19.24c-0.7-2.46-2.95-4.5-4.56-6.69c-1.33-1.82-2.81-3.61-1.07-5.9c1.3-1.71,3.75-1.49,6.39,0.44
	c0.29,0.22,0.54,0.5,0.82,0.73c5.18,4.29,11.23,6.84,17.56,8.89c14.73,4.78,32.3-3.65,37.13-16.81c0.25-0.69,0.56-1.37,0.93-1.99
	c1.91-3.18,4.23-3.71,7.35-1.56c1.2,0.82,2.16,1.98,3.25,2.96c3.41,3.07,6.71,6.27,10.26,9.15c13.84,11.22,29.36,18.65,47.29,20.46
	c1.89,0.24,3.78,0.49,5.67,0.73c2.17,0.02,4.34,0.03,6.5,0.05c2.62-0.27,5.23-0.54,7.85-0.81c13.72-1.82,27.03-5.03,38.76-12.76
	c7.38-4.86,14.24-10.4,17.92-18.83c2.82-6.47,4.26-6.92,9.98-2.82c0.6,0.43,1.19,0.86,1.77,1.3c19.26,14.53,41.09,22.79,64.78,26.5
	c1.88,0.27,3.75,0.53,5.63,0.8c3.27-0.01,6.54-0.01,9.81-0.02c2.24-0.27,4.48-0.53,6.72-0.8c2.54-0.36,5.09-0.62,7.6-1.11
	c23.24-4.54,41.28-16.54,53.1-37.29c7.89-13.85,10.82-29.1,11.84-44.77c0.76-11.62-1.63-22.89-4.06-34.21
	c-2.84-13.21-8.42-24.97-16.99-35.27c-4.12-4.96-9.17-8.93-15.68-10.55c-3.17-1.6-6.33-3.21-9.5-4.81
	c-2.93-4.18-2.78-5.88,0.99-9.31c5.29-4.81,10.63-9.58,15.96-14.35c5.93-5.3,10.87-11.4,14.94-18.24c2.14-3.58,2.5-7.11,0.96-11.01
	c-6.98-17.65-16.72-33.44-30.78-46.39c-9.58-8.83-19.15-17.68-28.59-26.66c-13.57-12.91-29.47-21.89-47.29-27.2
	c-15.07-4.49-28.69-1.71-39.43,10.65c-2.16,2.49-4.23,5.09-6.04,7.84c-10.71,16.35-19.27,33.81-25.91,52.15
	c-4.87,13.44-9.01,27.15-13.53,40.72c-0.75,2.25-1.55,4.57-2.83,6.52c-0.64,0.97-2.51,1.75-3.67,1.58
	c-1.14-0.17-2.26-1.53-3.06-2.62c-0.48-0.65-0.35-1.77-0.42-2.68c-0.73-9.14-1.21-18.31-2.2-27.42c-1.63-14.9-3.15-29.84-5.59-44.62
	c-1.27-7.7-3.85-15.31-6.8-22.56c-2.97-7.29-9.28-9.86-16.78-7.22c-5.12,1.8-10.2,4.24-14.63,7.35
	c-7.38,5.19-13.55,11.79-18.87,19.13c-1.72,2.38-3.34,4.85-5.27,7.05c-2.54,2.88-5.46,2.76-7.97-0.14c-0.83-0.96-1.46-2.11-2.1-3.22
	c-2.86-4.92-5.54-9.95-8.58-14.75c-2.44-3.86-4.91-7.82-8.06-11.08c-5.63-5.81-11.71-6.5-19.14-3.32
	c-7.27,3.12-12.52,8.29-15.9,15.31c-4.05,8.43-7.79,17.01-11.86,25.43c-1.5,3.1-3.23,6.2-5.43,8.81c-2.91,3.45-4.52,3.17-7.51-0.16
	c-7.37-8.23-15.24-15.93-24.5-22.03c-8.88-5.86-18.03-11.31-26.9-17.19c-11.14-7.38-23.01-12.75-36.4-14.35
	c-4.8-1.61-9.6-1.59-14.4-0.05c-12.64,2.13-23.2,8.09-31.22,18c-4.36,5.39-7.98,11.4-11.69,17.29c-2.84,4.49-5.13,9.34-8.04,13.78
	c-0.82,1.26-3.12,2.46-4.47,2.21c-1.45-0.26-3.19-2.04-3.73-3.54c-0.91-2.51-0.91-5.33-1.39-8c-0.72-3.95-0.96-8.11-2.42-11.78
	c-3.12-7.85-8.1-13.93-17.43-14.77c-6.56-0.59-13.13-1.27-19.65-2.23c-9.89-1.45-19.75-1.49-29.59,0.22
	c-19.65,3.43-36.56,12.09-49.54,27.38c-7.1,8.37-13.42,17.42-20.01,26.22c-1.26,1.68-2.46,3.4-4.76,3.14
	c-2.36-0.27-2.93-2.38-3.82-4.23c-1.58-3.27-3.16-6.58-5.21-9.55c-4.87-7.06-12.12-10.95-19.72-14.46c-6.48-3-12.82-6.33-19.07-9.8
	c-15.71-8.74-31.19-17.93-47.04-26.4c-15.05-8.04-31.31-12.07-48.45-12.02c-3.26,0.01-6.53,0.58-9.76,1.06
	c-10.1,1.5-19.86,4.17-27.83,10.88c-13.27,11.17-21.04,25.9-24.78,42.49c-2.78,12.34-2.83,24.99-1.78,37.75
	c1.33,16.2,7.29,30.18,17,42.81c3.94,5.13,8.65,9.47,14.51,12.46c5.15,2.63,5.68,5.26,2.15,9.85c-2.79,3.64-5.68,7.21-8.33,10.95
	c-10.93,15.4-15.16,32.34-11.7,51.08c1.79,9.73,4.81,18.99,11.65,26.32c11.4,12.2,23.12,24.1,34.76,36.08c1.4,1.44,3,2.72,4.66,3.85
	c9.42,6.38,18.9,12.67,28.33,19.03c7.97,5.38,16.68,8.36,26.35,8.28c5.16,1.56,10.31,1.67,15.47,0.03c4.65-1.66,9.39-3.1,13.92-5.04
	c5.05-2.16,9.98-4.62,14.83-7.21c6.29-3.36,12.74-6.55,18.57-10.61c6.3-4.38,11.97-9.67,17.9-14.56c4.54-3.74,6.76-3.61,10.57,0.89
	c12.9,15.19,28.9,25.26,48.51,29.28c4.84,0.99,9.74,1.82,14.66,2.27c16.67,1.5,32.95,0.49,48.04-7.95
	c13-7.27,25.78-14.79,36.32-25.56c4.64-4.74,6.98-4.28,10.64,1.5c2.45,3.88,4.77,7.84,7.35,11.63c5.48,8.02,12.14,14.65,21.5,18.17
	c5,1.88,5.77,5.97,1.68,9.7c-6.74,6.14-11.7,13.63-16.61,21.15c-7.76,11.87-12.88,24.74-13.34,39.07
	c-0.24,7.49-0.08,15.01,0.11,22.51c0.64,24.57,0.32,49.08-4.36,73.33c-2.39,12.39-5.05,24.73-7.2,37.16
	c-3.02,17.51-6.35,35.04-3.85,52.98c2.32,16.65,8.08,31.96,17.88,45.64c3.23,4.5,7.2,8.35,12.91,9.73
	c3.73,1.61,7.44,1.51,11.14-0.08c13.09-2.97,22.4-10.51,27.6-22.95c0.92-2.2,1.57-4.5,2.45-6.72c2.22-5.6,5.98-6.11,9.78-1.31
	c1.59,2.01,3.02,4.16,4.6,6.18c4.32,5.49,9.69,9.61,16.53,11.29c8.14,2,16.24,4.31,24.72,4.63c8.85,0.34,12.85,4.05,14.24,12.83
	c0.09,0.54,0.12,1.09,0.17,1.64c0.77,8.4,1.53,16.8,2.29,25.2c1.19,13,5.35,25.07,11.57,36.46c1.31,2.39,2.91,4.72,4.78,6.69
	c4.95,5.23,11.91,4.73,15.94-1.17c1.85-2.71,3.25-5.75,4.69-8.71c2.57-5.28,4.79-10.74,7.56-15.91
	c6.04-11.28,14.51-20.31,26.15-25.94c9.68-4.67,19.97-7.26,30.7-8.02c6.91-0.01,13.82,0,20.73-0.08c0.84-0.01,1.67-0.55,2.5-0.84
	c3.97,0.05,7.93,0.1,11.9,0.14c4.13,0.21,8.26,0.43,12.39,0.64c3.64,0,7.28,0.01,10.92,0.01c3.35-0.26,6.7-0.53,10.06-0.79
	c10.14-0.89,19.8-3.35,28.82-8.27c9.1-4.96,17.04-11.34,24.36-18.63c4.54-4.52,6.13-4.17,11.28-0.32c3.93,2.94,8.09,5.77,12.56,7.72
	c7.7,3.38,15.87,5.44,24.29,6.26c4.78,1.64,9.56,1.67,14.35,0.01c4.4-1.21,9.05-1.87,13.16-3.72c18.43-8.33,33.37-21.12,42.76-38.96
	c8.09-15.37,14.23-31.77,21.17-47.75c0.65-1.49,0.99-3.16,1.23-4.78c0.62-4.26-0.01-5.72-3.91-7.41c-3.17-1.37-6.52-2.63-9.91-3.15
	c-4.87-0.73-9.84-0.78-14.77-1.04c-4.09-0.22-5.64-2.21-4.43-6.1c0.49-1.55,1.51-2.93,2.14-4.45c3.22-7.78,7.15-15.37,9.39-23.43
	c3.51-12.68,5.9-25.66,8.67-38.54c0.42-1.95,0.46-4,0.44-6c-0.02-1.89-1.01-3.04-3.08-3.11c-2.97-0.11-5.83-0.09-8.35,1.94
	c-2.85,2.3-5.85,4.42-8.79,6.62c-2.06,1.54-3.99,3.29-6.2,4.55c-3.6,2.06-6.52,0.94-7.66-3.07c-0.74-2.6-0.89-5.41-0.97-8.14
	c-0.38-13.35,0.96-26.7-1.07-40.06c-1.67-11.04-4.53-21.61-10.6-30.96c-2.52-3.88-6.1-7.51-10.01-9.96
	c-16.96-10.65-35.12-11.74-53.89-5.38c-5.11,1.73-10.17,3.63-15.78,5.64c-2.57-3.43-4.76-6.55-7.15-9.49
	c-1.58-1.93-3.47-3.62-5.22-5.41C849.94,590.4,845.95,590.81,841.96,592.25z"/>
<path class="st1" d="M636.8,923.76c2.98,6.95,5.97,13.91,8.95,20.86c-3.28,0.14-6.55,0.27-9.83,0.41c-4.12,0.2-8.25,0.4-12.37,0.6
	c-6.51,0.19-13.03,0.38-19.54,0.57c-3.41,0.18-6.81,0.37-10.22,0.55c-6.51,0.2-13.01,0.39-19.52,0.59
	c-3.4,0.21-6.81,0.43-10.21,0.64c0,0-0.04,0.06-0.04,0.06c-9.27,0.09-18.54,0.14-27.8,0.29c-1.42,0.02-2.82,0.46-4.24,0.71
	c-5.77,0.13-11.54,0.26-17.31,0.39c-4.49,0.21-8.97,0.42-13.46,0.63c-6.17,0.15-12.34,0.3-18.52,0.45c-5.6,0.22-11.2,0.44-16.8,0.67
	c-3.98,0.11-7.97,0.23-11.95,0.34c-4.41,0.02-8.81,0.04-13.22,0.07c-3.72,0.23-7.43,0.46-11.15,0.69
	c-7.27,0.15-14.54,0.31-21.8,0.46c-6.69,0.21-13.38,0.42-20.08,0.64c-8.38,0.16-16.76,0.33-25.14,0.49
	c-5.89,0.02-11.78,0.05-17.67,0.07c-2.99,0.19-5.99,0.37-8.98,0.56c-12.06,0.15-24.12,0.3-36.18,0.45
	c-0.91-0.08-1.82-0.23-2.73-0.23c-30.21-0.01-60.42-0.01-90.62,0.01c-0.91,0-1.82,0.15-2.73,0.23c-7.65-0.15-15.3-0.3-22.95-0.44
	c-4.86-0.21-9.72-0.42-14.59-0.63c-3.93-0.14-7.85-0.28-11.78-0.42c-4.81-0.32-9.62-0.64-14.44-0.96c0,0-0.02,0-0.02,0
	c-3.3-0.37-6.6-0.73-9.91-1.1c0,0-0.01,0-0.01,0c-0.76,0-1.53,0.01-2.29,0.01c-7.75-1.83-15.76-2.95-23.17-5.7
	c-5.87-2.18-10.07-7.21-11.84-13.58c-0.87-3.14,0.47-5.99,1.89-8.74c2.74-5.35,6.85-9.56,11.56-13.1
	c6.89-5.18,13.76-10.44,21.05-14.99c41.55-25.9,83.22-51.61,124.86-77.37c35.25-21.8,70.66-43.34,105.69-65.5
	c13.3-8.41,25.94-17.94,38.47-27.49c5.94-4.52,11.08-10.14,16.27-15.56c2.24-2.34,3.98-5.29,5.42-8.22c2.16-4.39,1.26-7.1-2.86-9.84
	c-5.46-3.63-11.71-5.2-18.03-6.37c-4.07-0.75-8.24-1-12.36-1.47c-1.12-0.31-2.24-0.61-3.36-0.92c0,0-0.01,0-0.01,0
	c-8.51-0.64-17.01-1.28-25.52-1.92c-16.08-0.02-32.15-0.04-48.23-0.05c-6.33,0.21-12.65,0.43-18.98,0.64
	c-6.16,0.16-12.32,0.31-18.49,0.47c-4.56,0.21-9.12,0.41-13.67,0.62c-4.14,0.07-8.28,0.04-12.4,0.24
	c-3.92,0.19-7.82,0.61-11.73,0.93c-3.58,0.11-7.16,0.23-10.74,0.34c-3.37,0.23-6.74,0.46-10.1,0.7c-4.3,0.2-8.6,0.4-12.89,0.59
	c-2.3,0.22-4.61,0.44-6.91,0.66c0,0-0.02,0.05-0.02,0.05c-6.28,0.32-12.55,0.65-18.83,0.97c-3.2,0.12-6.41,0.25-9.61,0.37
	c-2.65,0.21-5.29,0.42-7.94,0.63c-3.24,0.16-6.48,0.32-9.73,0.48c-2.99,0.28-5.98,0.56-8.97,0.84c0,0,0.08,0.15,0.08,0.15
	c-9.9,0.39-19.8,0.79-29.71,1.18c-6.26-0.06-12.52-0.12-18.78-0.17c-0.52-0.18-1.05-0.31-1.54-0.54c-2.37-1.1-4.89-2.54-4.94-5.26
	c-0.06-2.98,2.55-4.85,5.08-5.75c2.83-1.01,5.95-1.23,8.94-1.79c1.16-0.31,2.33-0.62,3.49-0.93c0.31-0.07,0.62-0.09,0.94-0.07
	c3.36-0.35,6.72-0.69,10.07-1.04c0.31-0.06,0.63-0.08,0.95-0.09c3.72-0.34,7.44-0.68,11.16-1.02c0.68-0.03,1.37-0.07,2.05-0.1
	c8.92-0.54,17.84-1.07,26.76-1.63c0.33-0.02,0.64-0.32,0.96-0.5c0.67-0.03,1.35-0.07,2.02-0.1c1.87-0.01,3.75-0.01,5.62-0.02
	c8.53-0.42,17.06-0.82,25.59-1.29c0.67-0.04,1.32-0.51,1.99-0.78c0,0-0.04-0.03-0.04-0.03c2.58-0.03,5.16-0.05,7.74-0.08
	c2.96-0.31,5.93-0.63,8.89-0.94c1.04-0.05,2.08-0.09,3.13-0.14c2.24-0.01,4.48-0.01,6.72-0.02c3.7-0.32,7.39-0.64,11.09-0.96
	c0.68-0.03,1.37-0.07,2.05-0.1c6.3-0.34,12.59-0.67,18.89-1.01c1.42-0.03,2.83-0.07,4.25-0.1c7.4-0.34,14.8-0.67,22.2-1.01
	c1.42-0.02,2.84-0.04,4.26-0.07c8.92-0.09,17.84-0.15,26.76-0.3c1.41-0.02,2.82-0.48,4.22-0.74c3.27-0.07,6.55-0.14,9.82-0.21
	c11.44,0,22.88,0,34.32-0.01c1.8,0.07,3.6,0.15,5.4,0.22c9.98,0.71,19.95,1.41,29.93,2.12c0.32-0.01,0.63,0.01,0.93,0.08
	c0.44,0.3,0.89,0.6,1.33,0.9c10.1,0.04,19.66,2.83,28.91,6.43c9.3,3.62,16.18,9.88,18.09,20.31c0,2.17,0,4.33,0.01,6.5
	c-1.49,4.03-2.98,8.05-4.48,12.08c-0.27,0.42-0.54,0.84-0.81,1.26c-0.44,0.69-0.88,1.37-1.32,2.06c-0.3,0.41-0.6,0.82-0.9,1.23
	c-6.64,9.39-15.27,16.81-24.17,23.9c-20.13,16.02-41.76,29.87-63.63,43.32c-54.04,33.24-108.26,66.19-162.29,99.44
	c-17.33,10.67-34.37,21.81-51.39,32.96c-5.31,3.48-10.14,7.72-15.76,12.05c5.57,3.63,10.96,4.45,16.34,5.31c0.75,0,1.5,0,2.25,0
	c0,0-0.03,0-0.03,0c2.97,0.36,5.95,0.71,8.92,1.07c0.32-0.02,0.64,0,0.95,0.06c2.24,0.3,4.49,0.6,6.73,0.9c1.48,0,2.97,0,4.45-0.01
	c1.05,0.07,2.09,0.15,3.14,0.22c1.74,0.33,3.47,0.86,5.22,0.96c4.15,0.25,8.3,0.29,12.46,0.42c1.41,0.24,2.83,0.7,4.24,0.7
	c19.6,0.04,39.2,0.04,58.79-0.02c1.39,0,2.78-0.55,4.18-0.84c2.54-0.11,5.08-0.22,7.61-0.33c9.3-0.05,18.6-0.09,27.89-0.19
	c0.67-0.01,1.32-0.51,1.99-0.78c0.68-0.03,1.37-0.06,2.05-0.09c8.93-0.07,17.87-0.11,26.8-0.23c1.04-0.01,2.08-0.49,3.12-0.75
	c1.43-0.05,2.85-0.1,4.28-0.14c4.43,0.03,8.87,0.06,13.3,0.09c5.63,0.01,11.26,0.06,16.89-0.03c1-0.02,1.99-0.62,2.98-0.95
	c0.33-0.14,0.67-0.24,1.02-0.32c1.47,0.06,2.95,0.13,4.42,0.19c5.99-0.04,11.99-0.01,17.98-0.16c1.75-0.04,3.5-0.58,5.24-0.89
	c1.04-0.04,2.09-0.08,3.13-0.12c6.38-0.02,12.75,0.04,19.13-0.09c2.14-0.04,4.26-0.57,6.39-0.88c1.44-0.08,2.88-0.16,4.31-0.24
	c2.19,0.03,4.38,0.06,6.57,0.09c4.54,0,9.09,0.12,13.63-0.03c2.48-0.08,4.95-0.62,7.43-0.95c0.68-0.03,1.36-0.07,2.04-0.1
	c4.55,0.01,9.11,0.15,13.66-0.01c3.23-0.11,6.46-0.63,9.68-0.97c1.77-0.05,3.54-0.09,5.31-0.14c7.41-0.32,14.82-0.63,22.23-0.95
	c1.8-0.09,3.61-0.18,5.41-0.28c2.55,0.01,5.1,0.03,7.65,0.04c3.09,0.05,6.19,0.26,9.27,0.11c3.58-0.18,7.14-0.68,10.71-1.04
	c0.38-0.1,0.76-0.2,1.14-0.3c1.04,0.07,2.07,0.14,3.11,0.21c6.68-0.31,13.36-0.62,20.04-0.93c1.05-0.06,2.1-0.12,3.15-0.17
	c4.43,0.02,8.85,0.05,13.28,0.07c5.17-0.21,10.44,1.1,15.5-0.95c0.3-0.15,0.61-0.22,0.95-0.2c6.01-0.02,12.02,0.04,18.03-0.09
	c2.13-0.05,4.26-0.57,6.38-0.88c1.79-0.08,3.57-0.15,5.36-0.23c3.68,0.04,7.37,0.07,11.05,0.11
	C625.03,923.77,630.92,923.76,636.8,923.76z"/>
<path class="st1" d="M684.3,942.74c3.17-7.74,6.12-15.6,11.64-22.11c3.42-0.04,6.84,0.03,10.25-0.17c2.99-0.18,5.97-0.67,8.95-1.02
	c0.34-0.04,0.68-0.1,1.02-0.19c2.56,0.02,5.11,0.03,7.67,0.05c3.45,0.03,6.91,0.2,10.35,0.04c3.21-0.15,6.4-0.66,9.6-1.02
	c0.38-0.1,0.75-0.2,1.13-0.3c1.04,0.07,2.09,0.15,3.13,0.22c4.85-0.15,9.7-0.29,14.55-0.44c2.56-0.2,5.12-0.4,7.68-0.6
	c0.67-0.02,1.35-0.04,2.02-0.06c6-0.03,12,0.02,17.99-0.14c2.13-0.05,4.24-0.59,6.36-0.91c0.34-0.02,0.68-0.05,1.02-0.09
	c4.04,0.01,8.08,0.02,12.12,0.03c4.83-0.17,9.75,1.19,14.45-0.93c0.33-0.14,0.67-0.25,1.02-0.33c1.82,0.03,3.64,0.07,5.46,0.1
	c5.55-0.33,11.1-0.66,16.64-0.99c0.32-0.06,0.64-0.08,0.96-0.07c7.03-0.33,14.06-0.67,21.08-1c0.71-0.07,1.42-0.14,2.14-0.2
	c1.11,0.06,2.22,0.12,3.32,0.18c5.53-0.36,11.07-0.71,16.6-1.07c0.32-0.05,0.65-0.09,0.98-0.13c3.31,0.02,6.62,0.03,9.94,0.05
	c3.7-0.27,7.41-0.53,11.11-0.8c1.43-0.12,2.86-0.25,4.29-0.37c4.45-0.32,8.9-0.64,13.35-0.96c0.33-0.05,0.65-0.09,0.98-0.13
	c1.86,0,3.73,0.01,5.59,0.01c3.68-0.33,7.37-0.66,11.05-0.99c0.69-0.05,1.39-0.1,2.09-0.15c1.5,0.01,3,0.02,4.5,0.02
	c3.69-0.31,7.39-0.62,11.08-0.93c1.07-0.08,2.14-0.16,3.21-0.24c1.1,0.05,2.2,0.1,3.31,0.14c4.07-0.35,8.14-0.7,12.21-1.04
	c0.31-0.06,0.63-0.09,0.95-0.09c1.88,0.01,3.75,0.01,5.63,0.02c3.67-0.35,7.34-0.69,11.01-1.04c0,0-0.04-0.03-0.04-0.03
	c1.85-0.01,3.71-0.01,5.56-0.02c3.31-0.35,6.63-0.7,9.94-1.06c0.32-0.05,0.65-0.1,0.97-0.15c4.09-0.32,8.19-0.64,12.28-0.96
	c0.68-0.04,1.37-0.08,2.05-0.12c5.17-0.34,10.35-0.69,15.52-1.03c2.23-0.33,4.46-0.65,6.68-0.98c0.68-0.07,1.36-0.14,2.04-0.2
	c2.62-0.3,5.24-0.61,7.86-0.91c0.68-0.06,1.37-0.11,2.05-0.17c0.43,0.03,0.86,0.06,1.3,0.08c3.58-0.35,7.18-0.56,10.73-1.07
	c5.15-0.73,10.26-1.68,16-2.64c-0.93-0.97-1.45-1.98-2.25-2.29c-8.81-3.5-17.67-6.91-26.52-10.32c-5.86-2.26-11.86-4.22-17.55-6.84
	c-2.88-1.32-5.51-3.53-7.72-5.85c-2.77-2.9-4.17-6.34-0.46-10.7c0.34-0.39,0.67-0.79,1.01-1.18c0.4-0.34,0.81-0.68,1.21-1.02
	c0.74-0.37,1.48-0.75,2.22-1.12c0,0,0.03-0.01,0.03-0.01c2.3-0.03,4.61-0.06,6.91-0.08c0.3,0.05,0.61,0.11,0.91,0.18
	c1.15,0.34,2.3,0.68,3.46,1.01c10.13,3.68,20.25,7.4,30.4,11.03c7.53,2.69,15.18,5.09,22.63,7.97c4.85,1.87,9.45,4.37,14.16,6.59
	c0.34,0.25,0.68,0.5,1.02,0.75c0,0,0.25,0.19,0.25,0.19c0.32,0.26,0.64,0.52,0.96,0.78c0.46,0.45,0.91,0.89,1.37,1.34
	c0.27,0.31,0.55,0.61,0.83,0.92c0,0,0.19,0.25,0.19,0.25c0.26,0.36,0.51,0.71,0.77,1.07c2.5,3.9,1.78,7.7,0.67,12.04
	c-2.5,9.78-8.79,16.41-16.61,21.79c-18.11,12.47-36.36,24.75-54.69,36.9c-2.59,1.72-5.96,2.27-8.72,3.28
	c-9.54-5.48-8.15-11.64-0.53-16.99c14.1-9.9,28.32-19.62,42.48-29.42c0.6-0.46,1.21-0.92,1.82-1.38c-0.15-0.33-0.3-0.67-0.45-1
	c-1.6,0.42-3.2,0.84-4.8,1.26c0,0-0.02,0-0.02,0c-1.12,0.31-2.24,0.61-3.36,0.92c-7.59,1.17-15.16,2.41-22.77,3.47
	c-4.09,0.57-8.23,0.74-12.34,1.2c-6.26,0.7-12.5,1.49-18.75,2.25c-6.64,0.68-13.29,1.36-19.93,2.04c0,0,0.09,0.15,0.09,0.15
	c-2.51,0.07-5.02,0.14-7.53,0.21c-1.57,0.2-3.13,0.4-4.7,0.6c-2.11,0.16-4.23,0.32-6.34,0.48c-1.55,0.24-3.11,0.47-4.66,0.71
	c0,0,0.09,0.21,0.09,0.21c-2.88,0.06-5.77,0.13-8.65,0.19c-1.92,0.25-3.84,0.49-5.76,0.74c0,0-0.01,0.05-0.01,0.05
	c-4.07,0.31-8.14,0.62-12.22,0.93c-8.33,0.53-16.67,1.05-25,1.58c-1.93,0.19-3.87,0.38-5.8,0.57c-3.22,0.17-6.43,0.34-9.65,0.51
	c-2.36,0.19-4.73,0.37-7.09,0.56c-5.84,0.4-11.68,0.79-17.52,1.19c-3.9,0.18-7.8,0.36-11.69,0.55c-2.32,0.17-4.63,0.34-6.95,0.52
	c-3.95,0.17-7.9,0.33-11.86,0.5c-2.65,0.25-5.3,0.49-7.95,0.74c0,0-0.02,0.06-0.02,0.06c-7.02,0.31-14.04,0.63-21.06,0.94
	c-4.65,0.16-9.3,0.31-13.95,0.47c-3.03,0.2-6.06,0.4-9.09,0.6c-4.69,0.16-9.38,0.32-14.07,0.48c-3.76,0.21-7.52,0.41-11.28,0.62
	c-3.62,0.13-7.25,0.26-10.87,0.39c-4.49,0.24-8.97,0.49-13.46,0.73c-5.05,0.13-10.1,0.26-15.15,0.39
	c-4.47,0.23-8.95,0.46-13.42,0.69c-4.34,0.16-8.68,0.31-13.03,0.47c-4.5,0.22-9,0.43-13.51,0.65c-5.41,0.17-10.82,0.33-16.23,0.5
	C690.25,942.83,687.27,942.78,684.3,942.74z"/>
<path class="st2" d="M72.7,295.82c-1.56,0.31-3.11,0.62-4.71,0.95c-5.51-1.96-7.65-6.62-9.41-11.87
	c-5.02-14.98-8.28-30.42-12.54-45.6c-1.67-5.94-3.31-11.85-3.74-18.02c-0.27-3.96,0.07-7.74,3.81-10.23
	c2.25-0.03,4.49-0.06,6.74-0.09c0,0-0.02-0.01-0.02-0.01c0.67,0.44,1.34,0.89,2,1.33c4.19,3.72,5.3,9.08,6.9,13.99
	c3.58,10.93,6.53,22.05,9.78,33.09c2.29,7.77,4.72,15.51,6.94,23.3c1.37,4.81,0.48,9.08-3.74,12.25
	C74.06,295.21,73.38,295.51,72.7,295.82z"/>
<path class="st2" d="M90.35,212.1c3.28-0.71,5.63,1.37,7.13,4.25c2.17,4.16,4.13,8.47,5.81,12.85c3.1,8.06,6.03,16.19,8.84,24.36
	c2.51,7.32,4.39,14.88,7.27,22.03c1.87,4.64,2.28,9.14,1.98,13.95c-0.2,3.22-1.95,5.24-4.69,6.07c-2.72,0.83-5.49,1.79-8.33-0.88
	c-3.57-3.36-5.65-7.34-7.11-11.83c-1.66-5.12-3.3-10.25-5.03-15.36c-3.32-9.77-6.89-19.47-9.96-29.32
	c-1.62-5.21-2.48-10.66-3.53-16.03c-0.27-1.4-0.17-2.95,0.07-4.37C83.56,213.48,85.39,212.08,90.35,212.1z"/>
<path class="st2" d="M1093.3,284.31c-3.65-4.94-2.02-9.61,0.76-14.21c0.27-0.41,0.55-0.82,0.82-1.22
	c10.37-15.39,20.74-30.77,31.1-46.16c0.34-0.42,0.68-0.83,1.01-1.25c0.33-0.38,0.66-0.77,0.99-1.15c0.37-0.39,0.73-0.77,1.1-1.16
	c0.37-0.35,0.73-0.7,1.1-1.06c0.42-0.33,0.84-0.66,1.26-0.99c0,0,0.01-0.01,0.02-0.01c0.71-0.39,1.42-0.78,2.14-1.17
	c0,0,0.05-0.01,0.05-0.01c2.28,0.07,4.56,0.14,6.84,0.22c4.81,3.08,3.6,7.63,2.45,11.79c-0.81,2.94-2.43,5.73-4.07,8.35
	c-9.21,14.73-18.49,29.42-27.86,44.05c-1.26,1.96-3.13,3.52-4.72,5.27c-0.43,0.29-0.86,0.57-1.28,0.86c0,0-0.08,0.04-0.08,0.04
	c-2.87,0.06-5.75,0.11-8.62,0.17c-0.32-0.09-0.61-0.24-0.86-0.46c-0.35-0.26-0.7-0.53-1.04-0.79c0,0-0.12-0.11-0.12-0.11
	C1093.95,284.97,1093.63,284.64,1093.3,284.31z"/>
<path class="st2" d="M1066.52,262.45c-0.96-1.71-1.92-3.41-2.89-5.12c-0.05-0.85-0.1-1.7-0.15-2.55c0.88-2.38,1.38-4.98,2.7-7.09
	c5.71-9.17,11.54-18.27,17.58-27.22c1.69-2.51,4.05-4.69,6.47-6.55c3.19-2.46,6.7-1.06,9.68,0.58c2.84,1.57,3.58,4.65,3.02,7.7
	c-0.45,2.45-1.49,4.81-2.38,7.17c-0.38,1.02-0.99,1.96-1.57,2.89c-5.38,8.73-10.62,17.55-16.28,26.09
	c-1.63,2.45-4.37,4.26-6.83,6.04c-2.84,2.06-5.74,1.77-8.3-0.75C1067.23,263.25,1066.87,262.85,1066.52,262.45z"/>
<path class="st3" d="M203.66,954.95c0.91-0.08,1.82-0.23,2.73-0.23c30.21-0.01,60.42-0.02,90.62-0.01c0.91,0,1.82,0.15,2.73,0.23
	c-0.08,0.26-0.16,0.52-0.24,0.77c-31.86,0-63.72,0.01-95.59,0.01C203.83,955.46,203.75,955.2,203.66,954.95z"/>
<path class="st4" d="M239.02,937.28c-1.39,0.29-2.78,0.83-4.17,0.84c-19.6,0.06-39.2,0.06-58.79,0.02c-1.41,0-2.83-0.46-4.24-0.7
	l0.09-0.43c0.35-0.01,0.67-0.1,0.96-0.28c20.57,0.03,41.14,0.06,61.71,0.09C236.05,936.97,237.53,937.13,239.02,937.28z"/>
<path class="st5" d="M307.5,680.58c16.08,0.02,32.15,0.04,48.23,0.05c0.07,0.26,0.15,0.52,0.23,0.78
	c-16.26-0.02-32.52-0.04-48.78-0.07C307.29,681.09,307.39,680.84,307.5,680.58z"/>
<path class="st5" d="M299.5,955.71c0.08-0.26,0.16-0.52,0.24-0.77c12.06-0.15,24.12-0.3,36.18-0.45c2.63,0.14,5.26,0.27,7.88,0.41
	c-0.85,0.28-1.7,0.81-2.55,0.82C327.34,955.75,313.42,955.72,299.5,955.71z"/>
<path class="st6" d="M351.52,663.66c-11.44,0-22.88,0-34.32,0.01c1.02-0.28,2.03-0.8,3.05-0.81c9.41-0.07,18.81-0.07,28.22-0.01
	C349.49,662.85,350.51,663.37,351.52,663.66z"/>
<path class="st7" d="M152.01,671.56c-0.32,0.17-0.63,0.47-0.96,0.5c-8.92,0.56-17.84,1.09-26.76,1.63c3.96-0.53,7.91-1.26,11.9-1.55
	C141.44,671.76,146.73,671.74,152.01,671.56z"/>
<path class="st8" d="M386.85,666c-9.98-0.71-19.95-1.41-29.93-2.12C366.97,663.53,376.98,663.88,386.85,666z"/>
<path class="st5" d="M106.85,690.44c9.9-0.39,19.8-0.79,29.71-1.18c-0.45,0.28-0.9,0.79-1.36,0.81c-9.54,0.41-19.07,0.76-28.61,1.12
	C106.67,690.94,106.76,690.69,106.85,690.44z"/>
<path class="st3" d="M532,949.03c1.41-0.25,2.82-0.68,4.24-0.71c9.27-0.15,18.53-0.2,27.8-0.29c-3.43,0.31-6.86,0.73-10.31,0.89
	c-5.68,0.27-11.38,0.36-17.06,0.52C535.11,949.31,533.55,949.17,532,949.03z"/>
<path class="st7" d="M307.39,663.87c-1.41,0.26-2.81,0.72-4.22,0.74c-8.92,0.15-17.84,0.21-26.76,0.3c0.68-0.24,1.35-0.68,2.04-0.69
	C288.08,664.07,297.74,663.98,307.39,663.87z"/>
<path class="st5" d="M362.58,953.86c8.38-0.16,16.76-0.33,25.14-0.49c1.89,0.14,3.79,0.29,5.68,0.43c-0.85,0.29-1.69,0.81-2.54,0.82
	c-9.5,0.05-19.01,0.03-28.51,0.02C362.42,954.38,362.5,954.12,362.58,953.86z"/>
<path class="st8" d="M187.23,669.37c-0.66,0.27-1.31,0.75-1.99,0.78c-8.53,0.47-17.06,0.87-25.59,1.29
	c0.02-0.25,0.04-0.51,0.05-0.76C168.88,670.25,178.05,669.81,187.23,669.37z"/>
<path class="st7" d="M460.59,929.39c-3.23,0.34-6.45,0.85-9.68,0.97c-4.55,0.16-9.1,0.02-13.66,0.01c1.04-0.27,2.08-0.75,3.13-0.77
	C447.12,929.47,453.86,929.45,460.59,929.39z"/>
<path class="st5" d="M936.84,930.75c8.33-0.53,16.67-1.05,25-1.58c0.46,0.15,0.92,0.3,1.37,0.45c-0.49,0.23-0.98,0.65-1.48,0.67
	c-8.39,0.45-16.79,0.85-25.19,1.25C936.65,931.29,936.74,931.02,936.84,930.75z"/>
<path class="st5" d="M745.97,895.29c3.79-0.35,7.58-0.93,11.38-0.99c6.02-0.09,12.05,0.16,18.07,0.27c0.12,0.24,0.24,0.47,0.36,0.71
	C765.85,895.28,755.91,895.29,745.97,895.29z"/>
<path class="st7" d="M308.48,934.91c-1.04,0.26-2.08,0.73-3.12,0.75c-8.93,0.12-17.86,0.17-26.8,0.23c0.68-0.24,1.35-0.69,2.03-0.7
	C289.89,935.07,299.18,935,308.48,934.91z"/>
<path class="st8" d="M276.51,935.98c-0.66,0.27-1.32,0.77-1.99,0.78c-9.3,0.1-18.6,0.14-27.89,0.19c0.07-0.26,0.14-0.52,0.21-0.77
	C256.73,936.12,266.62,936.05,276.51,935.98z"/>
<path class="st5" d="M203.66,954.95c0.08,0.26,0.16,0.52,0.25,0.77c-8.77,0.01-17.55,0.04-26.32-0.01c-0.85,0-1.7-0.53-2.55-0.81
	c1.89-0.13,3.78-0.26,5.67-0.39C188.37,954.65,196.02,954.8,203.66,954.95z"/>
<path class="st9" d="M781.28,895.08c8.8,0.1,17.6,0.2,26.4,0.3c-0.64,0.32-1.27,0.91-1.91,0.91c-8.25,0.07-16.49,0.07-24.74,0.02
	c-0.66,0-1.32-0.52-1.98-0.8C779.8,895.37,780.54,895.23,781.28,895.08z"/>
<path class="st3" d="M355.96,681.42c-0.08-0.26-0.16-0.52-0.23-0.78c8.51,0.64,17.01,1.28,25.52,1.92
	C372.82,682.17,364.39,681.79,355.96,681.42z"/>
<path class="st5" d="M407.79,952.73c7.27-0.15,14.54-0.31,21.8-0.46c1.89,0.14,3.78,0.28,5.68,0.41c-0.85,0.29-1.69,0.82-2.54,0.83
	c-8.42,0.05-16.84,0.01-25.26-0.01C407.58,953.24,407.68,952.99,407.79,952.73z"/>
<path class="st7" d="M403.26,931.6c-2.13,0.31-4.26,0.83-6.39,0.88c-6.37,0.13-12.75,0.07-19.13,0.09c2.5-0.3,4.99-0.79,7.49-0.86
	C391.24,931.57,397.25,931.63,403.26,931.6z"/>
<path class="st7" d="M272.14,664.98c-7.4,0.34-14.8,0.67-22.2,1.01c2.14-0.32,4.27-0.85,6.42-0.91
	C261.61,664.93,266.87,665,272.14,664.98z"/>
<path class="st5" d="M415.33,572.43c8.47,0.05,16.93,0.11,25.4,0.16c-1.4,0.3-2.79,0.84-4.2,0.86c-5.69,0.09-11.38,0.08-17.07-0.04
	C418.08,573.38,416.71,572.78,415.33,572.43z"/>
<path class="st3" d="M232.23,683.48c3.91-0.32,7.82-0.74,11.73-0.93c4.13-0.2,8.27-0.17,12.41-0.24c0.48,0.11,0.96,0.23,1.45,0.34
	c-7.71,0.41-15.42,0.83-23.12,1.24C233.87,683.76,233.05,683.62,232.23,683.48z"/>
<path class="st7" d="M796.66,916.11c-2.12,0.32-4.24,0.86-6.36,0.91c-6,0.15-12,0.1-17.99,0.14c3.22-0.32,6.43-0.82,9.65-0.93
	C786.85,916.05,791.76,916.14,796.66,916.11z"/>
<path class="st7" d="M602.74,923.89c-2.13,0.31-4.25,0.83-6.38,0.88c-6.01,0.14-12.02,0.08-18.03,0.09c2.86-0.31,5.71-0.82,8.58-0.9
	C592.18,923.8,597.46,923.9,602.74,923.89z"/>
<path class="st5" d="M604.02,946.19c6.51-0.19,13.03-0.38,19.54-0.57c1.16,0.15,2.32,0.31,3.48,0.46c-1.39,0.3-2.78,0.83-4.17,0.85
	c-6.38,0.09-12.76,0.05-19.14,0.05C603.82,946.72,603.92,946.46,604.02,946.19z"/>
<path class="st5" d="M482.71,950.5c6.17-0.15,12.34-0.3,18.52-0.45c1.53,0.14,3.05,0.29,4.58,0.43c-1.4,0.3-2.79,0.84-4.19,0.85
	c-6.41,0.06-12.81-0.03-19.22-0.06C482.5,951.01,482.6,950.75,482.71,950.5z"/>
<path class="st5" d="M574.29,947.33c6.51-0.2,13.01-0.39,19.52-0.59c1.16,0.15,2.32,0.3,3.48,0.45c-1.39,0.3-2.77,0.83-4.17,0.85
	c-6.37,0.1-12.75,0.06-19.12,0.07C574.09,947.85,574.19,947.59,574.29,947.33z"/>
<path class="st8" d="M374.61,932.7c-1.75,0.31-3.49,0.85-5.24,0.89c-5.99,0.15-11.99,0.12-17.98,0.16c0.07-0.26,0.14-0.52,0.22-0.77
	C359.27,932.88,366.94,932.79,374.61,932.7z"/>
<path class="st7" d="M488.13,928.31c-7.41,0.32-14.82,0.63-22.23,0.95C473.31,928.94,480.72,928.62,488.13,928.31z"/>
<path class="st5" d="M532,949.03c1.56,0.14,3.11,0.28,4.67,0.42c-2.5,0.29-4.99,0.77-7.5,0.82c-4.93,0.1-9.86-0.03-14.79-0.07
	c0.1-0.26,0.2-0.52,0.31-0.78C520.46,949.29,526.23,949.16,532,949.03z"/>
<path class="st5" d="M270.04,681.69c6.16-0.16,12.32-0.31,18.49-0.47c1.16,0.15,2.32,0.29,3.48,0.44c-2.13,0.3-4.26,0.81-6.39,0.85
	c-5.3,0.1-10.6-0.01-15.89-0.04C269.83,682.21,269.93,681.95,270.04,681.69z"/>
<path class="st3" d="M1011.53,924.9c6.64-0.68,13.29-1.36,19.93-2.04C1024.81,923.53,1018.17,924.21,1011.53,924.9z"/>
<path class="st7" d="M245.68,666.09c-6.3,0.34-12.59,0.67-18.89,1.01C233.09,666.76,239.39,666.43,245.68,666.09z"/>
<path class="st3" d="M837.26,936.88c7.02-0.31,14.04-0.63,21.06-0.94c-6.19,0.46-12.39,0.93-18.58,1.39
	C838.91,937.18,838.09,937.03,837.26,936.88z"/>
<path class="st3" d="M909.15,880.94c6.94-0.01,13.88-0.01,20.81-0.02C923.03,882.89,916.09,882.62,909.15,880.94z"/>
<path class="st8" d="M435.21,930.47c-2.48,0.33-4.94,0.86-7.43,0.95c-4.54,0.15-9.09,0.04-13.63,0.03c0.07-0.26,0.14-0.52,0.21-0.78
	C421.31,930.6,428.26,930.53,435.21,930.47z"/>
<path class="st7" d="M869.41,912.83c-7.03,0.33-14.06,0.67-21.08,1C855.36,913.5,862.38,913.16,869.41,912.83z"/>
<path class="st10" d="M571.89,259.49c-6.99,0-13.98,0.01-20.98,0.01C557.91,257.74,564.9,257.91,571.89,259.49z"/>
<path class="st11" d="M407.79,952.73c-0.11,0.26-0.21,0.51-0.32,0.77c-4.69,0.1-9.39,0.2-14.08,0.3c-1.89-0.14-3.79-0.29-5.68-0.43
	C394.41,953.15,401.1,952.94,407.79,952.73z"/>
<path class="st8" d="M545.45,926.11c-6.68,0.31-13.36,0.62-20.04,0.93c0.08-0.27,0.18-0.54,0.29-0.8
	C532.28,926.2,538.86,926.16,545.45,926.11z"/>
<path class="st8" d="M743.79,918.34c-3.2,0.35-6.39,0.86-9.6,1.02c-3.44,0.16-6.9-0.01-10.35-0.04c0.06-0.26,0.13-0.52,0.21-0.78
	C730.62,918.47,737.2,918.4,743.79,918.34z"/>
<path class="st4" d="M345.94,933.87c-0.99,0.33-1.98,0.94-2.98,0.95c-5.63,0.09-11.26,0.03-16.89,0.03c0.08-0.25,0.15-0.51,0.2-0.77
	C332.82,934.01,339.38,933.94,345.94,933.87z"/>
<path class="st8" d="M521.16,927.14c-3.57,0.36-7.13,0.86-10.71,1.04c-3.08,0.15-6.18-0.06-9.27-0.11c0.06-0.25,0.13-0.51,0.2-0.76
	C507.98,927.25,514.57,927.19,521.16,927.14z"/>
<path class="st5" d="M693.22,942.87c5.41-0.17,10.82-0.33,16.23-0.5c0.83,0.16,1.66,0.32,2.5,0.47c-6.31,0.27-12.63,0.54-18.94,0.81
	C693.08,943.4,693.15,943.13,693.22,942.87z"/>
<path class="st3" d="M106.85,690.44c-0.09,0.25-0.18,0.5-0.27,0.75c-4.28,0.09-8.57,0.32-12.85,0.23c-1.89-0.04-3.77-0.74-5.66-1.15
	C94.33,690.33,100.59,690.39,106.85,690.44z"/>
<path class="st8" d="M758.17,607.53c-6.26,0.02-12.53,0.04-18.79,0.07C745.64,606.03,751.9,605.83,758.17,607.53z"/>
<path class="st8" d="M715.14,919.45c-2.98,0.35-5.96,0.84-8.95,1.02c-3.41,0.2-6.83,0.12-10.25,0.17c0.13-0.35,0.27-0.69,0.4-1.04
	C702.61,919.55,708.87,919.5,715.14,919.45z"/>
<path class="st11" d="M292.01,681.66c-1.16-0.15-2.32-0.29-3.48-0.44c6.32-0.21,12.65-0.43,18.97-0.64
	c-0.11,0.26-0.22,0.51-0.32,0.77C302.12,681.45,297.07,681.56,292.01,681.66z"/>
<path class="st3" d="M896.79,933.58c5.84-0.4,11.68-0.79,17.52-1.19c0.46,0.11,0.92,0.22,1.38,0.34
	c-5.85,0.44-11.69,0.88-17.54,1.32C897.7,933.89,897.24,933.74,896.79,933.58z"/>
<path class="st3" d="M172.73,686.8c6.28-0.32,12.55-0.65,18.83-0.97c-5.83,0.47-11.65,0.94-17.48,1.41
	C173.63,687.09,173.18,686.94,172.73,686.8z"/>
<path class="st3" d="M362.58,953.86c-0.08,0.26-0.15,0.52-0.23,0.78c-5.84,0.02-11.69,0.05-17.53,0.07
	c0.02-0.26,0.05-0.52,0.09-0.78C350.79,953.91,356.69,953.88,362.58,953.86z"/>
<path class="st8" d="M171.81,937.44c-4.15-0.13-8.31-0.17-12.46-0.42c-1.75-0.1-3.48-0.63-5.22-0.96
	c5.78,0.08,11.57,0.16,17.36,0.24c0.12,0.24,0.25,0.48,0.4,0.7C171.89,937,171.81,937.44,171.81,937.44z"/>
<path class="st4" d="M636.8,923.76c-5.89,0-11.77,0.01-17.66,0.01c0.09-0.26,0.17-0.52,0.23-0.79c5.07-0.18,10.14-0.37,15.21-0.55
	c0.73,0.1,1.46,0.19,2.19,0.29C636.82,923.07,636.83,923.41,636.8,923.76z"/>
<path class="st5" d="M749.4,940.56c5.05-0.13,10.1-0.26,15.15-0.39c0.83,0.16,1.66,0.31,2.49,0.47c-5.99,0.23-11.98,0.46-17.96,0.7
	C749.18,941.07,749.29,940.82,749.4,940.56z"/>
<path class="st5" d="M800.15,938.43c4.69-0.16,9.38-0.32,14.07-0.48c1.16,0.14,2.32,0.28,3.47,0.42c-5.95,0.29-11.9,0.57-17.84,0.86
	C799.95,938.95,800.05,938.69,800.15,938.43z"/>
<path class="st12" d="M1049.04,901.76c-5.17,0.34-10.35,0.69-15.52,1.03c5.2-0.6,10.4-1.2,15.6-1.8
	C1049.09,901.25,1049.06,901.51,1049.04,901.76z"/>
<path class="st5" d="M837.26,936.88c0.83,0.15,1.65,0.3,2.48,0.45c-5.57,0.27-11.15,0.54-16.72,0.81c0.1-0.26,0.2-0.53,0.3-0.79
	C827.96,937.19,832.61,937.03,837.26,936.88z"/>
<path class="st8" d="M847.37,913.9c-5.55,0.33-11.1,0.66-16.64,0.99c0.06-0.26,0.13-0.52,0.2-0.78
	C836.41,914.04,841.89,913.97,847.37,913.9z"/>
<path class="st5" d="M722.95,941.72c4.34-0.16,8.68-0.31,13.03-0.47c1.16,0.15,2.32,0.29,3.48,0.44
	c-5.58,0.27-11.16,0.55-16.74,0.82C722.8,942.25,722.88,941.99,722.95,941.72z"/>
<path class="st8" d="M891.48,911.74c-5.53,0.36-11.07,0.71-16.6,1.07c0.07-0.26,0.14-0.52,0.22-0.78
	C880.55,911.94,886.01,911.84,891.48,911.74z"/>
<path class="st11" d="M482.71,950.5c-0.11,0.25-0.22,0.51-0.32,0.77c-3.96,0.11-7.92,0.22-11.88,0.32c-1.53-0.14-3.07-0.28-4.6-0.43
	C471.51,950.94,477.11,950.72,482.71,950.5z"/>
<path class="st5" d="M935.55,585.77c5.52-0.04,11.05-0.07,16.57-0.11C946.6,587.4,941.08,587.31,935.55,585.77z"/>
<path class="st5" d="M465.91,951.17c1.53,0.14,3.07,0.28,4.6,0.43c-5.61,0.21-11.22,0.41-16.82,0.62c0.11-0.23,0.2-0.46,0.27-0.71
	C457.95,951.39,461.93,951.28,465.91,951.17z"/>
<path class="st7" d="M770.28,917.22c-2.56,0.2-5.12,0.4-7.68,0.6c-0.05-0.2-0.09-0.4-0.1-0.6
	C765.09,917.22,767.68,917.22,770.28,917.22z"/>
<path class="st4" d="M577.38,925.06c-5.06,2.05-10.32,0.74-15.5,0.95c0.09-0.25,0.16-0.51,0.22-0.78
	C567.19,925.18,572.28,925.12,577.38,925.06z"/>
<path class="st12" d="M1031.47,902.91c-4.09,0.32-8.19,0.64-12.28,0.96C1023.28,903.55,1027.37,903.23,1031.47,902.91z"/>
<path class="st12" d="M912.44,591.02c-5.17-0.01-10.34-0.01-15.5-0.02C902.11,589.47,907.28,589.47,912.44,591.02z"/>
<path class="st5" d="M198.49,685.11c4.3-0.2,8.6-0.4,12.89-0.59c0.43,0.15,0.85,0.31,1.28,0.46c-4.82,0.3-9.65,0.6-14.47,0.91
	C198.29,685.63,198.39,685.37,198.49,685.11z"/>
<path class="st3" d="M139.91,952.49c4.81,0.32,9.62,0.64,14.44,0.96c-0.45,0.14-0.89,0.29-1.34,0.43
	C148.64,953.42,144.28,952.95,139.91,952.49z"/>
<path class="st3" d="M675.57,580.08c4.72,0.02,9.44,0.04,14.16,0.06C685.01,581.87,680.29,581.82,675.57,580.08z"/>
<path class="st5" d="M778.01,939.44c3.62-0.13,7.25-0.26,10.87-0.39c1.16,0.15,2.32,0.29,3.48,0.44c-4.87,0.24-9.73,0.48-14.6,0.71
	C777.85,939.95,777.93,939.69,778.01,939.44z"/>
<path class="st5" d="M866.29,935.14c3.95-0.17,7.9-0.33,11.86-0.5c0.79,0.15,1.59,0.29,2.38,0.44c-4.84,0.28-9.69,0.57-14.53,0.85
	C866.09,935.67,866.19,935.4,866.29,935.14z"/>
<path class="st11" d="M180.72,954.5c-1.89,0.13-3.78,0.26-5.67,0.39c-2.87-0.08-5.74-0.16-8.61-0.24c-0.1-0.26-0.2-0.52-0.3-0.79
	C170.99,954.08,175.85,954.29,180.72,954.5z"/>
<path class="st8" d="M762.5,917.22c0.02,0.2,0.05,0.41,0.1,0.6c-4.85,0.14-9.7,0.29-14.55,0.43c0.09-0.27,0.19-0.54,0.3-0.81
	C753.07,917.38,757.78,917.3,762.5,917.22z"/>
<path class="st4" d="M824.25,915.12c-4.7,2.12-9.63,0.76-14.45,0.93c0.09-0.26,0.17-0.52,0.24-0.79
	C814.77,915.22,819.51,915.17,824.25,915.12z"/>
<path class="st7" d="M902.53,248.35c-4.43,0.02-8.85,0.03-13.28,0.05C893.68,246.86,898.1,246.8,902.53,248.35z"/>
<path class="st3" d="M453.96,951.51c-0.07,0.24-0.16,0.48-0.27,0.71c-4.34,0.05-8.67,0.1-13.01,0.16c0.02-0.27,0.04-0.53,0.07-0.8
	C445.15,951.55,449.56,951.53,453.96,951.51z"/>
<path class="st5" d="M232.23,683.48c0.82,0.14,1.64,0.28,2.46,0.41c-4.51,0.23-9.02,0.45-13.53,0.68c0.11-0.25,0.22-0.51,0.33-0.76
	C225.07,683.71,228.65,683.6,232.23,683.48z"/>
<path class="st11" d="M514.69,949.42c-0.11,0.26-0.21,0.52-0.31,0.78c-2.86,0.09-5.72,0.19-8.57,0.28
	c-1.53-0.14-3.05-0.29-4.58-0.43C505.72,949.84,510.2,949.63,514.69,949.42z"/>
<path class="st5" d="M896.79,933.58c0.46,0.16,0.91,0.31,1.37,0.47c-4.45,0.29-8.9,0.58-13.35,0.86c0.09-0.26,0.19-0.52,0.29-0.78
	C888.99,933.94,892.89,933.76,896.79,933.58z"/>
<path class="st5" d="M166.13,953.87c0.1,0.26,0.2,0.52,0.3,0.79c-4.48-0.26-8.95-0.52-13.43-0.78c0.45-0.14,0.89-0.29,1.34-0.43
	C158.28,953.59,162.2,953.73,166.13,953.87z"/>
<path class="st12" d="M326.27,934.08c-0.05,0.26-0.12,0.52-0.2,0.77c-4.43-0.03-8.87-0.06-13.3-0.09
	C317.26,934.54,321.76,934.31,326.27,934.08z"/>
<path class="st11" d="M436.13,700.22c0-2.17,0-4.34-0.01-6.5C436.12,695.89,436.13,698.05,436.13,700.22z"/>
<path class="st8" d="M931.15,909.53c-4.45,0.32-8.9,0.64-13.35,0.96c0.06-0.26,0.13-0.52,0.21-0.78
	C922.38,909.66,926.77,909.6,931.15,909.53z"/>
<path class="st3" d="M722.95,941.72c-0.07,0.26-0.15,0.52-0.23,0.78c-3.59,0.11-7.19,0.22-10.78,0.34c-0.83-0.16-1.66-0.31-2.5-0.47
	C713.95,942.16,718.45,941.94,722.95,941.72z"/>
<path class="st11" d="M270.04,681.69c-0.11,0.26-0.21,0.52-0.32,0.78c-3.97,0.06-7.94,0.12-11.91,0.18
	c-0.48-0.11-0.96-0.23-1.45-0.34C260.92,682.1,265.48,681.9,270.04,681.69z"/>
<path class="st12" d="M562.09,925.24c-0.06,0.26-0.13,0.52-0.22,0.78c-4.43-0.02-8.85-0.05-13.28-0.07
	C553.1,925.7,557.6,925.47,562.09,925.24z"/>
<path class="st3" d="M778.01,939.44c-0.07,0.26-0.16,0.51-0.25,0.76c-3.57,0.14-7.14,0.29-10.71,0.43
	c-0.83-0.15-1.66-0.31-2.49-0.46C769.04,939.92,773.52,939.68,778.01,939.44z"/>
<path class="st11" d="M739.46,941.69c-1.16-0.14-2.32-0.29-3.48-0.44c4.47-0.23,8.95-0.46,13.42-0.69
	c-0.11,0.26-0.21,0.51-0.32,0.77C745.87,941.45,742.66,941.57,739.46,941.69z"/>
<path class="st12" d="M810.03,915.27c-0.07,0.27-0.15,0.53-0.24,0.79c-4.04-0.01-8.08-0.02-12.12-0.03
	C801.79,915.77,805.91,915.52,810.03,915.27z"/>
<path class="st6" d="M246.84,936.18c-0.07,0.26-0.15,0.51-0.21,0.77c-2.54,0.11-5.07,0.22-7.61,0.33c-1.49-0.16-2.97-0.31-4.46-0.47
	C238.66,936.6,242.75,936.39,246.84,936.18z"/>
<path class="st8" d="M985.15,906.23c-4.07,0.35-8.14,0.7-12.21,1.04c0.07-0.26,0.14-0.52,0.21-0.78
	C977.16,906.41,981.15,906.32,985.15,906.23z"/>
<path class="st5" d="M921.4,931.83c3.22-0.17,6.43-0.34,9.65-0.51c0.79,0.14,1.58,0.28,2.37,0.42c-4.1,0.3-8.21,0.59-12.31,0.89
	C921.2,932.36,921.3,932.1,921.4,931.83z"/>
<path class="st11" d="M627.04,946.08c-1.16-0.15-2.32-0.31-3.48-0.46c4.12-0.2,8.25-0.4,12.37-0.6c-0.11,0.26-0.21,0.52-0.31,0.79
	C632.76,945.9,629.9,945.99,627.04,946.08z"/>
<path class="st3" d="M963.22,929.62c-0.46-0.15-0.92-0.3-1.37-0.45c4.07-0.31,8.14-0.62,12.21-0.93
	C970.44,928.7,966.83,929.16,963.22,929.62z"/>
<path class="st3" d="M1096.3,286.65c2.87-0.06,5.75-0.11,8.62-0.17C1102.09,288.74,1099.22,289.03,1096.3,286.65z"/>
<path class="st5" d="M635.62,945.81c0.1-0.26,0.2-0.53,0.31-0.79c3.28-0.14,6.55-0.27,9.83-0.41c0.36,0.45,0.71,0.91,1.07,1.36
	C643.09,945.92,639.35,945.87,635.62,945.81z"/>
<path class="st11" d="M792.36,939.48c-1.16-0.15-2.32-0.29-3.48-0.44c3.76-0.21,7.52-0.41,11.28-0.62c-0.1,0.26-0.2,0.53-0.3,0.79
	C797.35,939.31,794.86,939.4,792.36,939.48z"/>
<path class="st7" d="M440.66,268.38c-3.67,0.31-7.33,0.62-10.99,0.93C433.33,269,437,268.69,440.66,268.38z"/>
<path class="st12" d="M619.37,922.99c-0.06,0.27-0.14,0.53-0.23,0.79c-3.68-0.04-7.37-0.07-11.05-0.11
	C611.85,923.44,615.61,923.21,619.37,922.99z"/>
<path class="st5" d="M172.73,686.8c0.45,0.14,0.9,0.29,1.35,0.43c-3.76,0.24-7.52,0.48-11.28,0.72c0.1-0.26,0.21-0.52,0.32-0.78
	C166.32,687.04,169.52,686.92,172.73,686.8z"/>
<path class="st5" d="M145.45,688.28c3.24-0.16,6.48-0.32,9.73-0.48c0.42,0.15,0.85,0.31,1.27,0.46c-3.75,0.27-7.5,0.53-11.24,0.8
	C145.28,688.8,145.36,688.54,145.45,688.28z"/>
<path class="st7" d="M122.23,673.79c-3.72,0.34-7.44,0.68-11.16,1.02C114.79,674.47,118.51,674.13,122.23,673.79z"/>
<path class="st8" d="M1002.75,905.12c-3.67,0.35-7.34,0.69-11.01,1.04c0.02-0.25,0.04-0.51,0.05-0.77
	C995.44,905.3,999.09,905.21,1002.75,905.12z"/>
<path class="st7" d="M463.88,269.32c-3.67-0.31-7.33-0.62-11-0.94C456.55,268.7,460.21,269.01,463.88,269.32z"/>
<path class="st8" d="M224.75,667.2c-3.7,0.32-7.39,0.64-11.09,0.96c0.02-0.25,0.04-0.51,0.05-0.76
	C217.39,667.33,221.07,667.27,224.75,667.2z"/>
<path class="st7" d="M966.43,907.37c-3.69,0.31-7.39,0.62-11.08,0.93c0.02-0.26,0.05-0.51,0.07-0.77
	C959.09,907.48,962.76,907.42,966.43,907.37z"/>
<path class="st11" d="M440.75,951.57c-0.03,0.26-0.05,0.53-0.07,0.8c-1.8,0.1-3.6,0.21-5.41,0.31c-1.89-0.14-3.78-0.28-5.68-0.41
	C433.31,952.04,437.03,951.81,440.75,951.57z"/>
<path class="st7" d="M948.77,908.43c-3.68,0.33-7.37,0.66-11.05,0.99c0.02-0.26,0.05-0.51,0.07-0.77
	C941.45,908.57,945.11,908.5,948.77,908.43z"/>
<path class="st3" d="M660.07,958.12c3.64-0.02,7.29-0.03,10.93-0.05C667.37,960.08,663.72,959.68,660.07,958.12z"/>
<path class="st4" d="M913.5,910.86c-3.7,0.27-7.41,0.53-11.11,0.8c0.09-0.26,0.16-0.52,0.23-0.79c3.24-0.16,6.49-0.33,9.73-0.49
	C912.73,910.54,913.12,910.7,913.5,910.86z"/>
<path class="st12" d="M902.62,910.87c-0.06,0.27-0.14,0.53-0.23,0.79c-3.31-0.02-6.62-0.04-9.94-0.05
	C895.84,911.36,899.23,911.12,902.62,910.87z"/>
<path class="st3" d="M129.99,951.39c3.3,0.37,6.6,0.73,9.91,1.1C136.59,952.12,133.29,951.76,129.99,951.39z"/>
<path class="st11" d="M597.28,947.19c-1.16-0.15-2.32-0.3-3.48-0.45c3.41-0.18,6.81-0.37,10.22-0.55c-0.1,0.26-0.2,0.53-0.29,0.79
	C601.58,947.05,599.43,947.12,597.28,947.19z"/>
<path class="st8" d="M1018.21,904.02c-3.31,0.35-6.63,0.7-9.94,1.06c0.02-0.25,0.04-0.51,0.05-0.77
	C1011.62,904.21,1014.91,904.11,1018.21,904.02z"/>
<path class="st8" d="M110.12,674.89c-3.36,0.35-6.71,0.69-10.07,1.04C103.4,675.59,106.76,675.24,110.12,674.89z"/>
<path class="st6" d="M214.83,250.44c-3.33,0-6.66,0-10,0.01C208.16,249.13,211.49,249.13,214.83,250.44z"/>
<path class="st11" d="M574.29,947.33c-0.1,0.26-0.19,0.52-0.29,0.78c-3.31-0.05-6.61-0.09-9.92-0.14
	C567.48,947.76,570.88,947.54,574.29,947.33z"/>
<path class="st5" d="M253.33,576.84c3.27,0.06,6.54,0.11,9.81,0.17c0.13,0.26,0.25,0.52,0.37,0.78
	C260.11,577.48,256.72,577.16,253.33,576.84z"/>
<path class="st11" d="M221.49,683.82c-0.11,0.25-0.22,0.5-0.33,0.76c-2.83,0.13-5.66,0.27-8.5,0.4c-0.43-0.15-0.85-0.31-1.28-0.46
	C214.75,684.29,218.12,684.05,221.49,683.82z"/>
<path class="st8" d="M203.82,668.32c-2.96,0.31-5.93,0.63-8.89,0.94c0.02-0.25,0.04-0.51,0.05-0.76
	C197.92,668.44,200.87,668.38,203.82,668.32z"/>
<path class="st3" d="M693.22,942.87c-0.07,0.26-0.14,0.53-0.22,0.79c-2.97,0-5.94,0-8.91,0.01c0.05-0.31,0.12-0.62,0.21-0.92
	C687.27,942.78,690.25,942.83,693.22,942.87z"/>
<path class="st5" d="M979.82,927.45c2.88-0.06,5.77-0.13,8.65-0.19c-2.98,0.33-5.96,0.66-8.94,0.99
	C979.63,927.98,979.73,927.71,979.82,927.45z"/>
<path class="st11" d="M344.9,953.93c-0.04,0.26-0.07,0.52-0.09,0.78c-0.33,0.1-0.67,0.16-1.01,0.19c-2.63-0.14-5.26-0.27-7.88-0.41
	C338.91,954.3,341.91,954.12,344.9,953.93z"/>
<path class="st7" d="M450.66,268.21c-2.99-0.07-5.99-0.15-8.98-0.22C444.71,266.47,447.69,267.04,450.66,268.21z"/>
<path class="st11" d="M823.31,937.35c-0.1,0.26-0.2,0.53-0.3,0.79c-1.77,0.07-3.55,0.15-5.32,0.22c-1.16-0.14-2.31-0.28-3.47-0.42
	C817.25,937.74,820.28,937.54,823.31,937.35z"/>
<path class="st8" d="M138.85,934.88c-2.97-0.36-5.95-0.71-8.92-1.07C132.91,934.17,135.88,934.52,138.85,934.88z"/>
<path class="st3" d="M145.45,688.28c-0.08,0.26-0.16,0.52-0.25,0.78c-2.91,0.02-5.82,0.04-8.73,0.06
	C139.46,688.84,142.46,688.56,145.45,688.28z"/>
<path class="st11" d="M866.29,935.14c-0.1,0.26-0.2,0.53-0.3,0.8c-2.55-0.02-5.1-0.04-7.65-0.05
	C860.99,935.63,863.64,935.38,866.29,935.14z"/>
<path class="st11" d="M156.45,688.26c-0.42-0.15-0.85-0.31-1.27-0.46c2.65-0.21,5.29-0.42,7.94-0.63c-0.11,0.26-0.22,0.52-0.32,0.78
	C160.68,688.05,158.56,688.16,156.45,688.26z"/>
<path class="st6" d="M724.04,918.54c-0.07,0.26-0.14,0.52-0.21,0.78c-2.56-0.02-5.11-0.03-7.67-0.05
	C718.79,919.02,721.41,918.78,724.04,918.54z"/>
<path class="st10" d="M273.18,577.75c2.52-0.33,5.04-0.65,7.56-0.98C278.22,577.1,275.7,577.43,273.18,577.75z"/>
<path class="st12" d="M1065.62,899.67c-2.62,0.3-5.24,0.61-7.86,0.91C1060.38,900.28,1063,899.97,1065.62,899.67z"/>
<path class="st5" d="M1004.08,925.26c2.51-0.07,5.02-0.14,7.53-0.21c-2.61,0.34-5.21,0.67-7.82,1.01
	C1003.89,925.79,1003.99,925.53,1004.08,925.26z"/>
<path class="st5" d="M993.04,926.34c2.11-0.16,4.23-0.32,6.34-0.48c0.43,0.14,0.85,0.29,1.28,0.43c-2.64,0.28-5.28,0.56-7.91,0.84
	C992.85,926.87,992.94,926.6,993.04,926.34z"/>
<path class="st6" d="M501.39,927.31c-0.07,0.25-0.14,0.51-0.2,0.76c-2.55-0.01-5.1-0.03-7.65-0.04
	C496.15,927.79,498.77,927.55,501.39,927.31z"/>
<path class="st7" d="M194.98,668.5c-0.02,0.25-0.03,0.51-0.05,0.76c-2.58,0.03-5.16,0.05-7.74,0.08
	C189.78,669.06,192.38,668.78,194.98,668.5z"/>
<path class="st11" d="M198.49,685.11c-0.1,0.26-0.2,0.52-0.3,0.77c-2.2-0.04-4.41-0.08-6.61-0.11
	C193.88,685.55,196.19,685.33,198.49,685.11z"/>
<path class="st8" d="M1140.48,216.13c-2.28-0.07-4.56-0.14-6.84-0.22C1135.97,214.23,1138.25,214.34,1140.48,216.13z"/>
<path class="st6" d="M790.11,261.49c-2.23-0.02-4.46-0.05-6.69-0.07C785.67,260.12,787.9,260.11,790.11,261.49z"/>
<path class="st11" d="M885.09,934.13c-0.1,0.26-0.19,0.52-0.29,0.78c-1.43,0.06-2.85,0.11-4.28,0.17c-0.79-0.15-1.59-0.29-2.38-0.44
	C880.46,934.47,882.78,934.3,885.09,934.13z"/>
<path class="st7" d="M1052.57,856.47c-2.3,0.03-4.61,0.06-6.91,0.08C1047.95,854.92,1050.25,855.08,1052.57,856.47z"/>
<path class="st7" d="M1049.04,901.76c0.03-0.26,0.05-0.51,0.07-0.77c2.2-0.07,4.4-0.14,6.61-0.21
	C1053.49,901.11,1051.27,901.44,1049.04,901.76z"/>
<path class="st3" d="M1088.69,915.02c1.6-0.42,3.2-0.84,4.8-1.26c0.15,0.33,0.3,0.67,0.45,1c-0.61,0.46-1.21,0.92-1.82,1.38
	C1090.98,915.76,1089.83,915.39,1088.69,915.02z"/>
<path class="st11" d="M921.4,931.83c-0.1,0.26-0.2,0.53-0.29,0.8c-1.8,0.03-3.61,0.07-5.41,0.1c-0.46-0.11-0.92-0.22-1.38-0.34
	C916.67,932.21,919.03,932.02,921.4,931.83z"/>
<path class="st7" d="M213.71,667.4c-0.02,0.25-0.03,0.51-0.05,0.76c-2.24,0.01-4.48,0.01-6.72,0.02
	C209.2,667.92,211.46,667.66,213.71,667.4z"/>
<path class="st8" d="M52.86,210.96c-2.25,0.03-4.49,0.06-6.74,0.09C48.34,209.13,50.59,209.17,52.86,210.96z"/>
<path class="st6" d="M707.46,261.4c-2.23,0.04-4.46,0.09-6.69,0.13C702.98,260.08,705.21,260.1,707.46,261.4z"/>
<path class="st8" d="M146.54,935.84c-2.24-0.3-4.49-0.6-6.73-0.9c2.2,0.05,4.4,0.09,6.6,0.14
	C146.45,935.33,146.49,935.59,146.54,935.84z"/>
<path class="st6" d="M414.36,930.67c-0.07,0.26-0.14,0.52-0.21,0.78c-2.19-0.03-4.38-0.06-6.57-0.09
	C409.84,931.13,412.1,930.9,414.36,930.67z"/>
<path class="st6" d="M913.5,910.86c-0.38-0.16-0.77-0.32-1.15-0.48c1.88-0.22,3.77-0.44,5.65-0.67c-0.07,0.26-0.14,0.52-0.21,0.78
	C916.36,910.62,914.93,910.74,913.5,910.86z"/>
<path class="st10" d="M535.48,881.88c1.83-0.31,3.66-0.61,5.49-0.92C539.14,881.27,537.31,881.57,535.48,881.88z"/>
<path class="st10" d="M689.88,701.38c0.26,0.84,0.52,1.67,0.79,2.51c-0.28,0.11-0.56,0.22-0.85,0.33c-0.43-0.86-0.85-1.72-1.28-2.58
	C688.99,701.55,689.43,701.46,689.88,701.38z"/>
<path class="st11" d="M979.82,927.45c-0.1,0.27-0.19,0.53-0.29,0.8c-1.82-0.02-3.64-0.04-5.47-0.05
	C975.98,927.94,977.9,927.7,979.82,927.45z"/>
<path class="st7" d="M1008.32,904.31c-0.02,0.26-0.03,0.51-0.05,0.77c-1.85,0.01-3.71,0.01-5.56,0.02
	C1004.58,904.83,1006.45,904.57,1008.32,904.31z"/>
<path class="st7" d="M159.71,670.68c-0.02,0.25-0.03,0.51-0.05,0.76c-1.87,0.01-3.75,0.01-5.62,0.02
	C155.92,671.2,157.81,670.94,159.71,670.68z"/>
<path class="st7" d="M991.79,905.4c-0.02,0.26-0.03,0.51-0.05,0.77c-1.88-0.01-3.75-0.01-5.63-0.02
	C988,905.9,989.89,905.65,991.79,905.4z"/>
<path class="st10" d="M263.5,577.79c-0.12-0.26-0.24-0.52-0.37-0.78c1.89,0.25,3.78,0.5,5.66,0.76
	C267.03,577.78,265.27,577.79,263.5,577.79z"/>
<path class="st6" d="M985.19,760.61c-1.05,0.05-2.15,0.3-3.15,0.1c-1.48-0.3-1.49-1.22-0.48-2.21
	C982.76,759.2,983.97,759.91,985.19,760.61z"/>
<path class="st11" d="M933.41,931.74c-0.79-0.14-1.58-0.28-2.37-0.42c1.93-0.19,3.87-0.38,5.8-0.57c-0.1,0.27-0.19,0.53-0.29,0.8
	C935.5,931.62,934.46,931.68,933.41,931.74z"/>
<path class="st12" d="M937.79,908.65c-0.03,0.26-0.05,0.51-0.07,0.77c-1.86,0-3.73-0.01-5.59-0.01
	C934.02,909.15,935.9,908.9,937.79,908.65z"/>
<path class="st6" d="M830.93,914.11c-0.07,0.26-0.14,0.52-0.2,0.78c-1.82-0.03-3.64-0.07-5.46-0.1
	C827.15,914.57,829.04,914.34,830.93,914.11z"/>
<path class="st10" d="M781.28,895.08c-0.74,0.14-1.48,0.29-2.22,0.43c-1.09-0.08-2.18-0.16-3.27-0.23
	c-0.12-0.24-0.24-0.47-0.36-0.71C777.37,894.74,779.33,894.91,781.28,895.08z"/>
<path class="st12" d="M146.54,935.84c-0.04-0.25-0.09-0.51-0.13-0.76c1.53,0.25,3.05,0.5,4.58,0.76
	C149.51,935.84,148.02,935.84,146.54,935.84z"/>
<path class="st10" d="M524.54,880.93c1.45,0.29,2.9,0.59,4.35,0.89C527.44,881.52,525.99,881.22,524.54,880.93z"/>
<path class="st12" d="M955.42,907.53c-0.03,0.26-0.05,0.51-0.07,0.77c-1.5-0.01-3-0.02-4.5-0.02
	C952.38,908.03,953.9,907.78,955.42,907.53z"/>
<path class="st3" d="M1063.49,254.78c0.05,0.85,0.1,1.7,0.15,2.55C1063.59,256.48,1063.54,255.63,1063.49,254.78z"/>
<path class="st11" d="M1000.66,926.29c-0.43-0.14-0.85-0.29-1.28-0.43c1.57-0.2,3.13-0.4,4.7-0.6c-0.09,0.27-0.19,0.53-0.29,0.8
	C1002.75,926.13,1001.7,926.21,1000.66,926.29z"/>
<path class="st6" d="M351.6,932.98c-0.08,0.26-0.15,0.51-0.22,0.77c-1.47-0.06-2.95-0.13-4.42-0.19
	C348.51,933.36,350.05,933.17,351.6,932.98z"/>
<path class="st11" d="M993.04,926.34c-0.1,0.27-0.19,0.53-0.29,0.8c-1.46-0.03-2.91-0.06-4.37-0.09
	C989.93,926.81,991.49,926.57,993.04,926.34z"/>
<path class="st3" d="M381.26,682.55c1.12,0.31,2.24,0.61,3.36,0.92C383.5,683.16,382.38,682.86,381.26,682.55z"/>
<path class="st6" d="M973.16,906.49c-0.07,0.26-0.14,0.52-0.21,0.78c-1.1-0.05-2.2-0.1-3.31-0.14
	C970.81,906.92,971.98,906.71,973.16,906.49z"/>
<path class="st6" d="M875.09,912.03c-0.08,0.26-0.15,0.52-0.22,0.78c-1.11-0.06-2.22-0.12-3.32-0.18
	C872.73,912.43,873.91,912.23,875.09,912.03z"/>
<path class="st3" d="M1085.32,915.94c1.12-0.31,2.24-0.61,3.36-0.92C1087.55,915.33,1086.43,915.63,1085.32,915.94z"/>
<path class="st13" d="M748.35,917.45c-0.11,0.27-0.21,0.53-0.3,0.81c-1.04-0.07-2.09-0.15-3.13-0.22
	C746.06,917.84,747.21,917.65,748.35,917.45z"/>
<path class="st7" d="M1056.94,857.66c-1.15-0.34-2.3-0.68-3.46-1.01C1054.63,856.99,1055.79,857.33,1056.94,857.66z"/>
<path class="st6" d="M636.77,922.72c-0.73-0.09-1.46-0.19-2.19-0.29c0.45-0.65,0.91-1.29,1.36-1.94
	C636.23,921.24,636.5,921.98,636.77,922.72z"/>
<path class="st13" d="M525.7,926.25c-0.11,0.26-0.21,0.53-0.29,0.8c-1.04-0.07-2.07-0.14-3.11-0.21
	C523.43,926.64,524.57,926.44,525.7,926.25z"/>
<path class="st7" d="M72.7,295.82c0.68-0.3,1.35-0.61,2.03-0.91C74.05,295.21,73.38,295.52,72.7,295.82z"/>
<path class="st8" d="M99.1,676c-1.16,0.31-2.33,0.62-3.49,0.93C96.77,676.62,97.94,676.31,99.1,676z"/>
<path class="st8" d="M1133.59,215.92c-0.71,0.39-1.42,0.78-2.14,1.17C1132.16,216.7,1132.88,216.31,1133.59,215.92z"/>
<path class="st7" d="M1045.63,856.56c-0.74,0.37-1.48,0.75-2.22,1.12C1044.15,857.31,1044.89,856.93,1045.63,856.56z"/>
<path class="st8" d="M54.85,212.28c-0.67-0.44-1.34-0.89-2-1.33C53.51,211.39,54.18,211.84,54.85,212.28z"/>
<path class="st8" d="M129.96,933.81c-0.75,0-1.5,0-2.25,0C128.46,933.82,129.21,933.81,129.96,933.81z"/>
<path class="st10" d="M688.45,701.44c-0.34-0.67-0.67-1.34-1.01-2.01C687.77,700.1,688.11,700.77,688.45,701.44z"/>
<path class="st3" d="M127.68,951.4c0.76,0,1.53-0.01,2.29-0.01C129.21,951.39,128.45,951.4,127.68,951.4z"/>
<path class="st7" d="M1042.2,858.7c-0.34,0.39-0.67,0.79-1.01,1.18C1041.53,859.48,1041.87,859.09,1042.2,858.7z"/>
<path class="st3" d="M1093.3,284.31c0.32,0.33,0.65,0.66,0.97,0.99C1093.95,284.97,1093.63,284.64,1093.3,284.31z"/>
<path class="st8" d="M1131.44,217.1c-0.42,0.33-0.84,0.66-1.26,0.99C1130.6,217.76,1131.02,217.43,1131.44,217.1z"/>
<path class="st7" d="M966.37,690.38c-0.38,0.1-0.76,0.2-1.15,0.3C965.6,690.57,965.98,690.48,966.37,690.38z"/>
<path class="st11" d="M430.84,713.55c0.27-0.42,0.54-0.84,0.81-1.26C431.38,712.72,431.11,713.14,430.84,713.55z"/>
<path class="st3" d="M1094.4,285.4c0.35,0.26,0.7,0.53,1.04,0.79C1095.09,285.93,1094.74,285.67,1094.4,285.4z"/>
<path class="st3" d="M1105,286.44c0.43-0.29,0.85-0.57,1.28-0.86C1105.86,285.87,1105.43,286.16,1105,286.44z"/>
<path class="st8" d="M389.12,666.98c-0.44-0.3-0.89-0.6-1.33-0.9C388.23,666.38,388.68,666.68,389.12,666.98z"/>
<path class="st11" d="M428.61,716.84c0.3-0.41,0.6-0.82,0.9-1.23C429.21,716.02,428.91,716.43,428.61,716.84z"/>
<path class="st3" d="M1125.15,883.99c-0.34-0.25-0.68-0.5-1.02-0.75C1124.47,883.49,1124.81,883.74,1125.15,883.99z"/>
<path class="st3" d="M1126.36,884.96c-0.32-0.26-0.64-0.52-0.96-0.78C1125.72,884.44,1126.04,884.7,1126.36,884.96z"/>
<path class="st3" d="M1128.56,887.22c-0.28-0.31-0.55-0.61-0.83-0.92C1128.01,886.6,1128.28,886.91,1128.56,887.22z"/>
<path class="st12" d="M1094.88,268.87c-0.27,0.41-0.55,0.82-0.82,1.22C1094.33,269.69,1094.61,269.28,1094.88,268.87z"/>
<path class="st3" d="M1066.52,262.45c0.35,0.4,0.7,0.8,1.05,1.2C1067.23,263.25,1066.87,262.85,1066.52,262.45z"/>
<path class="st12" d="M1068.97,899.58c-0.43-0.03-0.86-0.06-1.3-0.08C1068.11,899.53,1068.54,899.56,1068.97,899.58z"/>
<path class="st8" d="M1129.08,219.15c-0.37,0.39-0.73,0.77-1.1,1.16C1128.35,219.92,1128.71,219.54,1129.08,219.15z"/>
<path class="st13" d="M171.89,937c-0.15-0.22-0.29-0.46-0.4-0.7c0.46,0.14,0.91,0.28,1.37,0.43
	C172.56,936.9,172.24,936.99,171.89,937z"/>
<path class="st8" d="M1127,221.46c-0.34,0.42-0.68,0.83-1.01,1.25C1126.32,222.3,1126.66,221.88,1127,221.46z"/>
<path class="st3" d="M1129.52,888.54c-0.26-0.36-0.51-0.71-0.77-1.07C1129,887.83,1129.26,888.18,1129.52,888.54z"/>
<path class="st14" d="M527.68,874.43c-5.7-1.38-9.68-5.23-12.91-9.73c-9.8-13.68-15.56-28.99-17.88-45.64
	c-2.5-17.94,0.82-35.46,3.85-52.98c2.15-12.43,4.81-24.77,7.2-37.16c4.68-24.25,5-48.76,4.36-73.33c-0.2-7.5-0.36-15.01-0.11-22.51
	c0.47-14.34,5.58-27.2,13.34-39.07c4.92-7.52,9.87-15,16.61-21.15c4.09-3.73,3.32-7.82-1.68-9.7c-9.36-3.53-16.02-10.15-21.5-18.17
	c-2.58-3.79-4.9-7.75-7.35-11.63c-3.66-5.78-6-6.24-10.64-1.5c-10.55,10.77-23.32,18.29-36.32,25.56
	c-15.09,8.44-31.36,9.45-48.04,7.95c-4.92-0.44-9.82-1.27-14.66-2.27c-19.61-4.03-35.61-14.09-48.51-29.28
	c-3.81-4.49-6.04-4.62-10.57-0.89c-5.94,4.9-11.61,10.18-17.9,14.56c-5.83,4.05-12.28,7.25-18.57,10.61
	c-4.84,2.59-9.78,5.06-14.83,7.21c-4.53,1.94-9.27,3.38-13.92,5.04c-5.16-0.01-10.32-0.02-15.48-0.03
	c-9.68,0.07-18.38-2.9-26.35-8.28c-9.43-6.37-18.91-12.65-28.33-19.03c-1.66-1.13-3.27-2.41-4.66-3.85
	c-11.63-11.98-23.36-23.88-34.76-36.08c-6.85-7.33-9.86-16.59-11.65-26.32c-3.45-18.73,0.77-35.68,11.7-51.08
	c2.65-3.74,5.54-7.31,8.33-10.95c3.53-4.6,3-7.22-2.15-9.85c-5.86-2.99-10.57-7.34-14.51-12.46c-9.72-12.63-15.67-26.62-17-42.81
	c-1.05-12.76-1-25.41,1.78-37.75c3.74-16.59,11.51-31.32,24.78-42.49c7.97-6.71,17.73-9.38,27.83-10.88
	c3.24-0.48,6.51-1.05,9.76-1.06c17.14-0.04,33.4,3.98,48.45,12.02c15.86,8.47,31.33,17.66,47.04,26.4
	c6.24,3.47,12.58,6.81,19.07,9.8c7.59,3.51,14.85,7.4,19.72,14.46c2.05,2.97,3.63,6.29,5.21,9.55c0.89,1.85,1.46,3.96,3.82,4.23
	c2.3,0.26,3.5-1.45,4.76-3.14c6.59-8.8,12.91-17.85,20.01-26.22c12.98-15.3,29.89-23.96,49.54-27.38
	c9.84-1.72,19.69-1.68,29.59-0.22c6.52,0.96,13.09,1.64,19.65,2.23c9.33,0.84,14.31,6.92,17.43,14.77c1.46,3.67,1.7,7.83,2.42,11.78
	c0.49,2.67,0.48,5.5,1.39,8c0.54,1.5,2.28,3.28,3.73,3.54c1.36,0.24,3.65-0.96,4.47-2.21c2.91-4.44,5.2-9.28,8.04-13.78
	c3.71-5.88,7.33-11.9,11.69-17.29c8.02-9.91,18.58-15.87,31.22-18c4.8,0.02,9.6,0.04,14.4,0.05c13.39,1.6,25.26,6.97,36.4,14.35
	c8.87,5.88,18.02,11.33,26.9,17.19c9.26,6.1,17.13,13.8,24.5,22.03c2.98,3.33,4.6,3.61,7.51,0.16c2.2-2.61,3.94-5.71,5.43-8.81
	c4.07-8.42,7.81-17,11.86-25.43c3.38-7.03,8.63-12.2,15.9-15.31c7.43-3.18,13.51-2.5,19.14,3.32c3.15,3.25,5.62,7.22,8.06,11.08
	c3.04,4.8,5.72,9.83,8.58,14.75c0.64,1.11,1.27,2.26,2.1,3.22c2.51,2.91,5.43,3.03,7.97,0.14c1.93-2.2,3.55-4.67,5.27-7.05
	c5.32-7.34,11.49-13.94,18.87-19.13c4.42-3.11,9.51-5.54,14.63-7.35c7.5-2.64,13.8-0.08,16.78,7.22c2.96,7.25,5.54,14.86,6.8,22.56
	c2.43,14.78,3.96,29.71,5.59,44.62c1,9.11,1.48,18.28,2.2,27.42c0.07,0.91-0.06,2.03,0.42,2.68c0.79,1.08,1.91,2.44,3.06,2.62
	c1.16,0.17,3.04-0.61,3.67-1.58c1.28-1.95,2.08-4.27,2.83-6.52c4.52-13.57,8.66-27.28,13.53-40.72c6.64-18.34,15.2-35.8,25.91-52.15
	c1.8-2.75,3.88-5.35,6.04-7.84c10.74-12.36,24.36-15.14,39.43-10.65c17.82,5.31,33.72,14.29,47.29,27.2
	c9.44,8.98,19.01,17.83,28.59,26.66c14.06,12.96,23.8,28.74,30.78,46.39c1.54,3.9,1.17,7.43-0.96,11.01
	c-4.08,6.84-9.01,12.94-14.94,18.24c-5.34,4.77-10.67,9.54-15.96,14.35c-3.78,3.43-3.92,5.13-0.99,9.31
	c-12.07,10.41-24.14,20.82-35.96,31.02c3.04,15.17,6.02,29.89,8.94,44.63c0.62,3.15,1.42,6.34,0.4,9.73
	c-3.69,0.04-4.22-2.81-5.3-4.98c-7.24-14.65-12.86-29.96-18.44-45.28c-2.53-6.93-1.85-9.06,4-14.2c0.14-0.12,0.28-0.24,0.42-0.36
	c15.56-13.45,31.2-26.79,46.62-40.39c6.46-5.7,12.49-11.88,18.59-17.97c4.07-4.06,4.32-8.96,2.13-14.01
	c-1.16-2.68-2.49-5.35-4.1-7.78c-15.68-23.66-34.62-44.19-58.42-59.91c-8.75-5.78-17.91-10.81-28.03-13.88
	c-12.66-3.84-23.75-0.99-32.71,8.51c-4.62,4.89-8.78,10.43-12.12,16.26c-12.5,21.77-20.45,45.3-25.87,69.73
	c-1.57,7.07-3.26,14.13-4.33,21.28c-0.97,6.51-0.95,13.17-1.79,19.71c-0.47,3.69,0.22,6.73,2.15,9.89
	c11.53,18.9,22.28,38.2,28.73,59.57c0.3,0.97,0.6,1.94,0.9,2.91c0.18,0.7,0.36,1.4,0.54,2.11c-1.24,1.06-0.55,1.72,0.47,2.31
	c0.21,1.07,0.43,2.13,0.64,3.2c0.1,0.72,0.19,1.45,0.29,2.17c1.7,8.55,1.57,17.13,0.34,25.7c-0.42,2.91-0.25,5.15,2.13,7.38
	c15.72,14.76,34.62,23.33,55.47,27.21c8.67,1.61,17.8,1.78,26.82,0.39c14.74-2.27,26.6-8.84,34.98-21.4
	c7.38-11.07,10.57-23.5,11.49-36.49c0.89-12.53-1.87-24.69-5.01-36.76c-1.88-7.23-3.9-14.49-4.88-21.87
	c-0.71-5.32-1.65-10.45-3.71-15.36c-2.02-4.82-1.18-6.59,4.12-8.25c6.5,1.61,11.55,5.59,15.68,10.55
	c8.57,10.31,14.15,22.07,16.99,35.27c2.43,11.31,4.82,22.59,4.06,34.21c-1.02,15.67-3.95,30.92-11.84,44.77
	c-11.82,20.74-29.86,32.75-53.1,37.29c-2.51,0.49-5.07,0.75-7.6,1.11c-2.24,0.27-4.48,0.53-6.72,0.8c-3.27,0.01-6.54,0.01-9.81,0.02
	c-1.88-0.27-3.75-0.53-5.63-0.8c-23.69-3.71-45.52-11.97-64.78-26.5c-0.58-0.44-1.18-0.87-1.77-1.3c-5.72-4.1-7.16-3.64-9.98,2.82
	c-3.67,8.44-10.54,13.97-17.92,18.83c-11.73,7.73-25.03,10.95-38.76,12.76c-2.62,0.27-5.23,0.54-7.85,0.81
	c-2.17-0.02-4.34-0.03-6.5-0.05c-1.89-0.24-3.78-0.49-5.67-0.73c-17.93-1.81-33.45-9.24-47.29-20.46
	c-3.56-2.88-6.85-6.09-10.26-9.15c-1.09-0.98-2.06-2.13-3.25-2.96c-3.11-2.15-5.43-1.61-7.35,1.56c-0.38,0.63-0.68,1.31-0.93,1.99
	c-4.84,13.17-22.41,21.59-37.13,16.81c-6.33-2.05-12.38-4.6-17.56-8.89c-0.28-0.23-0.53-0.51-0.82-0.73
	c-2.64-1.93-5.09-2.15-6.39-0.44c-1.74,2.29-0.26,4.08,1.07,5.9c1.6,2.19,3.86,4.22,4.56,6.69c1.79,6.3,3.11,12.77,4.18,19.24
	c1.13,6.84,1.8,13.75,2.56,20.64c1.07,9.84,1.46,19.78,3.17,29.5c2.78,15.83,5.9,31.65,11.91,46.67c2.18,5.45,4.45,10.87,7.07,16.12
	c1.28,2.57,3.26,4.89,5.31,6.93c1.02,1.02,2.9,1.55,4.42,1.62c4.29,0.19,5.57-1.34,5.21-5.65c-0.03-0.37-0.06-0.74-0.14-1.09
	c-3.15-14.06-0.73-27.85,3.36-41.15c3.71-12.05,8.8-23.72,13.98-35.25c2.04-4.54,5.52-8.67,9.09-12.24
	c4.78-4.79,11.41-5.51,17.86-6.11c4.07-0.02,8.13-0.05,12.2-0.07c9.61,0.36,16.57,5.11,21.58,13.05c1.85,2.94,3.59,5.95,5.48,8.87
	c1.19,1.84,2.37,3.73,3.85,5.32c2.45,2.62,4.71,2.21,6.51-0.98c0.45-0.79,0.7-1.69,1.1-2.51c3.72-7.74,7.57-15.42,11.15-23.22
	c5.81-12.67,16.1-18.94,29.42-21.08c2.68-0.43,5.35-0.89,8.02-1.33c3.99,0,7.98-0.01,11.98-0.01c1.75,1.8,3.64,3.48,5.22,5.41
	c2.4,2.94,4.58,6.05,7.15,9.49c5.61-2.01,10.66-3.91,15.78-5.64c18.77-6.36,36.93-5.27,53.89,5.38c3.91,2.45,7.49,6.08,10.01,9.96
	c6.07,9.35,8.93,19.92,10.6,30.96c2.02,13.35,0.68,26.71,1.07,40.06c0.08,2.73,0.23,5.54,0.97,8.14c1.14,4.01,4.05,5.13,7.66,3.07
	c2.21-1.26,4.15-3.01,6.2-4.55c2.94-2.2,5.93-4.32,8.79-6.62c2.52-2.03,5.38-2.05,8.35-1.94c2.06,0.08,3.06,1.22,3.08,3.11
	c0.02,2-0.02,4.06-0.44,6c-2.77,12.88-5.16,25.87-8.67,38.54c-2.23,8.06-6.17,15.65-9.39,23.43c-0.63,1.52-1.65,2.9-2.14,4.45
	c-1.22,3.89,0.34,5.88,4.43,6.1c4.93,0.27,9.91,0.31,14.77,1.04c3.39,0.51,6.74,1.77,9.91,3.15c3.9,1.69,4.53,3.15,3.91,7.41
	c-0.24,1.62-0.58,3.29-1.23,4.78c-6.94,15.97-13.08,32.38-21.17,47.75c-9.39,17.84-24.33,30.63-42.76,38.96
	c-4.11,1.86-8.76,2.51-13.16,3.72c-4.78-0.01-9.56-0.01-14.35-0.01c-8.42-0.82-16.59-2.88-24.29-6.26
	c-4.46-1.96-8.63-4.79-12.56-7.72c-5.14-3.85-6.74-4.19-11.28,0.32c-7.32,7.29-15.25,13.67-24.36,18.63
	c-9.02,4.91-18.68,7.37-28.82,8.27c-3.35,0.26-6.7,0.53-10.06,0.79c-3.64,0-7.28-0.01-10.92-0.01c-4.13-0.21-8.26-0.43-12.39-0.64
	c-3.97-0.05-7.93-0.1-11.9-0.14c-6-0.03-12-0.13-18-0.04c-1.75,0.03-3.49,0.62-5.24,0.96c-10.73,0.76-21.03,3.35-30.7,8.02
	c-11.65,5.62-20.11,14.65-26.15,25.94c-2.77,5.17-4.99,10.63-7.56,15.91c-1.44,2.97-2.84,6-4.69,8.71
	c-4.03,5.9-10.99,6.4-15.94,1.17c-1.87-1.98-3.48-4.3-4.78-6.69c-6.22-11.39-10.39-23.46-11.57-36.46c-0.77-8.4-1.53-16.8-2.29-25.2
	c-0.05-0.55-0.08-1.1-0.17-1.64c-1.39-8.79-5.38-12.49-14.24-12.83c-8.48-0.33-16.58-2.63-24.72-4.63
	c-6.84-1.68-12.21-5.79-16.53-11.29c-1.59-2.02-3.01-4.17-4.6-6.18c-3.8-4.8-7.55-4.29-9.78,1.31c-0.88,2.21-1.53,4.52-2.45,6.72
	c-5.19,12.45-14.5,19.98-27.6,22.95C535.1,874.37,531.39,874.4,527.68,874.43z M511.26,454.48c0.78,0.29,1.57,0.58,2.35,0.87
	c4.03,0.12,7.57,1.4,10.19,4.56c2.76,3.34,4.62,7.31,4.12,11.56c-0.93,7.91-2.17,15.82-3.97,23.58c-1.14,4.9-3.4,9.56-5.37,14.24
	c-0.86,2.05-0.96,3.75,0.31,5.66c8.79,13.28,19.14,25.03,32.72,33.64c14.27,9.04,30.02,12.32,46.71,11.8
	c0.73-0.03,1.47-0.06,2.2-0.08c5.51-1.08,11.2-1.59,16.48-3.34c15.25-5.04,27.16-14.47,34.51-28.93c3.98-7.83,5.9-16.43,6.34-25.17
	c0.43-8.57-0.03-17.05-1.93-25.62c-1.98-8.91-4.68-17.46-7.95-25.91c-0.66-1.7-1.31-3.67-2.59-4.8c-4.01-3.54-7.07-7.57-7.95-13.15
	c-5.8,3.63-10.93,7.17-16.37,10.15c-5.57,3.05-11.45,5.53-17.3,8.32c0.7,2,1.35,3.7,1.9,5.44c3.95,12.59,7.97,25.17,11.73,37.82
	c1.03,3.48,1.44,7.18,1.73,10.81c0.09,1.18-0.95,3.37-1.73,3.5c-1.33,0.21-3.39-0.43-4.2-1.46c-1.91-2.42-3.53-5.17-4.8-7.99
	c-5.35-11.87-10.57-23.8-15.77-35.74c-2.05-4.71-4.23-9.39-5.79-14.26c-1.84-5.74,0.88-10.63,6.68-11.72
	c12.62-2.35,23.39-8.43,33.57-15.79c12.23-8.85,22.44-19.6,28.85-33.39c8.06-17.34,5.84-34.25-7.54-48.24
	c-2.92-3.05-5.82-6.19-9.13-8.76c-13.9-10.81-27.68-21.79-42.05-31.95c-6.97-4.93-14.89-8.75-22.79-12.1
	c-16.37-6.94-29.58-3.44-40.55,10.52c-5.09,6.47-9.78,13.32-14.02,20.39c-10.19,16.99-18.65,34.81-23.89,54.02
	c0.42,0.25,0.83,0.5,1.25,0.75c2.43-0.84,4.81-1.83,7.28-2.49c5.48-1.45,10.94-3.41,16.52-3.93c12.11-1.13,18.61,6.83,15.91,18.63
	c-1.7,7.44-5.29,14.05-9.1,20.54c-9.58,16.34-20.65,31.63-33.1,45.91c-0.25,0.25-0.51,0.5-0.76,0.75c0.26,0.11,0.51,0.21,0.77,0.32
	C500.24,453.78,505.75,454.13,511.26,454.48z M794.59,755.43c-4.38,5.16-8.68,10.38-13.18,15.43c-1.56,1.75-3.41,3.42-5.45,4.54
	c-3.68,2.02-7.47,4.1-11.47,5.27c-8.6,2.5-17.36,4.5-26.08,6.57c-3.78,0.89-4.05,1.17-4.32,4.93c-0.29,3.98-0.64,7.98-1.38,11.9
	c-1.96,10.37-6.92,19.08-14.65,26.36c-9.49,8.95-20.65,15.23-32.29,20.74c-9.71,4.6-19.6,8.8-29.97,13.42
	c0.38,17.99,2.64,35.73,9.75,53.16c5.43-5.36,10.1-10.27,15.08-14.84c18.64-17.13,40.67-26.5,65.96-27.56
	c10.44-0.44,20.92,0.31,31.38,0.35c10.07,0.04,20.18,0.35,30.21-0.35c10.13-0.7,20.03-3.29,28.64-8.94
	c19.37-12.69,32.74-29.96,37.56-52.88c3.44-16.37-0.74-30.51-14.54-41.11c-6.18-4.75-12.95-8.32-20.03-11.41
	c-2.02-0.88-4.11-1.66-5.96-2.83c-6.3-4-6.88-9.08-1.73-14.45c1.14-1.19,2.43-2.24,3.74-3.25c2.9-2.25,5.94-4.33,8.75-6.68
	c7.02-5.87,13.41-12.38,19.84-19.32c-1.64-1.51-2.72-2.75-4.02-3.68c-5-3.59-8.04-8.49-9.72-14.29c-2.07-7.14-2.37-14.45-1.93-21.82
	c0.6-10.03,2.44-19.93,3.49-29.9c1.38-13.08,3.26-26.19,0.68-39.38c-0.93-4.73-1.69-5.96-6.34-5.48
	c-13.62,1.42-26.06,5.72-33.58,18.08c-4.13,6.79-7.69,14.14-10.16,21.68c-5.11,15.6-9.31,31.49-13.92,47.26
	c-0.61,2.09-1.55,4.08-2.05,6.19c-1.3,5.48-2.29,11.04-3.71,16.5c-0.63,2.45-1.75,4.84-3.06,7.02c-1.4,2.34-5.64,3.23-8.99,2.21
	c-2.58-0.79-3.81-2.8-4.18-5.3c-0.21-1.43-0.29-2.99,0.05-4.38c2.27-9.21,4.31-18.5,7.16-27.53c1.51-4.79,2.8-9.44,2.68-14.45
	c0-1.84,0-3.67,0-5.51c0.09-7.03-0.76-13.93-3.27-20.53c-2.81-7.38-7.62-13.04-15.19-15.7c-9.54-3.34-18-1.03-25.5,5.59
	c-8.8,7.77-14.02,17.84-17.7,28.63c-3.26,9.56-6.15,19.25-6.96,29.5c-1.16,14.62-2.15,29.09,1.31,43.63
	c3.21,13.5,11.61,21.42,25.41,22.35c2.01,0.13,4.04,0.05,6.05,0.16c17.85,1,35.5-1.83,53.24-2.91
	C794.35,753.42,794.47,754.42,794.59,755.43z M259.36,382.58c0,0.14-0.01,0.27-0.01,0.41c-6.79,0-13.59,0-20.38,0
	c-1.28,0-2.58,0.1-3.85-0.01c-4.08-0.37-6.79-2.88-7.06-6.41c-0.25-3.28,1.81-5.99,5.55-7.26c0.69-0.23,1.41-0.43,2.13-0.54
	c2.87-0.44,5.74-0.96,8.63-1.23c12.78-1.22,25.58-2.27,38.34-3.58c7.43-0.77,15.09,0.23,22.21-3.04c3.83-1.76,7.92-2.96,11.72-4.76
	c7.29-3.46,14.67-6.91,20.19-13.09c6.02-6.76,4.44-15.16-3.62-19.18c-2.61-1.3-5.42-2.27-8.22-3.11
	c-8.19-2.48-15.49-6.46-22.13-11.91c-16.35-13.44-34.88-23.05-54.92-29.62c-5.83-1.91-12.27-1.91-18.25-3.49
	c-7.23-1.91-14.52-2.18-21.8-1.53c-9.19,0.82-18.19,2.72-25.31,9.29c-12.09,11.17-17.01,25.96-19.37,41.5
	c-1.25,8.23-0.47,16.81-0.15,25.21c0.48,12.91,4.93,24.57,13.02,34.57c2.67,3.3,6.46,6.04,10.28,8c6.5,3.34,13.81,4.6,21,5.47
	c12.15,1.48,24.38,2.18,36.54,3.56c3.57,0.41,7.17,1.64,10.45,3.16c5.35,2.48,8.37,6.93,9.02,12.9c0.39,3.6,0.55,7.25,1.32,10.76
	c2.69,12.3,2.13,24.79,2.44,37.22c0.13,5.2-1.77,7.44-4.67,7.5c-2.85,0.05-4.74-2.19-5.47-7.15c-0.66-4.53-0.91-9.12-1.42-13.68
	c-1.04-9.29-1.95-18.6-3.29-27.85c-0.81-5.56-1.61-5.96-7.31-5.72c-4.77,0.2-9.52,0.59-14.28,0.94c-11.37,0.85-22.67,0.26-33.9-1.58
	c-2.51-0.41-4.4-0.27-6.12,2.22c-2.28,3.3-5.33,6.04-7.95,9.12c-6.99,8.23-10.66,17.89-12.03,28.49
	c-1.68,13.07,3.14,24.11,10.81,34.24c7.26,9.57,15.95,17.74,25.23,25.28c14.98,12.18,30.65,23.32,47.78,32.37
	c9.69,5.12,19.16,5.35,29,0.87c21.35-9.72,39.45-23.23,51.89-43.58c9.28-15.19,18.88-30.19,28.01-45.46
	c2.89-4.83,5.09-10.16,6.98-15.48c3.17-8.93,2.03-17.68-2.17-26.13c-3.33-6.7-7.88-12.34-13.86-16.84
	c-6.21-4.68-13.06-8.1-20.34-10.8c-14.34-5.3-29.39-6.98-44.4-8.59C279.58,382.94,269.44,383.02,259.36,382.58z M646.67,574.33
	c-1.21,0.29-1.81,0.3-2.25,0.57c-6.58,4.07-13.68,6.9-21.08,9.12c-1.68,0.5-3.34,1.56-4.62,2.77c-4.66,4.42-9.24,8.94-13.66,13.6
	c-0.99,1.04-1.7,2.82-1.69,4.24c0.07,6.78,0.56,13.56,0.68,20.34c0.18,10.66,2.4,20.74,7.84,30c3.25,5.54,6.6,11.02,9.76,16.61
	c9.8,17.36,8.23,33.7-4.6,48.93c-1.42,1.68-2.81,3.39-4.15,5.14c-2.28,2.96-3.07,6.27-1.86,9.85c1.41,4.16,3.04,8.24,4.48,12.4
	c2.02,5.84,4.05,11.69,5.81,17.61c0.34,1.15-0.13,3.27-0.96,3.82c-0.81,0.53-2.62-0.26-3.89-0.74c-0.81-0.31-1.49-1.06-2.15-1.69
	c-6.24-6-12-12.4-16.43-19.88c-6.68-11.27-6.43-22.27,1.49-32.9c2.3-3.09,4.8-6.05,6.92-9.26c3.74-5.66,4.97-11.9,2.66-18.37
	c-1.41-3.95-3.29-7.78-5.36-11.43c-5.27-9.27-10.51-18.54-13.1-29c-0.86-3.46-1.62-7.02-1.76-10.55c-0.31-7.88,0.13-15.8-0.37-23.67
	c-0.43-6.69-0.97-13.43-3.53-19.83c-1.85-4.63-4.17-8.2-9.93-7.53c-0.67,0.08-1.42-0.26-2.1-0.5c-4.81-1.67-9.69-3.17-14.38-5.13
	c-2.71-1.13-4.89-1.2-7.01,0.89c-1.3,1.28-2.74,2.45-3.95,3.82c-5.41,6.14-9.29,13.17-11.96,20.89
	c-4.58,13.21-5.61,26.88-5.13,40.72c0.64,18.48,2.3,36.96-1.42,55.35c-1.52,7.48-2.33,15.11-3.87,22.59
	c-2.99,14.5-7.43,28.66-9.69,43.34c-2.59,16.82-2.73,33.58-0.77,50.46c1.58,13.58,5.43,26.41,11.29,38.71
	c4.51,9.47,10.05,7.87,16.12,2.98c0.85-0.69,1.64-1.48,2.4-2.27c5.78-6.04,8.44-13.67,10.76-21.43c1.4-4.68,2.36-9.5,3.88-14.14
	c1.25-3.81,2.71-7.61,4.62-11.11c4.53-8.29,14.35-9.46,20.72-2.46c2.07,2.27,3.47,5.15,5.1,7.79c2.4,3.9,4.51,8,7.15,11.74
	c2.75,3.91,6.1,7.32,10.61,9.38c8.74,3.99,18.27,4.47,27,2.32c16.47-4.06,32.16-10.78,47.29-18.55c6.55-3.36,12.85-7.19,17.8-12.78
	c4.79-5.42,7.12-11.8,4.97-18.83c-1.91-6.23-4.39-12.38-7.39-18.17c-5.49-10.59-11.5-20.9-17.36-31.29
	c-13.07-23.16-22.29-47.57-25.3-74.22c-1.81-16.07-2.71-32.16-2.94-48.31c-0.1-6.97-0.01-13.96-0.41-20.92
	C650.5,588.3,649.85,581.22,646.67,574.33z M756.69,480.41c-1.36-0.92-2.43-1.34-3.04-2.12c-8.78-11.13-17.01-22.58-21.25-36.37
	c-2.36-7.67-2.14-15.32,0.95-22.63c2.35-5.55,5-11.11,8.41-16.04c7.61-10.98,8.72-22.28,3.34-34.37c-0.6-1.34-1.03-2.75-1.56-4.12
	c-6.33-16.24-12.58-32.51-19.04-48.69c-2.99-7.49-6.2-14.91-9.73-22.16c-1.58-3.24-3.88-6.26-6.39-8.87
	c-4.37-4.54-6.85-4.37-10.96,0.22c-1.46,1.63-2.94,3.37-3.89,5.31c-3.55,7.23-7.32,14.4-10.16,21.92c-2.65,7-3.92,14.52-6.41,21.6
	c-1.25,3.57-0.84,6.32,0.43,9.73c2.56,6.84,4.01,14.01,3.18,21.45c-1.03,9.22-3.5,18.01-7.79,26.23c-1.4,2.69-2,5.38-1.98,8.42
	c0.08,11.56-0.08,23.13-0.04,34.69c0.01,1.98,0.2,4.08,0.89,5.91c3.62,9.6,7.47,19.09,8.79,29.39c0.67,5.21,2.13,10.33,2.75,15.54
	c1.26,10.76,1.1,21.4-0.82,32.22c-1.65,9.26-4.6,17.87-8.37,26.3c-2.11,4.73-2.11,6.01,1.79,9.27c4.26,3.56,8.15,3.58,12.26-0.28
	c1.99-1.87,3.67-4.09,5.35-6.26c2.02-2.61,3.78-5.43,5.86-7.99c6.12-7.55,14.3-9.59,23.16-5.61c4.01,1.8,7.81,4.08,11.7,6.13
	c8.39,4.43,16.75,8.83,25.96,11.52c15.69,4.57,30.98,5.71,46.49-1.3c13.37-6.04,24.14-13.96,29.18-28.49
	c3.33-9.59,4.82-19.09,2.39-29c-3.86-15.74-10.47-30.36-18.18-44.55c-5.17-9.51-10.36-19.02-15.19-28.71
	c-5.28-10.62-8.67-21.85-10.57-33.63c-2.41-14.93-3.16-29.9-3.04-44.97c0.1-12.12,0.27-24.24-0.03-36.35
	c-0.14-5.83-0.89-11.72-2.11-17.42c-1.69-7.84-4.04-8.65-10.39-4.02c-3.84,2.8-7.21,6.26-11.05,9.07
	c-7.84,5.76-15.86,11.27-23.78,16.91c-1.15,0.82-2.19,1.78-3.28,2.67c0.64,1.88,1.14,3.45,1.7,5c6.08,16.73,12.13,33.46,18.25,50.17
	c5.54,15.13,4.26,29.51-4.39,43.21c-2.35,3.72-4.4,7.63-6.43,11.54c-3.46,6.67-4.17,13.62-1.61,20.76
	c1.67,4.66,3.51,9.26,5.18,13.92c1.54,4.31,3.22,8.61,4.35,13.04C758.5,472.24,759.38,476.1,756.69,480.41z M512.1,391.21
	c-0.3-0.24-0.6-0.47-0.9-0.71c-1.87,0.61-3.78,1.12-5.6,1.85c-6.64,2.65-13.23,5.43-19.88,8.07c-7.66,3.04-14.85-1.38-14.74-9.22
	c0.05-3.61,0.7-7.24,1.32-10.82c1.54-8.91,3.46-17.76,4.76-26.7c1.27-8.71,2.43-17.48,2.8-26.25c0.36-8.58,0.01-17.24-0.7-25.81
	c-0.61-7.38-2.7-9.25-10.1-9.71c-5.1-0.31-10.25,0.42-15.38,0.52c-15.47,0.28-30.06,4.39-44.35,9.93
	c-8.23,3.19-15.07,8.16-20.86,14.83c-14.28,16.46-24.05,35.47-32.04,55.53c-0.39,0.97-0.46,2.06-0.7,3.21
	c3.1,2.04,6.05,3.88,8.88,5.88c17.14,12.13,26.91,28.59,28.97,49.53c0.72,7.37-0.87,14.55-2.21,21.7
	c-1.58,8.39-5.48,15.94-9.58,23.34c-6.23,11.24-12.38,22.52-18.9,33.6c-2.04,3.47-1.62,5.92,0.65,8.9
	c6.98,9.14,15.67,16.18,26.38,20.14c24.32,8.97,48.37,8.04,71.34-4.37c20.73-11.2,32.55-29.25,37.99-52.12
	c-3.98-0.58-7.74-1.14-11.51-1.66c-3.39-0.47-6.96-0.35-10.15-1.41c-14.43-4.79-28.76-9.9-43.11-14.92
	c-1.55-0.54-3.16-1.09-4.51-1.99c-3.19-2.13-2.95-5.33,0.62-6.64c2.19-0.81,4.65-1.08,7-1.21c10.27-0.56,20.54-1.07,30.81-1.41
	c3.05-0.1,4.95-1.03,6.58-3.84c3.84-6.65,8.07-13.08,12.3-19.5c7.26-11.03,14.67-21.96,21.93-32.98
	C510.36,395.19,511.14,393.14,512.1,391.21z M987.87,784.84c-2.65-0.31-4.43-0.68-6.22-0.71c-23.31-0.4-46.62-0.74-69.93-1.11
	c-1.83-0.03-3.7,0.08-5.5-0.19c-3.11-0.47-5.33-2.6-5.76-5.16c-0.44-2.57,0.96-5.19,3.78-6.75c1.11-0.62,2.35-1.1,3.58-1.36
	c3.74-0.81,7.47-1.79,11.26-2.15c8.58-0.8,17.19-1.5,25.81-1.76c3.83-0.11,5.79-1.26,7.29-4.94c5.56-13.64,11.63-27.08,17.3-40.68
	c1.1-2.63,3.04-5.33,1.81-8.83c-3.8,1.76-7.22,3.5-10.75,4.95c-7.57,3.09-18.23-2.29-17.42-12.04c0.37-4.38,0.05-8.81,0.13-13.21
	c0.26-13.33,0.81-26.63-2.1-39.83c-2.16-9.78-5.95-18.56-13.56-25.23c-10.5-9.21-22.64-9.99-35.49-6.19
	c-9.2,2.72-16.91,7.96-23.79,14.43c-1.31,1.23-2.18,3.4-2.41,5.24c-1.23,10.01-2.38,20.04-3.17,30.09
	c-0.43,5.45-0.27,10.97-0.01,16.45c0.37,7.85,3.77,13.71,11.77,16.09c0.52,0.16,1.02,0.42,1.5,0.69c4.91,2.74,6.93,7.5,4.4,12.58
	c-2.18,4.38-4.97,8.62-8.24,12.26c-5.75,6.41-12.08,12.31-18.15,18.43c-0.82,0.83-1.57,1.74-2.24,2.5
	c5.94,4.13,11.68,7.76,17.02,11.89c13.61,10.53,20.29,24.82,21.12,41.74c0.49,9.92-2.3,19.48-5.39,28.84
	c-1.36,4.1-3.33,8-4.97,11.86c9.28,7.67,21.75,12.85,33.82,14.19c13.35,1.48,25.09-2.33,35.02-11.26
	c3.93-3.54,7.58-7.51,10.79-11.72c10.39-13.62,18.76-28.5,26.49-43.74C986.4,788.76,986.91,787.2,987.87,784.84z M338.03,363.54
	c-0.29-0.17-0.59-0.33-0.88-0.5c-1.7,1.29-3.4,2.58-5.86,4.44c2.36,0.51,3.69,0.79,5.36,1.15
	C337.18,366.71,337.61,365.12,338.03,363.54z"/>
<path class="st15" d="M868.1,486.55c-0.18-0.7-0.36-1.4-0.54-2.11c-0.3-0.97-0.6-1.94-0.9-2.91c-6.45-21.36-17.2-40.66-28.73-59.57
	c-1.93-3.16-2.62-6.19-2.15-9.89c0.84-6.54,0.82-13.19,1.79-19.71c1.07-7.15,2.76-14.21,4.33-21.28
	c5.42-24.43,13.38-47.96,25.87-69.73c3.35-5.83,7.51-11.37,12.12-16.26c8.96-9.5,20.05-12.35,32.71-8.51
	c10.12,3.07,19.28,8.11,28.03,13.88c23.81,15.73,42.74,36.26,58.42,59.91c1.61,2.43,2.94,5.1,4.1,7.78
	c2.19,5.05,1.94,9.95-2.13,14.01c-6.1,6.09-12.13,12.28-18.59,17.97c-15.42,13.6-31.07,26.94-46.62,40.39
	c-0.14,0.12-0.28,0.24-0.42,0.36c-5.85,5.14-6.52,7.26-4,14.2c5.58,15.32,11.2,30.64,18.44,45.28c1.07,2.17,1.6,5.02,5.3,4.98
	c1.01-3.39,0.22-6.57-0.4-9.73c-2.92-14.74-5.9-29.47-8.94-44.63c11.83-10.2,23.9-20.61,35.96-31.02c3.17,1.6,6.33,3.21,9.5,4.81
	c-5.29,1.66-6.14,3.43-4.12,8.25c2.07,4.92,3.01,10.04,3.71,15.36c0.98,7.38,3,14.64,4.88,21.87c3.14,12.07,5.9,24.23,5.01,36.76
	c-0.92,12.99-4.11,25.43-11.49,36.49c-8.37,12.56-20.24,19.12-34.98,21.4c-9.02,1.39-18.15,1.22-26.82-0.39
	c-20.85-3.88-39.74-12.45-55.47-27.21c-2.37-2.23-2.55-4.47-2.13-7.38c1.23-8.57,1.36-17.16-0.34-25.7
	c-0.1-0.72-0.19-1.45-0.29-2.17c-0.21-1.07-0.43-2.13-0.64-3.2C868.42,488.09,868.26,487.32,868.1,486.55z M941.2,393.24
	c8.11-0.06,13.48-6.6,11.27-13.59c-1.09-3.43-2.59-6.87-4.6-9.84c-6.8-10.02-14.5-19.35-23.31-27.69c-2.52-2.39-5.21-4.62-7.93-6.78
	c-2.24-1.78-4.8-2.83-7.64-1.42c-3.1,1.55-3.61,4.43-3.39,7.49c0.13,1.81,0.31,3.69,0.89,5.39c5.03,14.71,12.84,27.92,22.26,40.16
	C931.85,391,936.25,393.4,941.2,393.24z"/>
<path class="st4" d="M742.6,888.55c1.75-0.34,3.49-0.93,5.24-0.96c6-0.1,12,0.01,18,0.04c-0.83,0.29-1.67,0.83-2.5,0.84
	C756.43,888.55,749.51,888.54,742.6,888.55z"/>
<path class="st4" d="M262.16,570.33c5.16,0.01,10.32,0.02,15.48,0.03C272.47,572,267.31,571.89,262.16,570.33z"/>
<path class="st4" d="M912.4,874.39c4.78,0,9.56,0.01,14.35,0.01C921.96,876.06,917.18,876.03,912.4,874.39z"/>
<path class="st4" d="M568.59,266.03c-4.8-0.02-9.6-0.04-14.4-0.05C558.99,264.44,563.79,264.42,568.59,266.03z"/>
<path class="st4" d="M754.86,614.14c-4.07,0.02-8.13,0.05-12.2,0.07C746.71,612.68,750.78,612.64,754.86,614.14z"/>
<path class="st16" d="M853.93,592.24c-3.99,0-7.99,0.01-11.98,0.01C845.95,590.81,849.94,590.4,853.93,592.24z"/>
<path class="st16" d="M777.74,887.77c4.13,0.21,8.26,0.43,12.39,0.64C786,888.2,781.87,887.99,777.74,887.77z"/>
<path class="st16" d="M527.68,874.43c3.71-0.03,7.42-0.06,11.14-0.08C535.11,875.94,531.4,876.04,527.68,874.43z"/>
<path class="st16" d="M801.04,888.42c3.35-0.26,6.7-0.53,10.06-0.79C807.75,887.89,804.39,888.16,801.04,888.42z"/>
<path class="st16" d="M792.23,585.43c2.62-0.27,5.23-0.54,7.85-0.81C797.46,584.89,794.84,585.16,792.23,585.43z"/>
<path class="st16" d="M948.72,578.79c2.24-0.27,4.48-0.53,6.72-0.8C953.2,578.25,950.96,578.52,948.72,578.79z"/>
<path class="st16" d="M780.05,584.65c1.89,0.24,3.78,0.49,5.67,0.73C783.83,585.14,781.94,584.89,780.05,584.65z"/>
<path class="st16" d="M933.28,578c1.88,0.27,3.75,0.54,5.63,0.8C937.04,578.54,935.16,578.27,933.28,578z"/>
<path class="st15" d="M259.36,382.58c10.08,0.44,20.22,0.36,30.23,1.44c15.01,1.61,30.07,3.28,44.4,8.59
	c7.28,2.69,14.13,6.11,20.34,10.8c5.98,4.51,10.53,10.14,13.86,16.84c4.19,8.45,5.34,17.2,2.17,26.13
	c-1.89,5.32-4.09,10.65-6.98,15.48c-9.13,15.28-18.73,30.27-28.01,45.46c-12.43,20.35-30.53,33.87-51.89,43.58
	c-9.84,4.48-19.31,4.25-29-0.87c-17.14-9.05-32.8-20.2-47.78-32.37c-9.27-7.54-17.97-15.71-25.23-25.28
	c-7.68-10.12-12.5-21.17-10.81-34.24c1.36-10.6,5.04-20.26,12.03-28.49c2.61-3.08,5.67-5.82,7.95-9.12
	c1.72-2.49,3.61-2.63,6.12-2.22c11.24,1.84,22.54,2.43,33.9,1.58c4.76-0.35,9.52-0.74,14.28-0.94c5.7-0.24,6.5,0.16,7.31,5.72
	c1.35,9.25,2.25,18.56,3.29,27.85c0.51,4.56,0.76,9.15,1.42,13.68c0.73,4.97,2.63,7.21,5.47,7.15c2.9-0.06,4.8-2.3,4.67-7.5
	c-0.32-12.43,0.25-24.93-2.44-37.22c-0.77-3.52-0.93-7.17-1.32-10.76c-0.65-5.96-3.67-10.41-9.02-12.9
	c-3.28-1.52-6.88-2.76-10.45-3.16c-12.16-1.38-24.4-2.09-36.54-3.56c-7.19-0.87-14.5-2.13-21-5.47c-3.81-1.96-7.6-4.7-10.28-8
	c-8.1-10-12.54-21.65-13.02-34.57c-0.31-8.4-1.1-16.99,0.15-25.21c2.37-15.54,7.28-30.33,19.37-41.5
	c7.12-6.57,16.12-8.48,25.31-9.29c7.28-0.65,14.57-0.37,21.8,1.53c5.98,1.58,12.41,1.58,18.25,3.49
	c20.03,6.57,38.56,16.18,54.92,29.62c6.64,5.45,13.94,9.43,22.13,11.91c2.8,0.85,5.61,1.81,8.22,3.11
	c8.06,4.02,9.65,12.43,3.62,19.18c-5.51,6.18-12.89,9.63-20.19,13.09c-3.8,1.81-7.89,3-11.72,4.76c-7.12,3.28-14.79,2.28-22.21,3.04
	c-12.77,1.32-25.57,2.36-38.34,3.58c-2.89,0.28-5.76,0.79-8.63,1.23c-0.72,0.11-1.44,0.3-2.13,0.54c-3.74,1.27-5.79,3.98-5.55,7.26
	c0.27,3.54,2.99,6.05,7.06,6.41c1.27,0.11,2.57,0.01,3.85,0.01c6.79,0,13.59,0,20.38,0C259.35,382.85,259.36,382.71,259.36,382.58z"
	/>
<path class="st15" d="M776.85,667.21c0.12,5.01-1.17,9.66-2.68,14.45c-2.85,9.03-4.9,18.32-7.16,27.53
	c-0.34,1.39-0.26,2.95-0.05,4.38c0.37,2.5,1.6,4.52,4.18,5.3c3.35,1.02,7.59,0.13,8.99-2.21c1.31-2.18,2.42-4.57,3.06-7.02
	c1.41-5.45,2.41-11.01,3.71-16.5c0.5-2.11,1.44-4.11,2.05-6.19c4.6-15.76,8.81-31.66,13.92-47.26c2.47-7.54,6.03-14.89,10.16-21.68
	c7.52-12.36,19.97-16.66,33.58-18.08c4.65-0.49,5.42,0.75,6.34,5.48c2.58,13.19,0.7,26.3-0.68,39.38
	c-1.05,9.97-2.89,19.87-3.49,29.9c-0.44,7.36-0.14,14.68,1.93,21.82c1.68,5.8,4.72,10.7,9.72,14.29c1.3,0.93,2.39,2.17,4.02,3.68
	c-6.43,6.95-12.82,13.45-19.84,19.32c-2.81,2.35-5.86,4.43-8.75,6.68c-1.3,1.01-2.6,2.06-3.74,3.25
	c-5.16,5.37-4.58,10.46,1.73,14.45c1.84,1.17,3.94,1.95,5.96,2.83c7.09,3.09,13.86,6.66,20.03,11.41
	c13.8,10.6,17.99,24.74,14.54,41.11c-4.82,22.92-18.19,40.19-37.56,52.88c-8.61,5.64-18.51,8.23-28.64,8.94
	c-10.03,0.7-20.14,0.39-30.21,0.35c-10.46-0.04-20.94-0.78-31.38-0.35c-25.3,1.05-47.32,10.43-65.96,27.56
	c-4.98,4.57-9.65,9.48-15.08,14.84c-7.11-17.43-9.36-35.17-9.75-53.16c10.37-4.62,20.27-8.82,29.97-13.42
	c11.64-5.51,22.8-11.79,32.29-20.74c7.72-7.29,12.69-15.99,14.65-26.36c0.74-3.91,1.09-7.92,1.38-11.9
	c0.28-3.76,0.54-4.03,4.32-4.93c8.73-2.07,17.48-4.07,26.08-6.57c4-1.16,7.78-3.24,11.47-5.27c2.04-1.12,3.89-2.79,5.45-4.54
	c4.49-5.05,8.8-10.28,13.18-15.43c0.5-0.84,0.99-1.68,1.49-2.52c-0.62-0.16-1.23-0.33-1.85-0.49c-17.74,1.08-35.38,3.91-53.24,2.91
	c-2.01-0.11-4.04-0.02-6.05-0.16c-13.81-0.93-22.2-8.85-25.41-22.35c-3.46-14.55-2.47-29.01-1.31-43.63
	c0.81-10.26,3.7-19.95,6.96-29.5c3.68-10.79,8.9-20.86,17.7-28.63c7.5-6.62,15.96-8.93,25.5-5.59c7.58,2.65,12.38,8.31,15.19,15.7
	c2.51,6.6,3.36,13.5,3.27,20.53C775.45,663.53,775.45,665.37,776.85,667.21z"/>
<path class="st15" d="M646.67,574.33c3.18,6.89,3.83,13.97,4.24,21.02c0.4,6.96,0.31,13.95,0.41,20.92
	c0.23,16.15,1.13,32.24,2.94,48.31c3,26.65,12.23,51.06,25.3,74.22c5.86,10.39,11.88,20.7,17.36,31.29c3,5.79,5.48,11.94,7.39,18.17
	c2.15,7.03-0.18,13.42-4.97,18.83c-4.95,5.6-11.25,9.42-17.8,12.78c-15.14,7.77-30.83,14.49-47.29,18.55
	c-8.72,2.15-18.26,1.67-27-2.32c-4.51-2.06-7.85-5.47-10.61-9.38c-2.63-3.74-4.75-7.83-7.15-11.74c-1.63-2.65-3.04-5.53-5.1-7.79
	c-6.37-7-16.2-5.84-20.72,2.46c-1.91,3.51-3.38,7.31-4.62,11.11c-1.52,4.64-2.48,9.45-3.88,14.14c-2.31,7.77-4.97,15.4-10.76,21.43
	c-0.76,0.79-1.54,1.58-2.4,2.27c-6.08,4.9-11.61,6.49-16.12-2.98c-5.86-12.3-9.71-25.13-11.29-38.71
	c-1.96-16.88-1.82-33.64,0.77-50.46c2.26-14.69,6.71-28.85,9.69-43.34c1.54-7.48,2.35-15.11,3.87-22.59
	c3.73-18.38,2.06-36.87,1.42-55.35c-0.48-13.84,0.55-27.51,5.13-40.72c2.68-7.71,6.55-14.75,11.96-20.89
	c1.21-1.37,2.64-2.53,3.95-3.82c2.12-2.09,4.3-2.02,7.01-0.89c4.69,1.96,9.57,3.46,14.38,5.13c0.68,0.24,1.42,0.58,2.1,0.5
	c5.76-0.67,8.08,2.9,9.93,7.53c2.56,6.4,3.1,13.14,3.53,19.83c0.5,7.86,0.06,15.78,0.37,23.67c0.14,3.54,0.9,7.1,1.76,10.55
	c2.59,10.45,7.83,19.73,13.1,29c2.08,3.65,3.95,7.48,5.36,11.43c2.31,6.48,1.09,12.71-2.66,18.37c-2.12,3.21-4.62,6.17-6.92,9.26
	c-7.92,10.63-8.17,21.62-1.49,32.9c4.43,7.48,10.2,13.89,16.43,19.88c0.66,0.63,1.33,1.38,2.15,1.69c1.27,0.48,3.08,1.27,3.89,0.74
	c0.83-0.55,1.3-2.67,0.96-3.82c-1.76-5.92-3.79-11.77-5.81-17.61c-1.43-4.15-3.07-8.24-4.48-12.4c-1.21-3.58-0.42-6.89,1.86-9.85
	c1.34-1.74,2.73-3.45,4.15-5.14c12.83-15.23,14.41-31.57,4.6-48.93c-3.16-5.59-6.51-11.08-9.76-16.61c-5.44-9.26-7.66-19.35-7.84-30
	c-0.12-6.78-0.6-13.56-0.68-20.34c-0.02-1.43,0.7-3.2,1.69-4.24c4.42-4.66,9-9.18,13.66-13.6c1.28-1.21,2.95-2.27,4.62-2.77
	c7.39-2.22,14.49-5.05,21.08-9.12C644.85,574.63,645.46,574.63,646.67,574.33z"/>
<path class="st9" d="M756.69,480.41c2.69-4.32,1.82-8.17,0.88-11.8c-1.14-4.43-2.81-8.72-4.35-13.04
	c-1.67-4.66-3.51-9.26-5.18-13.92c-2.57-7.14-1.85-14.1,1.61-20.76c2.03-3.91,4.08-7.82,6.43-11.54c8.66-13.7,9.94-28.08,4.39-43.21
	c-6.12-16.71-12.18-33.44-18.25-50.17c-0.56-1.55-1.06-3.12-1.7-5c1.09-0.89,2.13-1.85,3.28-2.67c7.93-5.64,15.94-11.15,23.78-16.91
	c3.84-2.82,7.2-6.27,11.05-9.07c6.35-4.63,8.7-3.82,10.39,4.02c1.23,5.7,1.97,11.59,2.11,17.42c0.3,12.11,0.12,24.23,0.03,36.35
	c-0.12,15.07,0.63,30.04,3.04,44.97c1.9,11.78,5.28,23.01,10.57,33.63c4.82,9.69,10.01,19.2,15.19,28.71
	c7.71,14.18,14.33,28.81,18.18,44.55c2.43,9.91,0.94,19.41-2.39,29c-5.04,14.53-15.81,22.45-29.18,28.49
	c-15.5,7.01-30.8,5.87-46.49,1.3c-9.21-2.69-17.57-7.09-25.96-11.52c-3.9-2.06-7.69-4.33-11.7-6.13
	c-8.86-3.97-17.04-1.94-23.16,5.61c-2.08,2.56-3.84,5.38-5.86,7.99c-1.68,2.17-3.36,4.4-5.35,6.26c-4.11,3.86-8.01,3.84-12.26,0.28
	c-3.9-3.26-3.9-4.54-1.79-9.27c3.76-8.43,6.72-17.04,8.37-26.3c1.93-10.82,2.08-21.46,0.82-32.22c-0.61-5.22-2.08-10.33-2.75-15.54
	c-1.32-10.3-5.17-19.8-8.79-29.39c-0.69-1.83-0.88-3.93-0.89-5.91c-0.04-11.56,0.11-23.13,0.04-34.69
	c-0.02-3.04,0.57-5.73,1.98-8.42c4.29-8.22,6.76-17.01,7.79-26.23c0.83-7.44-0.63-14.6-3.18-21.45c-1.27-3.41-1.69-6.16-0.43-9.73
	c2.49-7.08,3.75-14.6,6.41-21.6c2.84-7.51,6.62-14.69,10.16-21.92c0.95-1.94,2.43-3.68,3.89-5.31c4.11-4.59,6.59-4.76,10.96-0.22
	c2.51,2.61,4.82,5.63,6.39,8.87c3.53,7.25,6.74,14.67,9.73,22.16c6.46,16.18,12.71,32.46,19.04,48.69c0.53,1.37,0.97,2.78,1.56,4.12
	c5.38,12.09,4.28,23.39-3.34,34.37c-3.42,4.93-6.06,10.49-8.41,16.04c-3.1,7.31-3.31,14.96-0.95,22.63
	c4.24,13.79,12.47,25.24,21.25,36.37C754.26,479.07,755.33,479.49,756.69,480.41z"/>
<path class="st9" d="M598.31,560.39c-16.7,0.52-32.44-2.76-46.71-11.8c-13.58-8.61-23.93-20.36-32.72-33.64
	c-1.26-1.91-1.17-3.6-0.31-5.66c1.97-4.68,4.24-9.34,5.37-14.24c1.8-7.75,3.04-15.67,3.97-23.58c0.5-4.26-1.36-8.23-4.12-11.56
	c-2.62-3.16-6.16-4.45-10.19-4.56c-0.39-1.36-0.97-2.21-2.35-0.87c-5.51-0.35-11.02-0.7-16.52-1.05c-0.02-0.36-0.03-0.71-0.01-1.07
	c12.45-14.28,23.52-29.57,33.1-45.91c3.81-6.49,7.4-13.1,9.1-20.54c2.7-11.8-3.8-19.76-15.91-18.63
	c-5.58,0.52-11.04,2.48-16.52,3.93c-2.47,0.65-4.86,1.65-7.28,2.49c-0.42-0.25-0.83-0.5-1.25-0.74
	c5.24-19.21,13.69-37.03,23.89-54.02c4.24-7.06,8.93-13.91,14.02-20.39c10.97-13.96,24.19-17.47,40.55-10.52
	c7.9,3.35,15.82,7.17,22.79,12.1c14.36,10.16,28.15,21.14,42.05,31.95c3.31,2.58,6.21,5.72,9.13,8.76
	c13.38,13.98,15.6,30.9,7.54,48.24c-6.41,13.79-16.62,24.55-28.85,33.39c-10.17,7.36-20.95,13.44-33.57,15.79
	c-5.81,1.08-8.52,5.97-6.68,11.72c1.56,4.87,3.74,9.56,5.79,14.26c5.2,11.94,10.41,23.87,15.77,35.74c1.27,2.82,2.89,5.57,4.8,7.99
	c0.81,1.03,2.87,1.67,4.2,1.46c0.78-0.12,1.82-2.32,1.73-3.5c-0.29-3.63-0.69-7.34-1.73-10.81c-3.76-12.65-7.79-25.22-11.73-37.82
	c-0.54-1.74-1.2-3.45-1.9-5.44c5.85-2.78,11.73-5.27,17.3-8.32c5.44-2.98,10.57-6.52,16.37-10.15c0.88,5.58,3.94,9.61,7.95,13.15
	c1.28,1.13,1.93,3.1,2.59,4.8c3.26,8.44,5.97,17,7.95,25.91c1.9,8.57,2.36,17.05,1.93,25.62c-0.44,8.74-2.36,17.34-6.34,25.17
	c-7.35,14.46-19.27,23.89-34.51,28.93c-5.28,1.75-10.98,2.26-16.48,3.34C599.78,560.33,599.05,560.36,598.31,560.39z M571.46,347.62
	c-4.8-0.11-7.54,2.39-7.24,6.18c0.17,2.27,0.97,4.71,2.17,6.65c4.83,7.76,9.7,15.52,15,22.96c3.83,5.37,8.52,10.07,14.34,13.43
	c4.22,2.44,8.33,2.75,10.22,0.54c2.75-3.22,1.38-6.65-0.38-9.7c-8-13.88-17.81-26.38-29.5-37.34
	C574.56,348.92,572.41,348.17,571.46,347.62z"/>
<path class="st15" d="M512.1,391.21c-0.96,1.93-1.74,3.98-2.92,5.77c-7.27,11.02-14.67,21.95-21.93,32.98
	c-4.23,6.42-8.46,12.84-12.3,19.5c-1.62,2.81-3.53,3.74-6.58,3.84c-10.27,0.34-20.54,0.85-30.81,1.41c-2.36,0.13-4.81,0.41-7,1.21
	c-3.57,1.31-3.81,4.51-0.62,6.64c1.35,0.9,2.96,1.45,4.51,1.99c14.35,5.02,28.68,10.13,43.11,14.92c3.19,1.06,6.76,0.94,10.15,1.41
	c3.77,0.52,7.52,1.08,11.51,1.66c-5.44,22.87-17.26,40.92-37.99,52.12c-22.97,12.41-47.02,13.34-71.34,4.37
	c-10.71-3.95-19.4-11-26.38-20.14c-2.28-2.98-2.69-5.43-0.65-8.9c6.52-11.07,12.67-22.36,18.9-33.6c4.11-7.4,8-14.95,9.58-23.34
	c1.34-7.15,2.94-14.33,2.21-21.7c-2.05-20.94-11.83-37.41-28.97-49.53c-2.83-2-5.78-3.83-8.88-5.88c0.24-1.14,0.32-2.24,0.7-3.21
	c7.99-20.06,17.77-39.08,32.04-55.53c5.79-6.67,12.63-11.64,20.86-14.83c14.29-5.54,28.88-9.65,44.35-9.93
	c5.13-0.09,10.28-0.83,15.38-0.52c7.41,0.45,9.49,2.32,10.1,9.71c0.71,8.57,1.06,17.23,0.7,25.81c-0.36,8.78-1.53,17.55-2.8,26.25
	c-1.31,8.94-3.23,17.79-4.76,26.7c-0.62,3.58-1.27,7.21-1.32,10.82c-0.11,7.84,7.08,12.26,14.74,9.22
	c6.65-2.64,13.24-5.41,19.88-8.07c1.82-0.73,3.73-1.24,5.6-1.85C511.5,390.74,511.8,390.97,512.1,391.21z"/>
<path class="st9" d="M987.87,784.84c-0.96,2.36-1.47,3.92-2.2,5.37c-7.73,15.25-16.1,30.13-26.49,43.74
	c-3.21,4.21-6.86,8.18-10.79,11.72c-9.92,8.93-21.66,12.74-35.02,11.26c-12.07-1.34-24.54-6.52-33.82-14.19
	c1.64-3.86,3.62-7.76,4.97-11.86c3.09-9.35,5.88-18.91,5.39-28.84c-0.83-16.92-7.51-31.21-21.12-41.74
	c-5.34-4.13-11.08-7.76-17.02-11.89c0.68-0.76,1.42-1.67,2.24-2.5c6.07-6.13,12.4-12.02,18.15-18.43c3.27-3.64,6.06-7.88,8.24-12.26
	c2.53-5.08,0.51-9.84-4.4-12.58c-0.48-0.27-0.98-0.53-1.5-0.69c-8.01-2.39-11.4-8.24-11.77-16.09c-0.26-5.47-0.42-11,0.01-16.45
	c0.78-10.05,1.94-20.08,3.17-30.09c0.23-1.84,1.1-4.01,2.41-5.24c6.88-6.47,14.59-11.72,23.79-14.43
	c12.85-3.8,24.99-3.02,35.49,6.19c7.61,6.67,11.4,15.45,13.56,25.23c2.91,13.2,2.35,26.51,2.1,39.83c-0.08,4.4,0.23,8.84-0.13,13.21
	c-0.82,9.75,9.85,15.13,17.42,12.04c3.54-1.44,6.95-3.19,10.75-4.95c1.23,3.5-0.72,6.21-1.81,8.83
	c-5.67,13.6-11.74,27.04-17.3,40.68c-1.5,3.68-3.45,4.83-7.29,4.94c-8.61,0.26-17.22,0.96-25.81,1.76
	c-3.79,0.35-7.53,1.34-11.26,2.15c-1.24,0.27-2.48,0.75-3.58,1.36c-2.82,1.57-4.21,4.18-3.78,6.75c0.43,2.56,2.66,4.69,5.76,5.16
	c1.8,0.27,3.66,0.16,5.5,0.19c23.31,0.36,46.62,0.71,69.93,1.11C983.43,784.16,985.21,784.52,987.87,784.84z"/>
<path class="st13" d="M338.03,363.54c-0.43,1.58-0.86,3.16-1.38,5.09c-1.67-0.36-3-0.64-5.36-1.15c2.46-1.86,4.16-3.15,5.86-4.44
	C337.45,363.21,337.74,363.37,338.03,363.54z"/>
<path class="st17" d="M776.85,667.21c-1.4-1.84-1.4-3.67,0-5.51C776.85,663.53,776.85,665.37,776.85,667.21z"/>
<path class="st18" d="M794.24,752.42c0.62,0.16,1.23,0.33,1.85,0.49c-0.5,0.84-0.99,1.68-1.49,2.52
	C794.47,754.42,794.35,753.42,794.24,752.42z"/>
<path class="st18" d="M598.31,560.39c0.73-0.03,1.47-0.06,2.2-0.08C599.78,560.33,599.05,560.36,598.31,560.39z"/>
<path class="st17" d="M511.26,454.48c1.38-1.34,1.96-0.49,2.35,0.87C512.82,455.06,512.04,454.77,511.26,454.48z"/>
<path class="st19" d="M866.66,481.54c0.3,0.97,0.6,1.94,0.9,2.91C867.26,483.48,866.96,482.51,866.66,481.54z"/>
<path class="st19" d="M868.1,486.55c0.16,0.77,0.32,1.54,0.47,2.31C867.55,488.27,866.86,487.61,868.1,486.55z"/>
<path class="st19" d="M869.22,492.06c0.1,0.72,0.19,1.45,0.29,2.17C869.41,493.51,869.32,492.78,869.22,492.06z"/>
<path class="st17" d="M494.73,452.36c-0.02,0.36-0.02,0.71,0.01,1.07c-0.26-0.11-0.51-0.21-0.77-0.32
	C494.22,452.86,494.47,452.61,494.73,452.36z"/>
<path class="st17" d="M495.96,372.94c0.42,0.25,0.83,0.49,1.25,0.74C496.8,373.44,496.38,373.19,495.96,372.94z"/>
<path class="st20" d="M941.2,393.24c-4.95,0.16-9.35-2.25-12.45-6.27c-9.43-12.24-17.24-25.46-22.26-40.16
	c-0.58-1.7-0.76-3.58-0.89-5.39c-0.23-3.07,0.29-5.94,3.39-7.49c2.84-1.42,5.4-0.36,7.64,1.42c2.72,2.16,5.41,4.39,7.93,6.78
	c8.81,8.34,16.51,17.67,23.31,27.69c2.01,2.96,3.51,6.41,4.6,9.84C954.68,386.65,949.31,393.18,941.2,393.24z"/>
<path class="st20" d="M571.46,347.62c0.95,0.55,3.1,1.3,4.62,2.72c11.69,10.97,21.5,23.46,29.5,37.34c1.76,3.05,3.13,6.48,0.38,9.7
	c-1.89,2.21-6,1.89-10.22-0.54c-5.81-3.36-10.51-8.06-14.34-13.43c-5.3-7.44-10.17-15.2-15-22.96c-1.21-1.94-2-4.38-2.17-6.65
	C563.93,350.01,566.66,347.51,571.46,347.62z"/>
</svg>
