<?xml version="1.0" encoding="utf-8"?>
<!-- Generator: Adobe Illustrator 27.7.0, SVG Export Plug-In . SVG Version: 6.00 Build 0)  -->
<svg version="1.1" xmlns="http://www.w3.org/2000/svg" xmlns:xlink="http://www.w3.org/1999/xlink" x="0px" y="0px"
	 viewBox="0 0 1200 1200" style="enable-background:new 0 0 1200 1200;" xml:space="preserve">
<style type="text/css">
	.st0{stroke:#E3E01A;stroke-width:23;stroke-miterlimit:10;}
	.st1{fill:#FFFFFF;stroke:#FFFFFF;stroke-width:23;stroke-miterlimit:10;}
	.st2{fill:#FFFFFF;}
	.st3{fill:none;stroke:#E3E01A;stroke-width:23;stroke-miterlimit:10;}
</style>
<g id="Layer_2">
	<circle class="st0" cx="600.09" cy="600.18" r="563.03"/>
	<circle class="st1" cx="626.25" cy="517.56" r="187.38"/>
	<path class="st2" d="M630.09,770.53c-190.68,0-346.59,129.88-357.87,293.77c0.99,0.2,1.98,0.41,2.92,0.67
		c6.12,1.45,11.44,4.26,15.98,8.41c3.84,2.49,7.08,5.59,9.7,9.3c0.09,0.05,0.19,0.1,0.28,0.14c10.69,3.93,21.67,7.15,31.74,12.62
		c5.45,2.96,10.58,6.87,15.26,11.2c5.47,1.9,10.82,4.17,15.85,7.39c4.35,2.79,8.11,6.08,11.26,9.72c3.05,0.14,5.95,0.58,8.73,1.3
		c9.98-2.14,14.35-1.34,24.92,0.33c4.27,0.67,8.3,2.43,12.01,4.84c13.12,4.49,26.43,8.45,39.67,12.58
		c10.85,3.38,22.46,6.26,32.11,12.41c0.72,0.46,1.42,0.94,2.12,1.42c0.22-0.05,0.43-0.09,0.65-0.14c6.27-1.49,12.44-1.77,18.31-1
		c10.02-4.9,22.93-6.44,33.49-3.29c5.38,1.6,10.84,2.77,16.35,3.7c8.72,0.96,17.47,1.63,26.19,2.6c10.02,1.12,19.56,1.43,29.45,0.52
		c17.27-2.74,34.58-6.31,52.08-6c1.55,0.03,3.07,0.13,4.57,0.29c7.09-2.14,14.19-4.21,21.51-5.53c17.02-3.06,34.45-4.14,51.62-6.16
		c8.17-0.96,16.35-1.85,24.55-2.38c2.37-1.83,4.74-3.66,7.11-5.49c5.39-3.43,11.22-5.29,17.47-5.58c2.55-0.57,5.09-0.85,7.64-0.86
		c1.33-0.97,2.71-1.83,4.12-2.56c25.22-12.97,47.89-30.05,70.65-46.83c11.17-8.24,22.32-16.79,34.19-24.02
		c10.15-6.17,20.88-11.16,30.69-17.82c4.95-4.12,9.87-8.26,15.21-11.9c6.21-4.22,12.77-6.62,19.63-8.2
		C944.98,875.62,801.61,770.53,630.09,770.53z"/>
</g>
<g id="Layer_1">
	<circle class="st3" cx="600" cy="600" r="563.03"/>
</g>
</svg>
