<?xml version="1.0" encoding="utf-8"?>
<!-- Generator: Adobe Illustrator 27.7.0, SVG Export Plug-In . SVG Version: 6.00 Build 0)  -->
<svg version="1.1" id="Layer_1" xmlns="http://www.w3.org/2000/svg" xmlns:xlink="http://www.w3.org/1999/xlink" x="0px" y="0px"
	 viewBox="0 0 595.28 841.89" style="enable-background:new 0 0 595.28 841.89;" xml:space="preserve">
<style type="text/css">
	.st0{fill:#654C4D;}
	.st1{fill:#527C33;}
	.st2{fill:#537E35;}
	.st3{fill:#86BB95;}
	.st4{fill:#978539;}
	.st5{fill:#BCE4D6;}
	.st6{fill:#DAD0B6;}
	.st7{fill:#B9B287;}
	.st8{fill:#B0A777;}
	.st9{fill:#FFFFFD;}
	.st10{fill:#8D7B7F;}
	.st11{fill:#78AD7F;}
	.st12{fill:#C9C09C;}
	.st13{fill:#F9F7D0;}
	.st14{fill:#E1D824;}
	.st15{fill:#FFFFFE;}
	.st16{fill:#C39C32;}
	.st17{fill:#F4F0AB;}
	.st18{fill:#F0EB8F;}
	.st19{fill:#E9E25B;}
	.st20{fill:#E2D925;}
</style>
<path class="st0" d="M382.25,230.52c2.08,0.38,4.05,1.09,5.98,1.96c3.44,1.55,6.48,3.63,9.2,6.24c2.18,2.09,4.38,4.15,6.61,6.18
	c3.19,2.89,5.76,6.24,7.47,10.19c0.58,1.34,1.4,2.61,1.4,4.2c0,0.97,0.01,1.89-0.47,2.74c-1.05,1.86-2.37,3.52-3.95,4.96
	c-1.32,1.21-2.63,2.43-4.04,3.74c0.46,0.31,0.82,0.7,1.27,0.83c1.98,0.59,3.54,1.77,4.8,3.33c2.6,3.2,4.35,6.8,4.86,10.95
	c0.18,1.51,0.64,2.99,0.76,4.5c0.13,1.64,0.16,3.31-0.02,4.94c-0.2,1.77-0.71,3.51-1.03,5.27c-0.37,2.03-1.1,3.93-2.11,5.7
	c-3.15,5.56-7.98,8.89-14.17,10.29c-1.26,0.28-2.56,0.42-3.84,0.62c-1.42,0.01-2.84,0.02-4.26,0.03c-1.22-0.24-2.45-0.44-3.66-0.73
	c-1.71-0.42-3.44-0.82-5.1-1.41c-3.09-1.1-5.95-2.68-8.65-4.55c-0.35-0.24-0.69-0.48-1.07-0.74c-0.62,0.81-1.15,1.63-1.8,2.35
	c-2.55,2.86-5.79,4.56-9.43,5.63c-3.4,1-6.86,1.38-10.37,1.09c-1.38-0.11-2.73-0.55-4.08-0.91c-4.22-1.16-7.72-3.56-10.93-6.45
	c-0.31-0.28-0.61-0.56-1.05-0.95c-1.5,2.95-3.92,4.56-7,5.23c-1.21,0-2.42-0.01-3.64-0.01c-1.06-0.27-2.13-0.54-3.13-0.79
	c0.28,1.89,0.58,3.76,0.84,5.64c0.22,1.57,0.39,3.15,0.57,4.73c0.29,2.63,0.47,5.29,0.88,7.9c0.44,2.81,1.01,5.61,2.01,8.29
	c0.61,1.63,1.25,3.25,1.88,4.88c0.09,0.17,0.17,0.34,0.26,0.52c0,0,0.02,0.05,0.02,0.05c0.11,0.22,0.22,0.44,0.33,0.66
	c0.07-0.03,0.14-0.06,0.22-0.08c-0.07-0.21-0.13-0.43-0.2-0.64c0.09-2.65,0.12-5.32,0.85-7.88c0.61-2.14,1.37-4.24,2.2-6.31
	c0.7-1.76,1.5-3.49,2.39-5.16c0.94-1.77,2.23-3.28,4.18-4c0.99-0.37,2.06-0.5,3.1-0.74c1.61-0.01,3.22-0.01,4.83-0.02
	c3.87,0.36,5.84,3.03,7.51,6.28c0.42-0.78,0.78-1.49,1.16-2.18c0.81-1.49,1.59-3,2.44-4.46c1.5-2.59,3.81-4.06,6.69-4.68
	c1.41-0.3,2.83-0.56,4.25-0.82c1.17-0.21,2.38-0.14,3.43,0.35c0.68,0.32,1.23,0.98,1.74,1.57c0.45,0.52,0.77,1.16,1.21,1.85
	c2.33-1.15,4.7-1.9,7.21-2.15c1.33,0,2.65,0,3.98,0c2.2,0.29,4.26,0.99,6.23,2.02c2.65,1.39,4.25,3.63,5.32,6.33
	c1.82,4.57,2.13,9.34,1.89,14.18c-0.05,1.02,0.07,2.04,0.12,3.06c0.1-0.03,0.2-0.05,0.29-0.08c1.01-0.76,2.02-1.53,3.03-2.29
	c1.28-0.96,2.71-0.8,4.1-0.44c0.88,0.23,1.4,1.03,1.36,1.95c-0.05,1.3-0.15,2.61-0.41,3.88c-0.48,2.33-1.14,4.62-1.62,6.96
	c-0.32,1.6-0.66,3.17-1.36,4.65c-0.43,0.92-0.81,1.86-1.21,2.8c-0.26,0.26-0.26,0.49,0.12,0.57c0.26,0.05,0.54-0.01,0.81-0.03
	c1.81,0.05,3.49,0.62,5.12,1.34c1.4,0.61,1.76,1.6,1.72,3.25c-0.05,1.67-0.8,3.02-1.44,4.46c-0.63,1.43-1.22,2.88-1.75,4.36
	c-2.11,5.89-5.49,10.83-10.7,14.43c-2.18,1.51-4.53,2.58-7.14,3.07c-1.78,0-3.56,0-5.35,0.01c-3.31-0.39-6.44-1.31-9.16-3.33
	c-0.3-0.22-0.6-0.43-0.98-0.71c-4.34,4.6-9.59,7.31-15.92,7.75c-2.26-0.03-4.52-0.05-6.78-0.08c-0.5-0.04-1-0.09-1.5-0.13
	c-1.55-0.03-3.1-0.09-4.64-0.07c-0.98,0.02-1.95,0.16-2.92,0.25c-2.85,0.19-5.61,0.75-8.17,2.06c-1.89,0.97-3.52,2.27-4.58,4.18
	c-0.03,0.09-0.07,0.18-0.1,0.27c-1.42,1.67-2.17,3.69-2.99,5.68c-0.02,0.08-0.04,0.16-0.05,0.24c-0.29,0.46-0.59,0.92-0.88,1.39
	c-0.61,1-1.33,1.89-2.48,2.31c-0.94,0-1.87,0.01-2.81,0.01c-0.96-0.29-1.7-0.9-2.31-1.67c-0.38-0.47-0.73-0.97-1.09-1.45
	c-0.09-0.12-0.18-0.23-0.27-0.35c-0.77-1.79-1.53-3.57-2.3-5.36c0.01-0.09,0-0.18-0.01-0.27c-0.07-0.19-0.14-0.38-0.21-0.57
	c-0.1-0.68-0.23-1.36-0.3-2.05c-0.27-2.7-0.52-5.4-0.79-8.1c-0.04-0.42-0.11-0.84-0.23-1.25c-0.13-0.42-0.37-0.69-0.9-0.75
	c-1.29-0.14-2.58-0.3-3.85-0.56c-1.83-0.37-3.68-0.67-5.38-1.48c-1.3-0.62-2.35-1.56-3.28-2.64c-0.3-0.35-0.61-0.7-1.04-1.19
	c-1.6,4.16-4.31,6.93-8.64,7.87c-0.47,0.08-0.94,0.16-1.41,0.24c-0.56-0.01-1.13-0.01-1.69-0.02c-0.37-0.08-0.75-0.15-1.12-0.23
	c-0.86-0.53-1.87-0.91-2.55-1.62c-1.07-1.11-2.04-2.35-2.82-3.68c-1.73-2.95-2.88-6.14-3.43-9.54c-0.35-2.14-0.33-4.29-0.22-6.43
	c0.1-2,0.25-4.01,0.54-6c0.28-2,0.77-3.96,1.14-5.95c0.48-2.54,0.89-5.1,1.39-7.64c1.25-6.39,1.15-12.84,0.9-19.31
	c-0.08-2.11-0.05-4.26,0.28-6.33c0.27-1.7,0.94-3.37,1.68-4.94c1.46-3.08,3.4-5.86,5.66-8.41c0.05-0.06,0.05-0.17,0.11-0.37
	c-3.47-1.6-5.49-4.65-7.42-7.9c-0.37,0.23-0.67,0.36-0.89,0.57c-3.28,2.97-6.98,5.28-11.05,6.98c-1.54,0.64-3.22,0.93-4.84,1.38
	c-2.17-0.01-4.35-0.03-6.52-0.04c-1.18-0.19-2.38-0.31-3.54-0.59c-1.44-0.35-2.9-0.58-4.29-1.19c-2.77-1.23-5.27-2.84-7.51-4.88
	c-0.7-0.63-1.43-1.23-2.24-1.92c-0.08,0.06-0.37,0.28-0.63,0.51c-2.63,2.38-5.43,4.5-8.72,5.93c-2.08,0.91-4.12,1.91-6.19,2.84
	c-0.46,0.2-0.97,0.28-1.45,0.42c-0.65,0.08-1.29,0.17-1.94,0.25c-0.37,0-0.75,0-1.12,0c-0.48-0.06-0.97-0.13-1.45-0.19
	c-0.84-0.01-1.68-0.03-2.52-0.04c-2.36-0.42-4.41-1.51-6.35-2.86c-2.51-1.75-5.25-3.25-7.49-5.29c-3.38-3.07-6.47-6.45-9.57-9.81
	c-1.56-1.7-2.46-3.78-3.01-6.08c-0.74-3.12-0.77-6.23-0.13-9.31c0.51-2.41,1.75-4.59,3.21-6.6c0.63-0.87,1.27-1.74,1.97-2.71
	c-3.66-2-5.56-5.4-7.29-8.85c-0.77-1.55-1.1-3.38-1.3-5.13c-0.28-2.38-0.36-4.79-0.32-7.19c0.08-4.49,1.31-8.71,3.84-12.42
	c2.2-3.23,5.02-5.81,9.04-6.75c1.64-0.38,3.29-0.62,4.94-0.83c0.86,0,1.71,0,2.57,0c2.31,0.41,4.7,0.55,6.9,1.45
	c2.12,0.86,4.24,1.74,6.25,2.82c3.44,1.85,6.79,3.85,10.18,5.79c1.38,0.79,2.76,1.59,4.16,2.35c0.44,0.24,0.98,0.3,1.45,0.5
	c2.27,0.97,4.06,2.53,5.5,4.51c0.19,0.27,0.38,0.54,0.57,0.8c0.02,0.03,0.08,0.04,0.22,0.1c0.25-0.33,0.52-0.69,0.79-1.05
	c2.04-2.71,4.1-5.4,6.8-7.51c3.21-2.52,6.79-4.12,10.86-4.61c0.5-0.06,1-0.2,1.49-0.3c0.94-0.08,1.88-0.16,2.82-0.24
	c0.09-0.03,0.17-0.07,0.26-0.1c0.77,0.02,1.54,0.04,2.31,0.06c0.19,0.02,0.38,0.03,0.57,0.05c0.94,0.08,1.88,0.16,2.82,0.24
	c1.58,0.31,3.16,0.58,4.73,0.95c0.43,0.1,0.84,0.43,1.19,0.73c1.61,1.44,2.94,3.04,3.2,5.31c0.06,0.5,0.23,0.98,0.35,1.48
	c0.71,0.04,0.77-0.54,0.97-0.91c1.05-1.9,2.21-3.72,3.67-5.35c2.09-2.35,4.73-3.79,7.69-4.71c0.17-0.05,0.37-0.02,0.56-0.03
	c1.8,0,3.59,0,5.39,0c2.86,0.49,5.55,1.43,8.02,2.95c2.01,1.23,4.02,2.46,6.02,3.7c2.85,1.78,5.49,3.82,7.81,6.27
	c0.25,0.26,0.54,0.49,0.92,0.83c0.48-1.09,0.88-2.06,1.33-3.02c0.82-1.73,1.64-3.47,2.51-5.18c1.37-2.68,3.59-4.3,6.49-5.03
	c0.57-0.01,1.14-0.02,1.72-0.03c1.99,0.36,3.54,1.43,4.64,3.09c0.94,1.41,1.76,2.88,2.64,4.33c0.24,0.39,0.48,0.78,0.82,1.34
	c0.36-0.42,0.61-0.73,0.89-1.02c1.58-1.67,3.1-3.4,4.77-4.97c1.6-1.5,3.58-2.38,5.75-2.77c0.57,0.01,1.15,0.01,1.72,0.02
	c2.49,0.54,3.65,2.26,4.41,4.58c0.74,2.27,1.18,4.57,1.57,6.92c0.65,3.97,0.97,7.96,1.35,11.95c0.02,0.17,0.05,0.33,0.3,0.55
	c0.27-0.78,0.6-1.54,0.8-2.33c0.72-2.97,1.83-5.81,3.12-8.56c1.37-2.93,2.84-5.82,4.36-8.67c1.02-1.92,2.3-3.67,3.92-5.16
	c1.61-1.48,3.47-2.39,5.65-2.63C379.98,230.53,381.11,230.52,382.25,230.52z M366.69,318.85c-0.69,0.11-1.37,0.23-2.06,0.34
	c-3.42,0.55-6.06,2.16-7.55,5.41c-0.92,2-1.91,3.98-2.86,5.96c-0.1,0.21-0.17,0.44-0.28,0.65c-0.46,0.82-1.04,0.92-1.67,0.25
	c-0.38-0.41-0.68-0.89-0.99-1.37c-0.48-0.75-0.93-1.52-1.41-2.28c-1.29-2.04-3.07-3.26-5.54-3.35c-1.05-0.38-2.09-0.37-3.13,0.02
	c-1.66,0.15-3.36,0.34-4.59,1.57c-0.92,0.92-1.81,1.98-2.33,3.14c-1.33,2.96-2.64,5.96-3.59,9.05c-1.05,3.42-1.67,6.96-0.86,10.57
	c0.02,0.09,0.03,0.19,0.04,0.28c0.09,1.11-0.23,1.5-1.34,1.45c-0.39-0.02-0.87-0.15-1.14-0.42c-0.53-0.52-1.03-1.12-1.36-1.78
	c-0.67-1.35-1.26-2.74-1.82-4.14c-1.54-3.86-2.35-7.92-3.06-11.99c-0.44-2.5-0.54-5.05-0.81-7.58c-0.19-1.77-0.37-3.55-0.66-5.3
	c-0.27-1.66-0.61-3.32-1.07-4.94c-0.18-0.63-0.76-1.16-1.17-1.72c-0.34-0.47-0.72-0.93-0.27-1.52c0.33-0.44,0.96-0.38,1.64,0.11
	c0.08,0.06,0.14,0.13,0.21,0.19c1.33,1.1,2.88,1.76,4.51,2.28c3.78,1.23,8.29-0.94,9.54-4.32c0.06-0.18,0.14-0.35,0.24-0.51
	c0.49-0.82,1.09-0.95,1.89-0.4c0.31,0.21,0.56,0.51,0.84,0.76c0.88,0.79,1.72,1.61,2.64,2.35c3.56,2.88,7.54,4.79,12.15,5.25
	c0.49,0.06,0.97,0.12,1.46,0.19c0.56,0,1.11,0.01,1.67,0.01c0.67-0.07,1.34-0.14,2.02-0.21c3.52-0.47,6.94-1.29,9.95-3.28
	c1.9-1.25,3.66-2.67,4.6-4.84c0.72-1.66,1.1-1.78,2.56-0.72c0.15,0.11,0.31,0.22,0.46,0.33c4.95,3.73,10.55,5.85,16.64,6.81
	c0.48,0.07,0.96,0.14,1.45,0.21c0.84,0,1.68,0,2.52,0c0.58-0.07,1.15-0.14,1.73-0.21c0.65-0.09,1.31-0.16,1.95-0.29
	c5.97-1.17,10.6-4.25,13.64-9.58c2.03-3.56,2.78-7.47,3.04-11.5c0.19-2.98-0.42-5.88-1.04-8.79c-0.73-3.39-2.16-6.41-4.36-9.06
	c-1.06-1.27-2.36-2.29-4.03-2.71c-0.81-0.41-1.63-0.82-2.44-1.24c-0.75-1.07-0.72-1.51,0.25-2.39c1.36-1.24,2.73-2.46,4.1-3.69
	c1.52-1.36,2.79-2.93,3.84-4.68c0.55-0.92,0.64-1.83,0.25-2.83c-1.79-4.53-4.29-8.59-7.9-11.91c-2.46-2.27-4.92-4.54-7.34-6.85
	c-3.49-3.32-7.57-5.62-12.15-6.99c-3.87-1.15-7.37-0.44-10.13,2.74c-0.55,0.64-1.09,1.31-1.55,2.01c-2.75,4.2-4.95,8.68-6.65,13.39
	c-1.25,3.45-2.31,6.97-3.47,10.46c-0.19,0.58-0.4,1.17-0.73,1.68c-0.16,0.25-0.65,0.45-0.94,0.41c-0.29-0.04-0.58-0.39-0.78-0.67
	c-0.12-0.17-0.09-0.45-0.11-0.69c-0.19-2.35-0.31-4.7-0.57-7.04c-0.42-3.83-0.81-7.66-1.43-11.46c-0.33-1.98-0.99-3.93-1.75-5.79
	c-0.76-1.87-2.38-2.53-4.31-1.85c-1.31,0.46-2.62,1.09-3.76,1.89c-1.89,1.33-3.48,3.03-4.85,4.91c-0.44,0.61-0.86,1.25-1.35,1.81
	c-0.65,0.74-1.4,0.71-2.05-0.04c-0.21-0.25-0.37-0.54-0.54-0.83c-0.73-1.26-1.42-2.56-2.2-3.79c-0.63-0.99-1.26-2.01-2.07-2.84
	c-1.45-1.49-3.01-1.67-4.91-0.85c-1.87,0.8-3.22,2.13-4.08,3.93c-1.04,2.17-2,4.37-3.05,6.53c-0.38,0.8-0.83,1.59-1.4,2.26
	c-0.75,0.89-1.16,0.82-1.93-0.04c-1.89-2.11-3.92-4.09-6.29-5.66c-2.28-1.5-4.63-2.91-6.91-4.41c-2.86-1.89-5.91-3.27-9.35-3.69
	c-1.23-0.41-2.46-0.41-3.7-0.01c-3.25,0.55-5.96,2.08-8.02,4.62c-1.12,1.38-2.05,2.93-3,4.44c-0.73,1.15-1.32,2.4-2.06,3.54
	c-0.21,0.32-0.8,0.63-1.15,0.57c-0.37-0.07-0.82-0.52-0.96-0.91c-0.23-0.64-0.23-1.37-0.36-2.05c-0.18-1.02-0.25-2.08-0.62-3.03
	c-0.8-2.02-2.08-3.58-4.48-3.79c-1.69-0.15-3.37-0.33-5.05-0.57c-2.54-0.37-5.07-0.38-7.6,0.06c-5.05,0.88-9.39,3.1-12.72,7.03
	c-1.82,2.15-3.45,4.47-5.14,6.73c-0.32,0.43-0.63,0.87-1.22,0.81c-0.61-0.07-0.75-0.61-0.98-1.09c-0.41-0.84-0.81-1.69-1.34-2.45
	c-1.25-1.81-3.11-2.81-5.06-3.71c-1.66-0.77-3.29-1.63-4.9-2.52c-4.04-2.25-8.01-4.61-12.08-6.78c-3.87-2.07-8.04-3.1-12.44-3.09
	c-0.84,0-1.68,0.15-2.51,0.27c-2.59,0.39-5.1,1.07-7.15,2.79c-3.41,2.87-5.4,6.65-6.36,10.91c-0.71,3.17-0.73,6.42-0.46,9.7
	c0.34,4.16,1.87,7.75,4.37,11c1.01,1.32,2.22,2.43,3.73,3.2c1.32,0.68,1.46,1.35,0.55,2.53c-0.72,0.93-1.46,1.85-2.14,2.81
	c-2.81,3.96-3.89,8.31-3.01,13.12c0.46,2.5,1.23,4.88,2.99,6.76c2.93,3.13,5.94,6.19,8.93,9.27c0.36,0.37,0.77,0.7,1.2,0.99
	c2.42,1.64,4.85,3.25,7.28,4.89c2.05,1.38,4.28,2.15,6.77,2.13c1.32,0.4,2.65,0.43,3.97,0.01c1.19-0.43,2.41-0.8,3.57-1.29
	c1.3-0.55,2.56-1.19,3.81-1.85c1.61-0.86,3.27-1.68,4.77-2.72c1.62-1.12,3.07-2.48,4.6-3.74c1.16-0.96,1.74-0.93,2.72,0.23
	c3.31,3.9,7.42,6.49,12.46,7.52c1.24,0.26,2.5,0.47,3.76,0.58c4.28,0.39,8.46,0.13,12.34-2.04c3.34-1.87,6.62-3.8,9.33-6.56
	c1.19-1.22,1.79-1.1,2.73,0.39c0.63,1,1.23,2.01,1.89,2.99c1.41,2.06,3.12,3.76,5.52,4.67c1.28,0.48,1.48,1.53,0.43,2.49
	c-1.73,1.58-3,3.5-4.27,5.43c-1.99,3.05-3.31,6.35-3.43,10.04c-0.06,1.92-0.02,3.85,0.03,5.78c0.17,6.31,0.08,12.61-1.12,18.83
	c-0.61,3.18-1.3,6.35-1.85,9.54c-0.78,4.5-1.63,9-0.99,13.61c0.6,4.28,2.08,8.21,4.59,11.72c0.83,1.16,1.85,2.14,3.32,2.5
	c0.96,0.41,1.91,0.39,2.86-0.02c3.36-0.76,5.75-2.7,7.09-5.89c0.24-0.56,0.4-1.16,0.63-1.73c0.57-1.44,1.53-1.57,2.51-0.34
	c0.41,0.52,0.77,1.07,1.18,1.59c1.11,1.41,2.49,2.47,4.24,2.9c2.09,0.51,4.17,1.11,6.35,1.19c2.27,0.09,3.3,1.04,3.66,3.3
	c0.02,0.14,0.03,0.28,0.04,0.42c0.2,2.16,0.39,4.31,0.59,6.47c0.31,3.34,1.37,6.44,2.97,9.36c0.34,0.61,0.75,1.21,1.23,1.72
	c1.27,1.34,3.06,1.22,4.1-0.3c0.48-0.7,0.83-1.48,1.21-2.24c0.66-1.36,1.23-2.76,1.94-4.09c1.55-2.9,3.73-5.22,6.72-6.66
	c2.49-1.2,5.13-1.87,7.89-2.06c1.78,0,3.55,0,5.33-0.02c0.22,0,0.43-0.14,0.64-0.22c1.02,0.01,2.04,0.02,3.06,0.04
	c1.06,0.05,2.12,0.11,3.18,0.16c0.93,0,1.87,0,2.8,0c0.86-0.07,1.72-0.14,2.58-0.2c2.6-0.23,5.08-0.86,7.4-2.12
	c2.34-1.27,4.38-2.91,6.26-4.78c1.17-1.16,1.57-1.07,2.9-0.08c1.01,0.75,2.08,1.48,3.23,1.98c1.98,0.87,4.08,1.4,6.24,1.61
	c1.23,0.42,2.46,0.43,3.68,0c1.13-0.31,2.33-0.48,3.38-0.96c4.73-2.14,8.57-5.42,10.98-10.01c2.08-3.95,3.66-8.16,5.44-12.26
	c0.17-0.38,0.25-0.81,0.31-1.23c0.16-1.09,0-1.47-1-1.9c-0.82-0.35-1.67-0.68-2.55-0.81c-1.25-0.19-2.53-0.2-3.79-0.27
	c-1.05-0.06-1.45-0.57-1.14-1.57c0.13-0.4,0.39-0.75,0.55-1.14c0.83-2,1.84-3.95,2.41-6.02c0.9-3.26,1.52-6.59,2.23-9.9
	c0.11-0.5,0.12-1.03,0.11-1.54c0-0.49-0.26-0.78-0.79-0.8c-0.76-0.03-1.5-0.02-2.14,0.5c-0.73,0.59-1.5,1.14-2.26,1.7
	c-0.53,0.39-1.02,0.84-1.59,1.17c-0.93,0.53-1.67,0.24-1.97-0.79c-0.19-0.67-0.23-1.39-0.25-2.09c-0.1-3.43,0.25-6.86-0.27-10.29
	c-0.43-2.84-1.16-5.55-2.72-7.95c-0.65-1-1.57-1.93-2.57-2.56c-4.36-2.74-9.02-3.01-13.84-1.38c-1.31,0.44-2.61,0.93-4.05,1.45
	c-0.66-0.88-1.22-1.68-1.84-2.44c-0.41-0.5-0.89-0.93-1.34-1.39C368.74,318.37,367.72,318.47,366.69,318.85z"/>
<path class="st1" d="M314,403.99c0.77,1.79,1.53,3.57,2.3,5.36c-0.84,0.03-1.68,0.07-2.52,0.1c-1.06,0.05-2.12,0.1-3.18,0.15
	c-1.67,0.05-3.35,0.1-5.02,0.15c-0.87,0.05-1.75,0.09-2.62,0.14c-1.67,0.05-3.34,0.1-5.01,0.15c-0.87,0.06-1.75,0.11-2.62,0.17
	c0,0-0.01,0.01-0.01,0.01c-2.38,0.02-4.76,0.04-7.14,0.07c-0.36,0.01-0.73,0.12-1.09,0.18c-1.48,0.03-2.96,0.07-4.44,0.1
	c-1.15,0.05-2.3,0.11-3.46,0.16c-1.59,0.04-3.17,0.08-4.76,0.12c-1.44,0.06-2.88,0.11-4.31,0.17c-1.02,0.03-2.05,0.06-3.07,0.09
	c-1.13,0.01-2.26,0.01-3.39,0.02c-0.95,0.06-1.91,0.12-2.86,0.18c-1.87,0.04-3.73,0.08-5.6,0.12c-1.72,0.05-3.44,0.11-5.16,0.16
	c-2.15,0.04-4.3,0.08-6.46,0.13c-1.51,0.01-3.03,0.01-4.54,0.02c-0.77,0.05-1.54,0.1-2.31,0.14c-3.1,0.04-6.19,0.08-9.29,0.12
	c-0.23-0.02-0.47-0.06-0.7-0.06c-7.76,0-15.52,0-23.28,0c-0.23,0-0.47,0.04-0.7,0.06c-1.96-0.04-3.93-0.08-5.89-0.11
	c-1.25-0.05-2.5-0.11-3.75-0.16c-1.01-0.04-2.02-0.07-3.03-0.11c-1.24-0.08-2.47-0.16-3.71-0.25c0,0,0,0,0,0
	c-0.85-0.09-1.7-0.19-2.54-0.28c0,0,0,0,0,0c-0.2,0-0.39,0-0.59,0c-1.99-0.47-4.05-0.76-5.95-1.46c-1.51-0.56-2.59-1.85-3.04-3.49
	c-0.22-0.81,0.12-1.54,0.48-2.25c0.7-1.37,1.76-2.46,2.97-3.36c1.77-1.33,3.53-2.68,5.41-3.85c10.67-6.65,21.37-13.26,32.07-19.87
	c9.05-5.6,18.15-11.13,27.14-16.82c3.42-2.16,6.66-4.61,9.88-7.06c1.52-1.16,2.85-2.6,4.18-4c0.57-0.6,1.02-1.36,1.39-2.11
	c0.55-1.13,0.32-1.82-0.73-2.53c-1.4-0.93-3.01-1.33-4.63-1.64c-1.05-0.19-2.12-0.26-3.18-0.38c-0.29-0.08-0.58-0.16-0.86-0.24
	c0,0,0,0,0,0c-2.18-0.16-4.37-0.33-6.55-0.49c-4.13,0-8.26-0.01-12.39-0.01c-1.62,0.06-3.25,0.11-4.87,0.17
	c-1.58,0.04-3.17,0.08-4.75,0.12c-1.17,0.05-2.34,0.11-3.51,0.16c-1.06,0.02-2.13,0.01-3.19,0.06c-1.01,0.05-2.01,0.16-3.01,0.24
	c-0.92,0.03-1.84,0.06-2.76,0.09c-0.86,0.06-1.73,0.12-2.59,0.18c-1.1,0.05-2.21,0.1-3.31,0.15c-0.59,0.06-1.18,0.11-1.78,0.17
	c0,0-0.01,0.01-0.01,0.01c-1.61,0.08-3.22,0.17-4.84,0.25c-0.82,0.03-1.65,0.06-2.47,0.1c-0.68,0.05-1.36,0.11-2.04,0.16
	c-0.83,0.04-1.67,0.08-2.5,0.12c-0.77,0.07-1.54,0.14-2.3,0.21c0,0,0.02,0.04,0.02,0.04c-2.54,0.1-5.09,0.2-7.63,0.3
	c-1.61-0.01-3.21-0.03-4.82-0.04c-0.13-0.05-0.27-0.08-0.4-0.14c-0.61-0.28-1.26-0.65-1.27-1.35c-0.02-0.77,0.65-1.24,1.3-1.48
	c0.73-0.26,1.53-0.32,2.3-0.46c0.3-0.08,0.6-0.16,0.9-0.24c0.08-0.02,0.16-0.02,0.24-0.02c0.86-0.09,1.72-0.18,2.59-0.27
	c0.08-0.01,0.16-0.02,0.24-0.02c0.96-0.09,1.91-0.17,2.87-0.26c0.18-0.01,0.35-0.02,0.53-0.03c2.29-0.14,4.58-0.27,6.87-0.42
	c0.08-0.01,0.17-0.08,0.25-0.13c0.17-0.01,0.35-0.02,0.52-0.03c0.48,0,0.96,0,1.44-0.01c2.19-0.11,4.38-0.21,6.57-0.33
	c0.17-0.01,0.34-0.13,0.51-0.2c0,0-0.01-0.01-0.01-0.01c0.66-0.01,1.32-0.01,1.99-0.02c0.76-0.08,1.52-0.16,2.28-0.24
	c0.27-0.01,0.54-0.02,0.8-0.04c0.58,0,1.15,0,1.72-0.01c0.95-0.08,1.9-0.16,2.85-0.25c0.18-0.01,0.35-0.02,0.53-0.03
	c1.62-0.09,3.23-0.17,4.85-0.26c0.36-0.01,0.73-0.02,1.09-0.03c1.9-0.09,3.8-0.17,5.7-0.26c0.36-0.01,0.73-0.01,1.09-0.02
	c2.29-0.02,4.58-0.04,6.87-0.08c0.36-0.01,0.72-0.12,1.08-0.19c0.84-0.02,1.68-0.04,2.52-0.05c2.94,0,5.88,0,8.81,0
	c0.46,0.02,0.92,0.04,1.39,0.06c2.56,0.18,5.12,0.36,7.69,0.54c0.08,0,0.16,0,0.24,0.02c0.11,0.08,0.23,0.15,0.34,0.23
	c2.59,0.01,5.05,0.73,7.42,1.65c2.39,0.93,4.15,2.54,4.65,5.22c0,0.56,0,1.11,0,1.67c-0.38,1.03-0.77,2.07-1.15,3.1
	c-0.07,0.11-0.14,0.22-0.21,0.32c-0.11,0.18-0.23,0.35-0.34,0.53c-0.08,0.11-0.15,0.21-0.23,0.32c-1.71,2.41-3.92,4.32-6.21,6.14
	c-5.17,4.11-10.73,7.67-16.34,11.13c-13.88,8.54-27.8,17-41.68,25.54c-4.45,2.74-8.83,5.6-13.2,8.47c-1.37,0.89-2.6,1.98-4.05,3.09
	c1.43,0.93,2.82,1.14,4.2,1.36c0.19,0,0.39,0,0.58,0c0,0-0.01,0-0.01,0c0.76,0.09,1.53,0.18,2.29,0.27c0.08-0.01,0.16,0,0.24,0.02
	c0.58,0.08,1.15,0.15,1.73,0.23c0.38,0,0.76,0,1.14,0c0.27,0.02,0.54,0.04,0.81,0.06c0.45,0.09,0.89,0.22,1.34,0.25
	c1.06,0.06,2.13,0.08,3.2,0.11c0.36,0.06,0.73,0.18,1.09,0.18c5.03,0.01,10.07,0.01,15.1,0c0.36,0,0.71-0.14,1.07-0.21
	c0.65-0.03,1.3-0.06,1.96-0.08c2.39-0.01,4.78-0.02,7.16-0.05c0.17,0,0.34-0.13,0.51-0.2c0.18-0.01,0.35-0.02,0.53-0.02
	c2.29-0.02,4.59-0.03,6.88-0.06c0.27,0,0.53-0.13,0.8-0.19c0.37-0.01,0.73-0.02,1.1-0.04c1.14,0.01,2.28,0.01,3.42,0.02
	c1.45,0,2.89,0.02,4.34-0.01c0.26,0,0.51-0.16,0.77-0.25c0.08-0.03,0.17-0.06,0.26-0.08c0.38,0.02,0.76,0.03,1.14,0.05
	c1.54-0.01,3.08,0,4.62-0.04c0.45-0.01,0.9-0.15,1.35-0.23c0.27-0.01,0.54-0.02,0.8-0.03c1.64,0,3.28,0.01,4.91-0.02
	c0.55-0.01,1.09-0.15,1.64-0.23c0.37-0.02,0.74-0.04,1.11-0.06c0.56,0.01,1.13,0.01,1.69,0.02c1.17,0,2.34,0.03,3.5-0.01
	c0.64-0.02,1.27-0.16,1.91-0.24c0.18-0.01,0.35-0.02,0.53-0.03c1.17,0,2.34,0.04,3.51,0c0.83-0.03,1.66-0.16,2.49-0.25
	c0.45-0.01,0.91-0.02,1.36-0.03c1.9-0.08,3.81-0.16,5.71-0.24c0.46-0.02,0.93-0.05,1.39-0.07c0.65,0,1.31,0.01,1.96,0.01
	c0.79,0.01,1.59,0.07,2.38,0.03c0.92-0.05,1.83-0.17,2.75-0.27c0.1-0.03,0.2-0.05,0.29-0.08c0.27,0.02,0.53,0.04,0.8,0.05
	c1.72-0.08,3.43-0.16,5.15-0.24c0.27-0.01,0.54-0.03,0.81-0.04c1.14,0.01,2.27,0.01,3.41,0.02c1.33-0.06,2.68,0.28,3.98-0.24
	c0.08-0.04,0.16-0.06,0.24-0.05c1.54,0,3.09,0.01,4.63-0.02c0.55-0.01,1.09-0.15,1.64-0.23c0.46-0.02,0.92-0.04,1.38-0.06
	c0.95,0.01,1.89,0.02,2.84,0.03C310.98,403.99,312.49,403.99,314,403.99z"/>
<path class="st1" d="M326.2,408.86c0.81-1.99,1.57-4.01,2.99-5.68c0.88-0.01,1.76,0.01,2.63-0.04c0.77-0.05,1.53-0.17,2.3-0.26
	c0.09-0.01,0.18-0.03,0.26-0.05c0.66,0,1.31,0.01,1.97,0.01c0.89,0.01,1.77,0.05,2.66,0.01c0.82-0.04,1.64-0.17,2.47-0.26
	c0.1-0.03,0.19-0.05,0.29-0.08c0.27,0.02,0.54,0.04,0.8,0.06c1.25-0.04,2.49-0.07,3.74-0.11c0.66-0.05,1.31-0.1,1.97-0.15
	c0.17-0.01,0.35-0.01,0.52-0.02c1.54-0.01,3.08,0,4.62-0.03c0.55-0.01,1.09-0.15,1.63-0.23c0.09-0.01,0.17-0.01,0.26-0.02
	c1.04,0,2.08,0.01,3.11,0.01c1.24-0.04,2.5,0.3,3.71-0.24c0.08-0.04,0.17-0.06,0.26-0.08c0.47,0.01,0.94,0.02,1.4,0.03
	c1.42-0.08,2.85-0.17,4.27-0.25c0.08-0.01,0.16-0.02,0.25-0.02c1.81-0.09,3.61-0.17,5.42-0.26c0.18-0.02,0.37-0.03,0.55-0.05
	c0.28,0.02,0.57,0.03,0.85,0.05c1.42-0.09,2.84-0.18,4.26-0.27c0.08-0.01,0.17-0.02,0.25-0.03c0.85,0,1.7,0.01,2.55,0.01
	c0.95-0.07,1.9-0.14,2.85-0.2c0.37-0.03,0.74-0.06,1.1-0.09c1.14-0.08,2.29-0.16,3.43-0.25c0.08-0.01,0.17-0.02,0.25-0.03
	c0.48,0,0.96,0,1.44,0c0.95-0.08,1.89-0.17,2.84-0.25c0.18-0.01,0.36-0.03,0.54-0.04c0.38,0,0.77,0,1.15,0.01
	c0.95-0.08,1.9-0.16,2.85-0.24c0.27-0.02,0.55-0.04,0.82-0.06c0.28,0.01,0.57,0.02,0.85,0.04c1.05-0.09,2.09-0.18,3.14-0.27
	c0.08-0.02,0.16-0.02,0.24-0.02c0.48,0,0.96,0,1.45,0c0.94-0.09,1.89-0.18,2.83-0.27c0,0-0.01-0.01-0.01-0.01c0.48,0,0.95,0,1.43,0
	c0.85-0.09,1.7-0.18,2.55-0.27c0.08-0.01,0.17-0.03,0.25-0.04c1.05-0.08,2.1-0.16,3.15-0.25c0.18-0.01,0.35-0.02,0.53-0.03
	c1.33-0.09,2.66-0.18,3.99-0.27c0.57-0.08,1.14-0.17,1.72-0.25c0.17-0.02,0.35-0.03,0.52-0.05c0.67-0.08,1.35-0.16,2.02-0.23
	c0.18-0.01,0.35-0.03,0.53-0.04c0.11,0.01,0.22,0.01,0.33,0.02c0.92-0.09,1.84-0.14,2.76-0.27c1.32-0.19,2.64-0.43,4.11-0.68
	c-0.24-0.25-0.37-0.51-0.58-0.59c-2.26-0.9-4.54-1.78-6.81-2.65c-1.51-0.58-3.05-1.08-4.51-1.76c-0.74-0.34-1.42-0.91-1.98-1.5
	c-0.71-0.74-1.07-1.63-0.12-2.75c0.09-0.1,0.17-0.2,0.26-0.3c0.1-0.09,0.21-0.17,0.31-0.26c0.19-0.1,0.38-0.19,0.57-0.29
	c0,0,0.01,0,0.01,0c0.59-0.01,1.18-0.01,1.78-0.02c0.08,0.01,0.16,0.03,0.23,0.05c0.3,0.09,0.59,0.17,0.89,0.26
	c2.6,0.95,5.2,1.9,7.81,2.83c1.93,0.69,3.9,1.31,5.81,2.05c1.24,0.48,2.43,1.12,3.64,1.69c0.09,0.06,0.17,0.13,0.26,0.19
	c0,0,0.06,0.05,0.06,0.05c0.08,0.07,0.16,0.13,0.25,0.2c0.12,0.11,0.23,0.23,0.35,0.34c0.07,0.08,0.14,0.16,0.21,0.24
	c0,0,0.05,0.07,0.05,0.07c0.07,0.09,0.13,0.18,0.2,0.27c0.64,1,0.46,1.98,0.17,3.09c-0.64,2.51-2.26,4.21-4.27,5.6
	c-4.65,3.2-9.34,6.36-14.05,9.48c-0.67,0.44-1.53,0.58-2.24,0.84c-2.45-1.41-2.09-2.99-0.14-4.36c3.62-2.54,7.27-5.04,10.91-7.56
	c0.16-0.12,0.31-0.24,0.47-0.35c-0.04-0.09-0.08-0.17-0.12-0.26c-0.41,0.11-0.82,0.22-1.23,0.32c0,0,0,0,0,0
	c-0.29,0.08-0.57,0.16-0.86,0.24c-1.95,0.3-3.89,0.62-5.85,0.89c-1.05,0.15-2.11,0.19-3.17,0.31c-1.61,0.18-3.21,0.38-4.82,0.58
	c-1.71,0.17-3.41,0.35-5.12,0.52c0,0,0.02,0.04,0.02,0.04c-0.64,0.02-1.29,0.04-1.93,0.05c-0.4,0.05-0.8,0.1-1.21,0.15
	c-0.54,0.04-1.09,0.08-1.63,0.12c-0.4,0.06-0.8,0.12-1.2,0.18c0,0,0.02,0.05,0.02,0.05c-0.74,0.02-1.48,0.03-2.22,0.05
	c-0.49,0.06-0.99,0.13-1.48,0.19c0,0,0,0.01,0,0.01c-1.05,0.08-2.09,0.16-3.14,0.24c-2.14,0.14-4.28,0.27-6.42,0.41
	c-0.5,0.05-0.99,0.1-1.49,0.15c-0.83,0.04-1.65,0.09-2.48,0.13c-0.61,0.05-1.21,0.1-1.82,0.14c-1.5,0.1-3,0.2-4.5,0.3
	c-1,0.05-2,0.09-3,0.14c-0.59,0.04-1.19,0.09-1.78,0.13c-1.02,0.04-2.03,0.09-3.05,0.13c-0.68,0.06-1.36,0.13-2.04,0.19
	c0,0-0.01,0.01-0.01,0.01c-1.8,0.08-3.61,0.16-5.41,0.24c-1.19,0.04-2.39,0.08-3.58,0.12c-0.78,0.05-1.56,0.1-2.33,0.15
	c-1.2,0.04-2.41,0.08-3.61,0.12c-0.97,0.05-1.93,0.11-2.9,0.16c-0.93,0.03-1.86,0.07-2.79,0.1c-1.15,0.06-2.3,0.13-3.46,0.19
	c-1.3,0.03-2.59,0.07-3.89,0.1c-1.15,0.06-2.3,0.12-3.45,0.18c-1.12,0.04-2.23,0.08-3.35,0.12c-1.16,0.06-2.31,0.11-3.47,0.17
	c-1.39,0.04-2.78,0.08-4.17,0.13C327.73,408.89,326.96,408.88,326.2,408.86z"/>
<path class="st2" d="M169.12,242.71c-0.4,0.08-0.8,0.16-1.21,0.24c-1.42-0.5-1.96-1.7-2.42-3.05c-1.29-3.85-2.13-7.81-3.22-11.71
	c-0.43-1.53-0.85-3.04-0.96-4.63c-0.07-1.02,0.02-1.99,0.98-2.63c0.58-0.01,1.15-0.02,1.73-0.02c0,0,0,0,0,0
	c0.17,0.11,0.34,0.23,0.51,0.34c1.08,0.95,1.36,2.33,1.77,3.59c0.92,2.81,1.68,5.66,2.51,8.5c0.59,2,1.21,3.98,1.78,5.98
	c0.35,1.23,0.12,2.33-0.96,3.15C169.47,242.55,169.29,242.63,169.12,242.71z"/>
<path class="st2" d="M173.65,221.21c0.84-0.18,1.45,0.35,1.83,1.09c0.56,1.07,1.06,2.17,1.49,3.3c0.8,2.07,1.55,4.16,2.27,6.26
	c0.65,1.88,1.13,3.82,1.87,5.66c0.48,1.19,0.58,2.35,0.51,3.58c-0.05,0.83-0.5,1.35-1.2,1.56c-0.7,0.21-1.41,0.46-2.14-0.23
	c-0.92-0.86-1.45-1.88-1.83-3.04c-0.43-1.32-0.85-2.63-1.29-3.94c-0.85-2.51-1.77-5-2.56-7.53c-0.42-1.34-0.64-2.74-0.91-4.12
	c-0.07-0.36-0.04-0.76,0.02-1.12C171.91,221.56,172.38,221.2,173.65,221.21z"/>
<path class="st2" d="M431.25,239.75c-0.94-1.27-0.52-2.47,0.19-3.65c0.07-0.1,0.14-0.21,0.21-0.31c2.66-3.95,5.33-7.9,7.99-11.86
	c0.09-0.11,0.17-0.21,0.26-0.32c0.08-0.1,0.17-0.2,0.25-0.3c0.09-0.1,0.19-0.2,0.28-0.3c0.09-0.09,0.19-0.18,0.28-0.27
	c0.11-0.08,0.22-0.17,0.32-0.25c0,0,0,0,0,0c0.18-0.1,0.37-0.2,0.55-0.3c0,0,0.01,0,0.01,0c0.59,0.02,1.17,0.04,1.76,0.06
	c1.24,0.79,0.92,1.96,0.63,3.03c-0.21,0.75-0.62,1.47-1.04,2.15c-2.36,3.78-4.75,7.56-7.15,11.31c-0.32,0.5-0.8,0.9-1.21,1.35
	c-0.11,0.07-0.22,0.15-0.33,0.22c0,0-0.02,0.01-0.02,0.01c-0.74,0.01-1.48,0.03-2.21,0.04c-0.08-0.02-0.16-0.06-0.22-0.12
	c-0.09-0.07-0.18-0.14-0.27-0.2c0,0-0.03-0.03-0.03-0.03C431.41,239.92,431.33,239.84,431.25,239.75z"/>
<path class="st2" d="M424.37,234.14c-0.25-0.44-0.49-0.88-0.74-1.31c-0.01-0.22-0.03-0.44-0.04-0.66c0.23-0.61,0.36-1.28,0.69-1.82
	c1.47-2.35,2.96-4.69,4.51-6.99c0.43-0.64,1.04-1.2,1.66-1.68c0.82-0.63,1.72-0.27,2.49,0.15c0.73,0.4,0.92,1.2,0.78,1.98
	c-0.12,0.63-0.38,1.24-0.61,1.84c-0.1,0.26-0.25,0.5-0.4,0.74c-1.38,2.24-2.73,4.51-4.18,6.7c-0.42,0.63-1.12,1.09-1.75,1.55
	c-0.73,0.53-1.47,0.45-2.13-0.19C424.55,234.35,424.46,234.24,424.37,234.14z"/>
<path class="st3" d="M202.75,412c0.23-0.02,0.47-0.06,0.7-0.06c7.76,0,15.52,0,23.28,0c0.23,0,0.47,0.04,0.7,0.06
	c-0.02,0.07-0.04,0.13-0.06,0.2c-8.18,0-16.37,0-24.55,0C202.8,412.13,202.77,412.07,202.75,412z"/>
<path class="st4" d="M211.83,407.46c-0.36,0.07-0.71,0.21-1.07,0.21c-5.03,0.02-10.07,0.02-15.1,0c-0.36,0-0.73-0.12-1.09-0.18
	l0.02-0.11c0.09,0,0.17-0.03,0.25-0.07c5.28,0.01,10.57,0.02,15.85,0.02C211.07,407.38,211.45,407.42,211.83,407.46z"/>
<path class="st5" d="M229.42,341.53c4.13,0,8.26,0.01,12.39,0.01c0.02,0.07,0.04,0.13,0.06,0.2c-4.18-0.01-8.35-0.01-12.53-0.02
	C229.37,341.66,229.39,341.6,229.42,341.53z"/>
<path class="st5" d="M227.37,412.2c0.02-0.07,0.04-0.13,0.06-0.2c3.1-0.04,6.19-0.08,9.29-0.11c0.68,0.04,1.35,0.07,2.02,0.11
	c-0.22,0.07-0.44,0.21-0.65,0.21C234.52,412.21,230.94,412.2,227.37,412.2z"/>
<path class="st6" d="M240.73,337.19c-2.94,0-5.88,0-8.81,0c0.26-0.07,0.52-0.21,0.78-0.21c2.42-0.02,4.83-0.02,7.25,0
	C240.21,336.98,240.47,337.11,240.73,337.19z"/>
<path class="st7" d="M189.49,339.22c-0.08,0.04-0.16,0.12-0.25,0.13c-2.29,0.14-4.58,0.28-6.87,0.42c1.02-0.14,2.03-0.32,3.06-0.4
	C186.77,339.27,188.13,339.26,189.49,339.22z"/>
<path class="st8" d="M249.8,337.79c-2.56-0.18-5.12-0.36-7.69-0.54C244.7,337.15,247.27,337.24,249.8,337.79z"/>
<path class="st5" d="M177.89,344.07c2.54-0.1,5.09-0.2,7.63-0.3c-0.12,0.07-0.23,0.2-0.35,0.21c-2.45,0.1-4.9,0.19-7.35,0.29
	C177.84,344.19,177.87,344.13,177.89,344.07z"/>
<path class="st3" d="M287.08,410.48c0.36-0.06,0.72-0.18,1.09-0.18c2.38-0.04,4.76-0.05,7.14-0.07c-0.88,0.08-1.76,0.19-2.65,0.23
	c-1.46,0.07-2.92,0.09-4.38,0.13C287.88,410.55,287.48,410.51,287.08,410.48z"/>
<path class="st7" d="M229.39,337.24c-0.36,0.07-0.72,0.18-1.08,0.19c-2.29,0.04-4.58,0.05-6.87,0.08c0.17-0.06,0.35-0.17,0.52-0.18
	C224.44,337.29,226.91,337.27,229.39,337.24z"/>
<path class="st5" d="M243.57,411.72c2.15-0.04,4.3-0.08,6.46-0.13c0.49,0.04,0.97,0.07,1.46,0.11c-0.22,0.07-0.43,0.21-0.65,0.21
	c-2.44,0.01-4.88,0.01-7.32,0.01C243.53,411.85,243.55,411.79,243.57,411.72z"/>
<path class="st8" d="M198.53,338.65c-0.17,0.07-0.34,0.19-0.51,0.2c-2.19,0.12-4.38,0.22-6.57,0.33c0-0.07,0.01-0.13,0.01-0.2
	C193.82,338.88,196.18,338.77,198.53,338.65z"/>
<path class="st7" d="M268.74,405.44c-0.83,0.09-1.66,0.22-2.49,0.25c-1.17,0.04-2.34,0.01-3.51,0c0.27-0.07,0.53-0.19,0.8-0.2
	C265.28,405.46,267.01,405.45,268.74,405.44z"/>
<path class="st5" d="M391.06,405.79c2.14-0.14,4.28-0.27,6.42-0.41c0.12,0.04,0.24,0.08,0.35,0.12c-0.13,0.06-0.25,0.17-0.38,0.17
	c-2.16,0.11-4.31,0.22-6.47,0.32C391.01,405.92,391.04,405.85,391.06,405.79z"/>
<path class="st5" d="M342.04,396.68c0.97-0.09,1.95-0.24,2.92-0.25c1.55-0.02,3.09,0.04,4.64,0.07c0.03,0.06,0.06,0.12,0.09,0.18
	C347.14,396.68,344.59,396.68,342.04,396.68z"/>
<path class="st7" d="M229.67,406.85c-0.27,0.07-0.53,0.19-0.8,0.19c-2.29,0.03-4.59,0.04-6.88,0.06c0.17-0.06,0.35-0.18,0.52-0.18
	C224.9,406.89,227.29,406.88,229.67,406.85z"/>
<path class="st8" d="M221.46,407.13c-0.17,0.07-0.34,0.2-0.51,0.2c-2.39,0.03-4.78,0.04-7.16,0.05c0.02-0.07,0.04-0.13,0.06-0.2
	C216.38,407.16,218.92,407.15,221.46,407.13z"/>
<path class="st5" d="M202.75,412c0.02,0.07,0.04,0.13,0.06,0.2c-2.25,0-4.51,0.01-6.76,0c-0.22,0-0.44-0.14-0.65-0.21
	c0.49-0.03,0.97-0.07,1.46-0.1C198.82,411.92,200.79,411.96,202.75,412z"/>
<path class="st9" d="M351.11,396.62c2.26,0.03,4.52,0.05,6.78,0.08c-0.16,0.08-0.33,0.23-0.49,0.23c-2.12,0.02-4.24,0.02-6.35,0
	c-0.17,0-0.34-0.13-0.51-0.21C350.73,396.7,350.92,396.66,351.11,396.62z"/>
<path class="st3" d="M241.87,341.75c-0.02-0.07-0.04-0.13-0.06-0.2c2.18,0.16,4.37,0.33,6.55,0.49
	C246.2,341.94,244.03,341.84,241.87,341.75z"/>
<path class="st5" d="M255.18,411.43c1.87-0.04,3.73-0.08,5.6-0.12c0.49,0.04,0.97,0.07,1.46,0.11c-0.22,0.07-0.43,0.21-0.65,0.21
	c-2.16,0.01-4.32,0-6.49,0C255.13,411.56,255.15,411.5,255.18,411.43z"/>
<path class="st7" d="M254.02,406c-0.55,0.08-1.09,0.21-1.64,0.23c-1.64,0.03-3.27,0.02-4.91,0.02c0.64-0.08,1.28-0.2,1.92-0.22
	C250.93,405.99,252.47,406.01,254.02,406z"/>
<path class="st7" d="M220.34,337.52c-1.9,0.09-3.8,0.17-5.7,0.26c0.55-0.08,1.1-0.22,1.65-0.23
	C217.64,337.51,218.99,337.53,220.34,337.52z"/>
<path class="st5" d="M257.12,313.76c2.17,0.01,4.35,0.03,6.52,0.04c-0.36,0.08-0.72,0.22-1.08,0.22c-1.46,0.02-2.92,0.02-4.38-0.01
	C257.82,314,257.47,313.84,257.12,313.76z"/>
<path class="st3" d="M210.09,342.28c1-0.08,2.01-0.19,3.01-0.24c1.06-0.05,2.12-0.04,3.19-0.06c0.12,0.03,0.25,0.06,0.37,0.09
	c-1.98,0.11-3.96,0.21-5.94,0.32C210.51,342.35,210.3,342.31,210.09,342.28z"/>
<path class="st7" d="M355.06,402.03c-0.54,0.08-1.09,0.22-1.63,0.23c-1.54,0.04-3.08,0.03-4.62,0.03c0.83-0.08,1.65-0.21,2.48-0.24
	C352.54,402.01,353.8,402.03,355.06,402.03z"/>
<path class="st7" d="M305.25,404.02c-0.55,0.08-1.09,0.21-1.64,0.23c-1.54,0.03-3.09,0.02-4.63,0.02c0.73-0.08,1.47-0.21,2.2-0.23
	C302.54,404,303.89,404.02,305.25,404.02z"/>
<path class="st5" d="M305.58,409.75c1.67-0.05,3.35-0.1,5.02-0.15c0.3,0.04,0.6,0.08,0.89,0.12c-0.36,0.08-0.71,0.21-1.07,0.22
	c-1.64,0.02-3.28,0.01-4.92,0.01C305.53,409.89,305.55,409.82,305.58,409.75z"/>
<path class="st5" d="M274.42,410.86c1.59-0.04,3.17-0.08,4.76-0.12c0.39,0.04,0.78,0.07,1.18,0.11c-0.36,0.08-0.72,0.22-1.08,0.22
	c-1.65,0.02-3.29-0.01-4.94-0.02C274.37,410.99,274.4,410.92,274.42,410.86z"/>
<path class="st5" d="M297.94,410.04c1.67-0.05,3.34-0.1,5.01-0.15c0.3,0.04,0.6,0.08,0.89,0.11c-0.36,0.08-0.71,0.21-1.07,0.22
	c-1.64,0.03-3.27,0.02-4.91,0.02C297.89,410.18,297.92,410.11,297.94,410.04z"/>
<path class="st8" d="M246.66,406.28c-0.45,0.08-0.9,0.22-1.35,0.23c-1.54,0.04-3.08,0.03-4.62,0.04c0.02-0.07,0.04-0.13,0.06-0.2
	C242.72,406.33,244.69,406.31,246.66,406.28z"/>
<path class="st7" d="M275.81,405.16c-1.9,0.08-3.81,0.16-5.71,0.24C272.01,405.32,273.91,405.24,275.81,405.16z"/>
<path class="st5" d="M287.08,410.48c0.4,0.04,0.8,0.07,1.2,0.11c-0.64,0.07-1.28,0.2-1.93,0.21c-1.27,0.03-2.53-0.01-3.8-0.02
	c0.03-0.07,0.05-0.13,0.08-0.2C284.12,410.55,285.6,410.51,287.08,410.48z"/>
<path class="st5" d="M219.8,341.82c1.58-0.04,3.17-0.08,4.75-0.12c0.3,0.04,0.6,0.07,0.89,0.11c-0.55,0.08-1.09,0.21-1.64,0.22
	c-1.36,0.03-2.72,0-4.08-0.01C219.75,341.95,219.77,341.88,219.8,341.82z"/>
<path class="st3" d="M410.24,404.28c1.71-0.17,3.41-0.35,5.12-0.52C413.66,403.93,411.95,404.11,410.24,404.28z"/>
<path class="st7" d="M213.55,337.81c-1.62,0.09-3.23,0.17-4.85,0.26C210.31,337.98,211.93,337.9,213.55,337.81z"/>
<path class="st3" d="M365.49,407.36c1.8-0.08,3.61-0.16,5.41-0.24c-1.59,0.12-3.18,0.24-4.77,0.36
	C365.91,407.44,365.7,407.4,365.49,407.36z"/>
<path class="st3" d="M383.95,392.99c1.78,0,3.56,0,5.35-0.01C387.51,393.49,385.73,393.42,383.95,392.99z"/>
<path class="st8" d="M262.22,405.71c-0.64,0.08-1.27,0.22-1.91,0.24c-1.17,0.04-2.33,0.01-3.5,0.01c0.02-0.07,0.04-0.13,0.05-0.2
	C258.65,405.75,260.44,405.73,262.22,405.71z"/>
<path class="st7" d="M373.74,401.18c-1.81,0.09-3.61,0.17-5.42,0.26C370.13,401.35,371.94,401.27,373.74,401.18z"/>
<path class="st10" d="M297.33,233.38c-1.8,0-3.59,0-5.39,0C293.74,232.93,295.53,232.97,297.33,233.38z"/>
<path class="st11" d="M255.18,411.43c-0.03,0.07-0.06,0.13-0.08,0.2c-1.21,0.03-2.41,0.05-3.62,0.08c-0.49-0.04-0.97-0.07-1.46-0.11
	C251.74,411.54,253.46,411.48,255.18,411.43z"/>
<path class="st8" d="M290.54,404.59c-1.72,0.08-3.43,0.16-5.15,0.24c0.02-0.07,0.05-0.14,0.07-0.21
	C287.15,404.62,288.85,404.61,290.54,404.59z"/>
<path class="st8" d="M341.48,402.6c-0.82,0.09-1.64,0.22-2.47,0.26c-0.88,0.04-1.77,0-2.66-0.01c0.02-0.07,0.03-0.13,0.05-0.2
	C338.1,402.63,339.79,402.61,341.48,402.6z"/>
<path class="st4" d="M239.3,406.59c-0.26,0.09-0.51,0.24-0.77,0.25c-1.45,0.02-2.89,0.01-4.34,0.01c0.02-0.06,0.04-0.13,0.05-0.2
	C235.93,406.62,237.61,406.6,239.3,406.59z"/>
<path class="st8" d="M284.3,404.86c-0.92,0.09-1.83,0.22-2.75,0.27c-0.79,0.04-1.59-0.01-2.38-0.03c0.02-0.07,0.03-0.13,0.05-0.2
	C280.91,404.89,282.61,404.87,284.3,404.86z"/>
<path class="st5" d="M328.49,408.9c1.39-0.04,2.78-0.08,4.17-0.13c0.21,0.04,0.43,0.08,0.64,0.12c-1.62,0.07-3.24,0.14-4.87,0.21
	C328.45,409.03,328.47,408.96,328.49,408.9z"/>
<path class="st3" d="M177.89,344.07c-0.02,0.06-0.05,0.13-0.07,0.19c-1.1,0.02-2.2,0.08-3.3,0.06c-0.49-0.01-0.97-0.19-1.45-0.29
	C174.67,344.04,176.28,344.05,177.89,344.07z"/>
<path class="st8" d="M345.17,322.77c-1.61,0.01-3.22,0.01-4.83,0.02C341.95,322.38,343.56,322.33,345.17,322.77z"/>
<path class="st8" d="M334.12,402.88c-0.77,0.09-1.53,0.22-2.3,0.26c-0.88,0.05-1.75,0.03-2.63,0.04c0.03-0.09,0.07-0.18,0.1-0.27
	C330.9,402.91,332.51,402.9,334.12,402.88z"/>
<path class="st11" d="M225.44,341.81c-0.3-0.04-0.6-0.07-0.89-0.11c1.62-0.06,3.25-0.11,4.87-0.17c-0.03,0.07-0.06,0.13-0.08,0.2
	C228.04,341.76,226.74,341.78,225.44,341.81z"/>
<path class="st3" d="M380.77,406.51c1.5-0.1,3-0.2,4.5-0.3c0.12,0.03,0.24,0.06,0.36,0.09c-1.5,0.11-3,0.23-4.5,0.34
	C381.01,406.59,380.89,406.55,380.77,406.51z"/>
<path class="st3" d="M194.81,343.13c1.61-0.08,3.22-0.17,4.84-0.25c-1.5,0.12-2.99,0.24-4.49,0.36
	C195.04,343.2,194.92,343.17,194.81,343.13z"/>
<path class="st3" d="M243.57,411.72c-0.02,0.07-0.04,0.13-0.06,0.2c-1.5,0.01-3,0.01-4.5,0.02c0.01-0.07,0.01-0.13,0.02-0.2
	C240.54,411.73,242.06,411.73,243.57,411.72z"/>
<path class="st8" d="M194.57,407.5c-1.07-0.03-2.13-0.04-3.2-0.11c-0.45-0.03-0.89-0.16-1.34-0.25c1.49,0.02,2.97,0.04,4.46,0.06
	c0.03,0.06,0.06,0.12,0.1,0.18C194.59,407.39,194.57,407.5,194.57,407.5z"/>
<path class="st4" d="M314,403.99c-1.51,0-3.02,0-4.54,0c0.02-0.07,0.04-0.13,0.06-0.2c1.3-0.05,2.6-0.09,3.91-0.14
	c0.19,0.02,0.37,0.05,0.56,0.07C314,403.81,314.01,403.9,314,403.99z"/>
<path class="st5" d="M342.92,408.3c1.3-0.03,2.59-0.07,3.89-0.1c0.21,0.04,0.43,0.08,0.64,0.12c-1.54,0.06-3.08,0.12-4.61,0.18
	C342.86,408.44,342.89,408.37,342.92,408.3z"/>
<path class="st5" d="M355.95,407.76c1.2-0.04,2.41-0.08,3.61-0.12c0.3,0.04,0.59,0.07,0.89,0.11c-1.53,0.07-3.06,0.15-4.58,0.22
	C355.9,407.89,355.93,407.82,355.95,407.76z"/>
<path class="st12" d="M419.88,398.34c-1.33,0.09-2.66,0.18-3.99,0.27c1.34-0.15,2.67-0.31,4.01-0.46
	C419.89,398.21,419.88,398.27,419.88,398.34z"/>
<path class="st5" d="M365.49,407.36c0.21,0.04,0.42,0.08,0.64,0.12c-1.43,0.07-2.86,0.14-4.29,0.21c0.03-0.07,0.05-0.14,0.08-0.2
	C363.1,407.44,364.29,407.4,365.49,407.36z"/>
<path class="st8" d="M368.08,401.46c-1.42,0.08-2.85,0.17-4.27,0.25c0.02-0.07,0.03-0.13,0.05-0.2
	C365.27,401.49,366.67,401.48,368.08,401.46z"/>
<path class="st5" d="M336.13,408.6c1.12-0.04,2.23-0.08,3.35-0.12c0.3,0.04,0.6,0.07,0.89,0.11c-1.43,0.07-2.87,0.14-4.3,0.21
	C336.09,408.74,336.11,408.67,336.13,408.6z"/>
<path class="st8" d="M379.41,400.9c-1.42,0.09-2.84,0.18-4.26,0.27c0.02-0.07,0.04-0.13,0.06-0.2
	C376.6,400.95,378.01,400.93,379.41,400.9z"/>
<path class="st11" d="M274.42,410.86c-0.03,0.07-0.06,0.13-0.08,0.2c-1.02,0.03-2.03,0.06-3.05,0.08c-0.39-0.04-0.79-0.07-1.18-0.11
	C271.55,410.97,272.98,410.91,274.42,410.86z"/>
<path class="st5" d="M390.73,317.18c1.42-0.01,2.84-0.02,4.26-0.03C393.57,317.6,392.15,317.58,390.73,317.18z"/>
<path class="st5" d="M270.11,411.03c0.39,0.04,0.79,0.07,1.18,0.11c-1.44,0.05-2.88,0.11-4.32,0.16c0.03-0.06,0.05-0.12,0.07-0.18
	C268.06,411.09,269.09,411.06,270.11,411.03z"/>
<path class="st7" d="M348.28,402.31c-0.66,0.05-1.31,0.1-1.97,0.15c-0.01-0.05-0.02-0.1-0.03-0.15
	C346.95,402.31,347.62,402.31,348.28,402.31z"/>
<path class="st4" d="M298.74,404.32c-1.3,0.53-2.65,0.19-3.98,0.24c0.02-0.07,0.04-0.13,0.06-0.2
	C296.12,404.35,297.43,404.34,298.74,404.32z"/>
<path class="st12" d="M415.36,398.63c-1.05,0.08-2.1,0.16-3.15,0.25C413.26,398.8,414.31,398.72,415.36,398.63z"/>
<path class="st12" d="M384.79,318.53c-1.33,0-2.65,0-3.98,0C382.14,318.13,383.47,318.13,384.79,318.53z"/>
<path class="st5" d="M201.43,342.7c1.1-0.05,2.21-0.1,3.31-0.15c0.11,0.04,0.22,0.08,0.33,0.12c-1.24,0.08-2.48,0.16-3.72,0.23
	C201.37,342.83,201.4,342.76,201.43,342.7z"/>
<path class="st3" d="M186.38,411.37c1.24,0.08,2.47,0.16,3.71,0.25c-0.11,0.04-0.23,0.07-0.34,0.11
	C188.62,411.61,187.5,411.49,186.38,411.37z"/>
<path class="st3" d="M323.96,315.72c1.21,0,2.43,0.01,3.64,0.01C326.38,316.18,325.17,316.17,323.96,315.72z"/>
<path class="st5" d="M350.27,408.02c0.93-0.03,1.86-0.07,2.79-0.1c0.3,0.04,0.6,0.07,0.89,0.11c-1.25,0.06-2.5,0.12-3.75,0.18
	C350.23,408.15,350.25,408.08,350.27,408.02z"/>
<path class="st5" d="M372.94,406.91c1.02-0.04,2.03-0.08,3.05-0.13c0.2,0.04,0.41,0.08,0.61,0.11c-1.24,0.07-2.49,0.15-3.73,0.22
	C372.89,407.05,372.91,406.98,372.94,406.91z"/>
<path class="st11" d="M196.86,411.89c-0.49,0.03-0.97,0.07-1.46,0.1c-0.74-0.02-1.47-0.04-2.21-0.06c-0.03-0.07-0.05-0.13-0.08-0.2
	C194.36,411.78,195.61,411.83,196.86,411.89z"/>
<path class="st8" d="M346.28,402.31c0,0.05,0.01,0.1,0.03,0.15c-1.25,0.04-2.49,0.07-3.74,0.11c0.02-0.07,0.05-0.14,0.08-0.21
	C343.86,402.35,345.07,402.33,346.28,402.31z"/>
<path class="st4" d="M362.14,401.77c-1.21,0.54-2.47,0.2-3.71,0.24c0.02-0.07,0.04-0.13,0.06-0.2
	C359.71,401.8,360.92,401.78,362.14,401.77z"/>
<path class="st7" d="M382.25,230.52c-1.14,0-2.27,0.01-3.41,0.01C379.97,230.14,381.11,230.12,382.25,230.52z"/>
<path class="st3" d="M267.04,411.12c-0.02,0.06-0.04,0.12-0.07,0.18c-1.11,0.01-2.23,0.03-3.34,0.04c0-0.07,0.01-0.14,0.02-0.2
	C264.78,411.13,265.91,411.12,267.04,411.12z"/>
<path class="st5" d="M210.09,342.28c0.21,0.04,0.42,0.07,0.63,0.11c-1.16,0.06-2.32,0.12-3.48,0.18c0.03-0.06,0.06-0.13,0.08-0.19
	C208.25,342.34,209.17,342.31,210.09,342.28z"/>
<path class="st11" d="M282.64,410.58c-0.03,0.07-0.05,0.13-0.08,0.2c-0.73,0.02-1.47,0.05-2.2,0.07c-0.39-0.04-0.78-0.07-1.18-0.11
	C280.33,410.69,281.48,410.63,282.64,410.58z"/>
<path class="st10" d="M501.27,279.93c0.22,0.25,0.47,0.4,0.47,0.56c0.01,0.15-0.22,0.43-0.37,0.44c-0.15,0.01-0.43-0.21-0.46-0.36
	C500.89,280.42,501.1,280.22,501.27,279.93z"/>
<path class="st5" d="M380.77,406.51c0.12,0.04,0.23,0.08,0.35,0.12c-1.14,0.07-2.29,0.15-3.43,0.22c0.02-0.07,0.05-0.13,0.07-0.2
	C378.77,406.6,379.77,406.56,380.77,406.51z"/>
<path class="st5" d="M193.11,411.72c0.03,0.07,0.05,0.13,0.08,0.2c-1.15-0.07-2.3-0.13-3.45-0.2c0.11-0.04,0.23-0.07,0.34-0.11
	C191.1,411.65,192.1,411.69,193.11,411.72z"/>
<path class="st12" d="M234.24,406.64c-0.01,0.07-0.03,0.13-0.05,0.2c-1.14-0.01-2.28-0.01-3.42-0.02
	C231.93,406.76,233.09,406.7,234.24,406.64z"/>
<path class="st11" d="M262.46,346.58c0-0.56,0-1.11,0-1.67C262.46,345.46,262.46,346.02,262.46,346.58z"/>
<path class="st8" d="M389.6,400.34c-1.14,0.08-2.29,0.16-3.43,0.25c0.02-0.07,0.03-0.13,0.05-0.2
	C387.35,400.37,388.47,400.35,389.6,400.34z"/>
<path class="st3" d="M336.13,408.6c-0.02,0.07-0.04,0.13-0.06,0.2c-0.92,0.03-1.85,0.06-2.77,0.09c-0.21-0.04-0.43-0.08-0.64-0.12
	C333.81,408.71,334.97,408.66,336.13,408.6z"/>
<path class="st11" d="M219.8,341.82c-0.03,0.07-0.05,0.13-0.08,0.2c-1.02,0.02-2.04,0.03-3.06,0.05c-0.12-0.03-0.25-0.06-0.37-0.09
	C217.46,341.92,218.63,341.87,219.8,341.82z"/>
<path class="st12" d="M294.81,404.37c-0.01,0.07-0.03,0.13-0.06,0.2c-1.14-0.01-2.27-0.01-3.41-0.02
	C292.5,404.49,293.66,404.43,294.81,404.37z"/>
<path class="st3" d="M350.27,408.02c-0.02,0.07-0.04,0.13-0.06,0.2c-0.92,0.04-1.83,0.07-2.75,0.11c-0.21-0.04-0.43-0.08-0.64-0.12
	C347.96,408.14,349.11,408.08,350.27,408.02z"/>
<path class="st11" d="M340.37,408.59c-0.3-0.04-0.6-0.07-0.89-0.11c1.15-0.06,2.3-0.12,3.45-0.18c-0.03,0.07-0.05,0.13-0.08,0.2
	C342.01,408.53,341.19,408.56,340.37,408.59z"/>
<path class="st12" d="M358.49,401.81c-0.02,0.07-0.04,0.14-0.06,0.2c-1.04,0-2.07-0.01-3.11-0.01
	C356.38,401.94,357.43,401.87,358.49,401.81z"/>
<path class="st6" d="M213.84,407.18c-0.02,0.07-0.04,0.13-0.06,0.2c-0.65,0.03-1.3,0.06-1.96,0.08c-0.38-0.04-0.76-0.08-1.14-0.12
	C211.74,407.29,212.79,407.23,213.84,407.18z"/>
<path class="st8" d="M403.47,399.49c-1.05,0.09-2.09,0.18-3.14,0.27c0.02-0.07,0.04-0.13,0.06-0.2
	C401.41,399.53,402.44,399.51,403.47,399.49z"/>
<path class="st5" d="M387.09,406.06c0.83-0.04,1.65-0.09,2.48-0.13c0.2,0.04,0.41,0.07,0.61,0.11c-1.05,0.08-2.11,0.15-3.16,0.23
	C387.04,406.2,387.07,406.13,387.09,406.06z"/>
<path class="st11" d="M311.49,409.72c-0.3-0.04-0.6-0.08-0.89-0.12c1.06-0.05,2.12-0.1,3.18-0.15c-0.03,0.07-0.05,0.13-0.08,0.2
	C312.96,409.68,312.23,409.7,311.49,409.72z"/>
<path class="st3" d="M397.83,405.5c-0.12-0.04-0.24-0.08-0.35-0.12c1.05-0.08,2.09-0.16,3.14-0.24
	C399.69,405.26,398.76,405.38,397.83,405.5z"/>
<path class="st3" d="M432.02,240.36c0.74-0.01,1.48-0.03,2.21-0.04C433.5,240.89,432.77,240.97,432.02,240.36z"/>
<path class="st5" d="M313.7,409.65c0.03-0.07,0.05-0.13,0.08-0.2c0.84-0.03,1.68-0.07,2.52-0.1c0.09,0.12,0.18,0.23,0.27,0.35
	C315.61,409.68,314.65,409.67,313.7,409.65z"/>
<path class="st10" d="M538.07,323.9c-0.22,0.19-0.35,0.39-0.46,0.38c-0.19-0.03-0.35-0.19-0.53-0.29c0.12-0.16,0.23-0.42,0.38-0.45
	C537.61,323.52,537.8,323.73,538.07,323.9z"/>
<path class="st11" d="M353.95,408.03c-0.3-0.04-0.6-0.07-0.89-0.11c0.97-0.05,1.93-0.11,2.9-0.16c-0.03,0.07-0.05,0.14-0.08,0.2
	C355.23,407.98,354.59,408.01,353.95,408.03z"/>
<path class="st7" d="M263.62,235.66c-0.94,0.08-1.88,0.16-2.82,0.24C261.74,235.82,262.68,235.74,263.62,235.66z"/>
<path class="st12" d="M309.52,403.79c-0.02,0.07-0.04,0.14-0.06,0.2c-0.95-0.01-1.89-0.02-2.84-0.03
	C307.59,403.91,308.56,403.85,309.52,403.79z"/>
<path class="st5" d="M194.81,343.13c0.12,0.04,0.23,0.07,0.35,0.11c-0.97,0.06-1.93,0.12-2.9,0.18c0.03-0.07,0.05-0.13,0.08-0.2
	C193.16,343.19,193.98,343.16,194.81,343.13z"/>
<path class="st5" d="M187.8,343.51c0.83-0.04,1.67-0.08,2.5-0.12c0.11,0.04,0.22,0.08,0.33,0.12c-0.96,0.07-1.93,0.14-2.89,0.21
	C187.76,343.64,187.78,343.58,187.8,343.51z"/>
<path class="st7" d="M181.84,339.79c-0.96,0.09-1.91,0.17-2.87,0.26C179.93,339.96,180.88,339.87,181.84,339.79z"/>
<path class="st8" d="M407.99,399.2c-0.94,0.09-1.89,0.18-2.83,0.27c0-0.07,0.01-0.13,0.01-0.2
	C406.11,399.25,407.05,399.23,407.99,399.2z"/>
<path class="st7" d="M269.59,235.91c-0.94-0.08-1.88-0.16-2.82-0.24C267.7,235.74,268.64,235.83,269.59,235.91z"/>
<path class="st8" d="M208.17,338.1c-0.95,0.08-1.9,0.16-2.85,0.25c0-0.07,0.01-0.13,0.01-0.2
	C206.28,338.13,207.22,338.11,208.17,338.1z"/>
<path class="st7" d="M398.66,399.78c-0.95,0.08-1.9,0.16-2.85,0.24c0.01-0.07,0.01-0.13,0.02-0.2
	C396.78,399.81,397.72,399.79,398.66,399.78z"/>
<path class="st11" d="M263.65,411.13c-0.01,0.07-0.01,0.14-0.02,0.2c-0.46,0.03-0.93,0.05-1.39,0.08c-0.49-0.04-0.97-0.07-1.46-0.11
	C261.74,411.25,262.69,411.19,263.65,411.13z"/>
<path class="st7" d="M394.12,400.05c-0.95,0.08-1.89,0.17-2.84,0.25c0.01-0.07,0.01-0.13,0.02-0.2
	C392.24,400.09,393.18,400.07,394.12,400.05z"/>
<path class="st3" d="M319.98,412.81c0.94,0,1.87-0.01,2.81-0.01C321.85,413.32,320.91,413.22,319.98,412.81z"/>
<path class="st4" d="M385.07,400.68c-0.95,0.07-1.9,0.14-2.85,0.21c0.02-0.07,0.04-0.13,0.06-0.2c0.83-0.04,1.67-0.08,2.5-0.13
	C384.87,400.59,384.97,400.64,385.07,400.68z"/>
<path class="st12" d="M382.27,400.68c-0.02,0.07-0.04,0.14-0.06,0.2c-0.85,0-1.7-0.01-2.55-0.01
	C380.53,400.81,381.4,400.74,382.27,400.68z"/>
<path class="st3" d="M183.83,411.09c0.85,0.09,1.7,0.19,2.54,0.28C185.53,411.27,184.68,411.18,183.83,411.09z"/>
<path class="st11" d="M303.85,410.01c-0.3-0.04-0.6-0.08-0.89-0.11c0.87-0.05,1.75-0.09,2.62-0.14c-0.03,0.07-0.05,0.14-0.07,0.2
	C304.95,409.97,304.4,409.99,303.85,410.01z"/>
<path class="st8" d="M411.96,398.92c-0.85,0.09-1.7,0.18-2.55,0.27c0-0.07,0.01-0.13,0.01-0.2
	C410.27,398.97,411.11,398.94,411.96,398.92z"/>
<path class="st8" d="M178.73,340.07c-0.86,0.09-1.72,0.18-2.59,0.27C177,340.25,177.87,340.16,178.73,340.07z"/>
<path class="st6" d="M205.62,231.06c-0.86,0-1.71,0-2.57,0C203.91,230.72,204.76,230.72,205.62,231.06z"/>
<path class="st11" d="M297.94,410.04c-0.03,0.07-0.05,0.13-0.07,0.2c-0.85-0.01-1.7-0.02-2.55-0.04
	C296.2,410.15,297.07,410.1,297.94,410.04z"/>
<path class="st5" d="M215.51,314.89c0.84,0.01,1.68,0.03,2.52,0.04c0.03,0.07,0.06,0.13,0.09,0.2
	C217.25,315.05,216.38,314.97,215.51,314.89z"/>
<path class="st11" d="M207.33,342.36c-0.03,0.06-0.06,0.13-0.08,0.19c-0.73,0.03-1.45,0.07-2.18,0.1c-0.11-0.04-0.22-0.08-0.33-0.12
	C205.6,342.48,206.47,342.42,207.33,342.36z"/>
<path class="st8" d="M202.79,338.38c-0.76,0.08-1.52,0.16-2.28,0.24c0-0.07,0.01-0.13,0.01-0.2
	C201.28,338.41,202.04,338.4,202.79,338.38z"/>
<path class="st3" d="M328.49,408.9c-0.02,0.07-0.04,0.14-0.06,0.2c-0.76,0-1.52,0-2.29,0c0.01-0.08,0.03-0.16,0.05-0.24
	C326.96,408.88,327.73,408.89,328.49,408.9z"/>
<path class="st5" d="M402.1,404.94c0.74-0.02,1.48-0.03,2.22-0.05c-0.77,0.08-1.53,0.17-2.3,0.25
	C402.05,405.07,402.08,405,402.1,404.94z"/>
<path class="st11" d="M239.03,411.74c-0.01,0.07-0.02,0.13-0.02,0.2c-0.09,0.03-0.17,0.04-0.26,0.05c-0.67-0.04-1.35-0.07-2.02-0.11
	C237.49,411.83,238.26,411.79,239.03,411.74z"/>
<path class="st7" d="M266.19,235.62c-0.77-0.02-1.54-0.04-2.31-0.06C264.66,235.17,265.43,235.32,266.19,235.62z"/>
<path class="st11" d="M361.9,407.48c-0.03,0.07-0.05,0.14-0.08,0.2c-0.46,0.02-0.91,0.04-1.37,0.06c-0.3-0.04-0.59-0.07-0.89-0.11
	C360.35,407.58,361.12,407.53,361.9,407.48z"/>
<path class="st8" d="M186.11,406.84c-0.76-0.09-1.53-0.18-2.29-0.27C184.58,406.66,185.34,406.75,186.11,406.84z"/>
<path class="st3" d="M187.8,343.51c-0.02,0.07-0.04,0.13-0.06,0.2c-0.75,0.01-1.49,0.01-2.24,0.02
	C186.26,343.65,187.03,343.58,187.8,343.51z"/>
<path class="st11" d="M372.94,406.91c-0.03,0.07-0.05,0.14-0.08,0.2c-0.66,0-1.31-0.01-1.97-0.01
	C371.58,407.04,372.26,406.97,372.94,406.91z"/>
<path class="st11" d="M190.63,343.5c-0.11-0.04-0.22-0.08-0.33-0.12c0.68-0.05,1.36-0.11,2.04-0.16c-0.03,0.07-0.06,0.13-0.08,0.2
	C191.71,343.45,191.17,343.48,190.63,343.5z"/>
<path class="st6" d="M336.4,402.65c-0.02,0.07-0.04,0.13-0.05,0.2c-0.66,0-1.31-0.01-1.97-0.01
	C335.06,402.77,335.73,402.71,336.4,402.65z"/>
<path class="st10" d="M220.61,315.12c0.65-0.08,1.29-0.17,1.94-0.25C221.9,314.95,221.26,315.04,220.61,315.12z"/>
<path class="st12" d="M424.14,397.8c-0.67,0.08-1.35,0.16-2.02,0.23C422.79,397.96,423.46,397.88,424.14,397.8z"/>
<path class="st5" d="M408.33,404.37c0.64-0.02,1.29-0.04,1.93-0.05c-0.67,0.09-1.34,0.17-2.01,0.26
	C408.28,404.51,408.31,404.44,408.33,404.37z"/>
<path class="st5" d="M405.49,404.65c0.54-0.04,1.09-0.08,1.63-0.12c0.11,0.04,0.22,0.07,0.33,0.11c-0.68,0.07-1.35,0.14-2.03,0.22
	C405.44,404.79,405.47,404.72,405.49,404.65z"/>
<path class="st6" d="M279.22,404.9c-0.02,0.06-0.04,0.13-0.05,0.2c-0.65,0-1.31-0.01-1.96-0.01
	C277.88,405.02,278.55,404.96,279.22,404.9z"/>
<path class="st7" d="M200.52,338.43c0,0.07-0.01,0.13-0.01,0.2c-0.66,0.01-1.32,0.01-1.99,0.02
	C199.19,338.57,199.86,338.5,200.52,338.43z"/>
<path class="st11" d="M201.43,342.7c-0.02,0.07-0.05,0.13-0.08,0.2c-0.57-0.01-1.13-0.02-1.7-0.03
	C200.24,342.81,200.83,342.75,201.43,342.7z"/>
<path class="st8" d="M443.36,222.24c-0.59-0.02-1.17-0.04-1.76-0.06C442.2,221.76,442.79,221.78,443.36,222.24z"/>
<path class="st6" d="M353.38,233.89c-0.57-0.01-1.15-0.01-1.72-0.02C352.23,233.54,352.81,233.54,353.38,233.89z"/>
<path class="st11" d="M377.77,406.65c-0.02,0.07-0.05,0.13-0.07,0.2c-0.37,0.01-0.73,0.03-1.1,0.04c-0.2-0.04-0.41-0.08-0.61-0.11
	C376.58,406.74,377.17,406.7,377.77,406.65z"/>
<path class="st7" d="M420.79,386.71c-0.59,0.01-1.18,0.01-1.78,0.02C419.6,386.31,420.19,386.35,420.79,386.71z"/>
<path class="st7" d="M419.88,398.34c0.01-0.07,0.01-0.13,0.02-0.2c0.57-0.02,1.13-0.04,1.7-0.05
	C421.02,398.17,420.45,398.26,419.88,398.34z"/>
<path class="st3" d="M430.06,401.74c0.41-0.11,0.82-0.22,1.23-0.32c0.04,0.09,0.08,0.17,0.12,0.26c-0.16,0.12-0.31,0.24-0.47,0.35
	C430.65,401.94,430.36,401.84,430.06,401.74z"/>
<path class="st11" d="M387.09,406.06c-0.03,0.07-0.05,0.14-0.08,0.2c-0.46,0.01-0.93,0.02-1.39,0.03c-0.12-0.03-0.24-0.06-0.36-0.09
	C385.88,406.16,386.49,406.11,387.09,406.06z"/>
<path class="st7" d="M205.33,338.15c0,0.07-0.01,0.13-0.01,0.2c-0.57,0-1.15,0-1.72,0.01C204.18,338.28,204.75,338.21,205.33,338.15
	z"/>
<path class="st8" d="M164.02,220.92c-0.58,0.01-1.15,0.02-1.73,0.02C162.86,220.45,163.44,220.46,164.02,220.92z"/>
<path class="st6" d="M332.15,233.87c-0.57,0.01-1.14,0.02-1.72,0.03C331,233.53,331.57,233.54,332.15,233.87z"/>
<path class="st8" d="M188.08,407.09c-0.58-0.08-1.15-0.15-1.73-0.23c0.57,0.01,1.13,0.02,1.7,0.04
	C188.06,406.96,188.07,407.03,188.08,407.09z"/>
<path class="st6" d="M256.87,405.76c-0.02,0.07-0.04,0.13-0.05,0.2c-0.56-0.01-1.13-0.01-1.69-0.02
	C255.71,405.88,256.29,405.82,256.87,405.76z"/>
<path class="st6" d="M385.07,400.68c-0.1-0.04-0.2-0.08-0.3-0.12c0.48-0.06,0.97-0.11,1.45-0.17c-0.02,0.07-0.04,0.13-0.05,0.2
	C385.8,400.61,385.43,400.65,385.07,400.68z"/>
<path class="st10" d="M287.98,393.23c0.47-0.08,0.94-0.16,1.41-0.24C288.92,393.08,288.45,393.15,287.98,393.23z"/>
<path class="st10" d="M327.63,346.87c0.07,0.21,0.13,0.43,0.2,0.64c-0.07,0.03-0.14,0.06-0.22,0.08c-0.11-0.22-0.22-0.44-0.33-0.66
	C327.4,346.92,327.52,346.9,327.63,346.87z"/>
<path class="st11" d="M402.1,404.94c-0.02,0.07-0.05,0.14-0.07,0.2c-0.47,0-0.94-0.01-1.4-0.01
	C401.11,405.06,401.61,405,402.1,404.94z"/>
<path class="st7" d="M409.42,398.99c0,0.07-0.01,0.13-0.01,0.2c-0.48,0-0.95,0-1.43,0C408.46,399.13,408.94,399.06,409.42,398.99z"
	/>
<path class="st7" d="M191.46,338.99c0,0.07-0.01,0.13-0.01,0.2c-0.48,0-0.96,0-1.44,0C190.49,339.12,190.98,339.06,191.46,338.99z"
	/>
<path class="st7" d="M405.17,399.27c0,0.07-0.01,0.13-0.01,0.2c-0.48,0-0.96,0-1.45,0C404.2,399.4,404.69,399.34,405.17,399.27z"/>
<path class="st10" d="M218.12,315.13c-0.03-0.07-0.06-0.13-0.09-0.2c0.48,0.06,0.97,0.13,1.45,0.19
	C219.03,315.13,218.58,315.13,218.12,315.13z"/>
<path class="st6" d="M403.48,362.09c-0.27,0.01-0.55,0.08-0.81,0.03c-0.38-0.08-0.38-0.31-0.12-0.57
	C402.85,361.73,403.17,361.91,403.48,362.09z"/>
<path class="st11" d="M390.18,406.04c-0.2-0.04-0.41-0.07-0.61-0.11c0.5-0.05,0.99-0.1,1.49-0.15c-0.02,0.07-0.05,0.14-0.07,0.21
	C390.72,406.01,390.45,406.02,390.18,406.04z"/>
<path class="st12" d="M391.3,400.11c-0.01,0.07-0.01,0.13-0.02,0.2c-0.48,0-0.96,0-1.44,0C390.33,400.24,390.82,400.17,391.3,400.11
	z"/>
<path class="st6" d="M363.86,401.51c-0.02,0.07-0.04,0.13-0.05,0.2c-0.47-0.01-0.94-0.02-1.4-0.03
	C362.89,401.63,363.37,401.57,363.86,401.51z"/>
<path class="st10" d="M351.11,396.62c-0.19,0.04-0.38,0.07-0.57,0.11c-0.28-0.02-0.56-0.04-0.84-0.06
	c-0.03-0.06-0.06-0.12-0.09-0.18C350.1,396.54,350.6,396.58,351.11,396.62z"/>
<path class="st12" d="M188.08,407.09c-0.01-0.07-0.02-0.13-0.03-0.2c0.39,0.06,0.78,0.13,1.18,0.19
	C188.84,407.09,188.46,407.09,188.08,407.09z"/>
<path class="st10" d="M285.17,392.99c0.37,0.08,0.75,0.15,1.12,0.23C285.91,393.14,285.54,393.06,285.17,392.99z"/>
<path class="st12" d="M395.83,399.82c-0.01,0.07-0.01,0.13-0.02,0.2c-0.38,0-0.77,0-1.15-0.01
	C395.05,399.95,395.44,399.88,395.83,399.82z"/>
<path class="st3" d="M423.59,232.17c0.01,0.22,0.03,0.44,0.04,0.66C423.61,232.61,423.6,232.39,423.59,232.17z"/>
<path class="st11" d="M407.45,404.64c-0.11-0.04-0.22-0.07-0.33-0.11c0.4-0.05,0.8-0.1,1.21-0.15c-0.02,0.07-0.05,0.14-0.07,0.2
	C407.99,404.6,407.72,404.62,407.45,404.64z"/>
<path class="st6" d="M240.75,406.36c-0.02,0.07-0.04,0.13-0.06,0.2c-0.38-0.02-0.76-0.03-1.14-0.05
	C239.95,406.46,240.35,406.41,240.75,406.36z"/>
<path class="st11" d="M405.49,404.65c-0.02,0.07-0.05,0.14-0.08,0.2c-0.37-0.01-0.75-0.01-1.12-0.02
	C404.7,404.77,405.1,404.71,405.49,404.65z"/>
<path class="st3" d="M248.37,342.04c0.29,0.08,0.58,0.16,0.86,0.24C248.94,342.19,248.66,342.12,248.37,342.04z"/>
<path class="st6" d="M400.39,399.55c-0.02,0.07-0.04,0.13-0.06,0.2c-0.28-0.01-0.57-0.02-0.85-0.04
	C399.78,399.66,400.09,399.61,400.39,399.55z"/>
<path class="st6" d="M375.2,400.98c-0.02,0.07-0.04,0.13-0.06,0.2c-0.28-0.02-0.57-0.03-0.85-0.05
	C374.59,401.08,374.9,401.03,375.2,400.98z"/>
<path class="st3" d="M429.19,401.98c0.29-0.08,0.57-0.16,0.86-0.24C429.77,401.82,429.48,401.9,429.19,401.98z"/>
<path class="st13" d="M342.65,402.37c-0.03,0.07-0.05,0.14-0.08,0.21c-0.27-0.02-0.54-0.04-0.8-0.06
	C342.06,402.47,342.36,402.42,342.65,402.37z"/>
<path class="st7" d="M421.91,387.01c-0.3-0.09-0.59-0.17-0.89-0.26C421.31,386.84,421.61,386.93,421.91,387.01z"/>
<path class="st6" d="M313.99,403.72c-0.19-0.02-0.37-0.05-0.56-0.07c0.12-0.17,0.23-0.33,0.35-0.5
	C313.85,403.34,313.92,403.53,313.99,403.72z"/>
<path class="st13" d="M285.46,404.63c-0.03,0.07-0.05,0.14-0.07,0.21c-0.27-0.02-0.53-0.04-0.8-0.05
	C284.88,404.73,285.17,404.68,285.46,404.63z"/>
<path class="st7" d="M169.12,242.71c0.17-0.08,0.35-0.16,0.52-0.23C169.46,242.55,169.29,242.63,169.12,242.71z"/>
<path class="st8" d="M175.9,340.36c-0.3,0.08-0.6,0.16-0.9,0.24C175.3,340.52,175.6,340.44,175.9,340.36z"/>
<path class="st8" d="M441.59,222.19c-0.18,0.1-0.37,0.2-0.55,0.3C441.23,222.39,441.41,222.29,441.59,222.19z"/>
<path class="st7" d="M419,386.73c-0.19,0.1-0.38,0.19-0.57,0.29C418.62,386.92,418.81,386.83,419,386.73z"/>
<path class="st8" d="M164.53,221.26c-0.17-0.11-0.34-0.23-0.51-0.34C164.19,221.03,164.36,221.14,164.53,221.26z"/>
<path class="st8" d="M183.82,406.57c-0.19,0-0.39,0-0.58,0C183.44,406.57,183.63,406.57,183.82,406.57z"/>
<path class="st10" d="M327.26,346.89c-0.09-0.17-0.17-0.34-0.26-0.52C327.09,346.55,327.18,346.72,327.26,346.89z"/>
<path class="st3" d="M183.24,411.09c0.2,0,0.39,0,0.59,0C183.63,411.09,183.44,411.09,183.24,411.09z"/>
<path class="st7" d="M418.12,387.28c-0.09,0.1-0.17,0.2-0.26,0.3C417.95,387.48,418.04,387.38,418.12,387.28z"/>
<path class="st3" d="M431.25,239.75c0.08,0.08,0.17,0.17,0.25,0.25C431.41,239.92,431.33,239.84,431.25,239.75z"/>
<path class="st8" d="M441.04,222.49c-0.11,0.08-0.22,0.17-0.32,0.25C440.82,222.66,440.93,222.58,441.04,222.49z"/>
<path class="st7" d="M398.64,344.05c-0.1,0.03-0.2,0.05-0.29,0.08C398.45,344.1,398.55,344.07,398.64,344.05z"/>
<path class="st11" d="M261.1,350c0.07-0.11,0.14-0.22,0.21-0.32C261.24,349.79,261.17,349.89,261.1,350z"/>
<path class="st3" d="M431.53,240.04c0.09,0.07,0.18,0.14,0.27,0.2C431.71,240.17,431.62,240.1,431.53,240.04z"/>
<path class="st3" d="M434.25,240.3c0.11-0.07,0.22-0.15,0.33-0.22C434.47,240.16,434.36,240.23,434.25,240.3z"/>
<path class="st8" d="M250.39,338.04c-0.11-0.08-0.23-0.15-0.34-0.23C250.16,337.88,250.27,337.96,250.39,338.04z"/>
<path class="st11" d="M260.53,350.84c0.08-0.11,0.15-0.21,0.23-0.32C260.68,350.63,260.61,350.74,260.53,350.84z"/>
<path class="st3" d="M439.43,393.78c-0.09-0.06-0.17-0.13-0.26-0.19C439.25,393.65,439.34,393.71,439.43,393.78z"/>
<path class="st3" d="M439.74,394.02c-0.08-0.07-0.16-0.13-0.25-0.2C439.57,393.89,439.65,393.96,439.74,394.02z"/>
<path class="st3" d="M440.3,394.6c-0.07-0.08-0.14-0.16-0.21-0.24C440.16,394.45,440.23,394.52,440.3,394.6z"/>
<path class="st12" d="M431.65,235.79c-0.07,0.1-0.14,0.21-0.21,0.31C431.51,236,431.58,235.9,431.65,235.79z"/>
<path class="st3" d="M424.37,234.14c0.09,0.1,0.18,0.21,0.27,0.31C424.55,234.35,424.46,234.24,424.37,234.14z"/>
<path class="st12" d="M425,397.78c-0.11-0.01-0.22-0.01-0.33-0.02C424.77,397.77,424.89,397.77,425,397.78z"/>
<path class="st8" d="M440.43,223.02c-0.09,0.1-0.19,0.2-0.28,0.3C440.25,223.22,440.34,223.12,440.43,223.02z"/>
<path class="st13" d="M194.59,407.39c-0.04-0.06-0.07-0.12-0.1-0.18c0.12,0.04,0.23,0.07,0.35,0.11
	C194.76,407.36,194.68,407.39,194.59,407.39z"/>
<path class="st8" d="M439.9,223.61c-0.09,0.11-0.17,0.21-0.26,0.32C439.73,223.83,439.81,223.72,439.9,223.61z"/>
<path class="st3" d="M440.55,394.94c-0.07-0.09-0.13-0.18-0.2-0.27C440.42,394.76,440.48,394.85,440.55,394.94z"/>
<path class="st14" d="M285.97,391.32c-1.46-0.35-2.49-1.34-3.32-2.5c-2.52-3.51-4-7.45-4.59-11.72c-0.64-4.61,0.21-9.11,0.99-13.61
	c0.55-3.19,1.23-6.36,1.85-9.54c1.2-6.23,1.28-12.52,1.12-18.83c-0.05-1.93-0.09-3.86-0.03-5.78c0.12-3.68,1.43-6.99,3.43-10.04
	c1.26-1.93,2.54-3.85,4.27-5.43c1.05-0.96,0.85-2.01-0.43-2.49c-2.4-0.91-4.12-2.61-5.52-4.67c-0.66-0.97-1.26-1.99-1.89-2.99
	c-0.94-1.49-1.54-1.6-2.73-0.39c-2.71,2.77-5.99,4.7-9.33,6.56c-3.88,2.17-8.06,2.43-12.34,2.04c-1.26-0.11-2.52-0.33-3.76-0.58
	c-5.04-1.03-9.15-3.62-12.46-7.52c-0.98-1.15-1.55-1.19-2.72-0.23c-1.53,1.26-2.98,2.62-4.6,3.74c-1.5,1.04-3.15,1.86-4.77,2.72
	c-1.24,0.67-2.51,1.3-3.81,1.85c-1.16,0.5-2.38,0.87-3.57,1.29c-1.32,0-2.65,0-3.97-0.01c-2.49,0.02-4.72-0.75-6.77-2.13
	c-2.42-1.64-4.86-3.25-7.28-4.89c-0.43-0.29-0.84-0.62-1.2-0.99c-2.99-3.08-6-6.13-8.93-9.27c-1.76-1.88-2.53-4.26-2.99-6.76
	c-0.89-4.81,0.2-9.16,3.01-13.12c0.68-0.96,1.42-1.88,2.14-2.81c0.91-1.18,0.77-1.85-0.55-2.53c-1.5-0.77-2.71-1.88-3.73-3.2
	c-2.5-3.24-4.02-6.84-4.37-11c-0.27-3.28-0.26-6.53,0.46-9.7c0.96-4.26,2.96-8.04,6.36-10.91c2.05-1.72,4.55-2.41,7.15-2.79
	c0.83-0.12,1.67-0.27,2.51-0.27c4.4-0.01,8.58,1.02,12.44,3.09c4.07,2.18,8.05,4.54,12.08,6.78c1.6,0.89,3.23,1.75,4.9,2.52
	c1.95,0.9,3.81,1.9,5.06,3.71c0.53,0.76,0.93,1.62,1.34,2.45c0.23,0.47,0.38,1.02,0.98,1.09c0.59,0.07,0.9-0.37,1.22-0.81
	c1.69-2.26,3.32-4.58,5.14-6.73c3.33-3.93,7.68-6.15,12.72-7.03c2.53-0.44,5.06-0.43,7.6-0.06c1.67,0.25,3.36,0.42,5.05,0.57
	c2.4,0.22,3.68,1.78,4.48,3.79c0.37,0.94,0.44,2.01,0.62,3.03c0.12,0.69,0.12,1.41,0.36,2.05c0.14,0.39,0.59,0.84,0.96,0.91
	c0.35,0.06,0.94-0.25,1.15-0.57c0.75-1.14,1.34-2.38,2.06-3.54c0.95-1.51,1.88-3.06,3-4.44c2.06-2.55,4.77-4.08,8.02-4.62
	c1.23,0,2.47,0.01,3.7,0.01c3.44,0.41,6.49,1.79,9.35,3.69c2.28,1.51,4.63,2.91,6.91,4.41c2.38,1.57,4.4,3.55,6.29,5.66
	c0.77,0.86,1.18,0.93,1.93,0.04c0.57-0.67,1.01-1.47,1.4-2.26c1.05-2.16,2-4.37,3.05-6.53c0.87-1.8,2.22-3.13,4.08-3.93
	c1.91-0.82,3.47-0.64,4.91,0.85c0.81,0.84,1.44,1.85,2.07,2.84c0.78,1.23,1.47,2.53,2.2,3.79c0.17,0.28,0.33,0.58,0.54,0.83
	c0.64,0.75,1.39,0.78,2.05,0.04c0.5-0.56,0.91-1.2,1.35-1.81c1.37-1.88,2.95-3.58,4.85-4.91c1.14-0.8,2.44-1.42,3.76-1.89
	c1.93-0.68,3.55-0.02,4.31,1.85c0.76,1.86,1.42,3.82,1.75,5.79c0.62,3.8,1.02,7.63,1.43,11.46c0.26,2.34,0.38,4.69,0.57,7.04
	c0.02,0.23-0.01,0.52,0.11,0.69c0.2,0.28,0.49,0.63,0.78,0.67c0.3,0.04,0.78-0.16,0.94-0.41c0.33-0.5,0.53-1.1,0.73-1.68
	c1.16-3.49,2.22-7.01,3.47-10.46c1.71-4.71,3.9-9.19,6.65-13.39c0.46-0.71,1-1.37,1.55-2.01c2.76-3.17,6.26-3.89,10.13-2.74
	c4.58,1.36,8.66,3.67,12.15,6.99c2.42,2.31,4.88,4.58,7.34,6.85c3.61,3.33,6.11,7.38,7.9,11.91c0.4,1,0.3,1.91-0.25,2.83
	c-1.05,1.76-2.31,3.32-3.84,4.68c-1.37,1.22-2.74,2.45-4.1,3.69c-0.97,0.88-1.01,1.32-0.25,2.39c-3.1,2.67-6.2,5.35-9.24,7.97
	c0.78,3.9,1.55,7.68,2.3,11.46c0.16,0.81,0.36,1.63,0.1,2.5c-0.95,0.01-1.08-0.72-1.36-1.28c-1.86-3.76-3.3-7.69-4.74-11.63
	c-0.65-1.78-0.47-2.33,1.03-3.65c0.04-0.03,0.07-0.06,0.11-0.09c4-3.45,8.01-6.88,11.97-10.37c1.66-1.46,3.21-3.05,4.77-4.62
	c1.04-1.04,1.11-2.3,0.55-3.6c-0.3-0.69-0.64-1.37-1.05-2c-4.03-6.08-8.89-11.35-15-15.39c-2.25-1.48-4.6-2.78-7.2-3.57
	c-3.25-0.99-6.1-0.25-8.4,2.19c-1.19,1.26-2.25,2.68-3.11,4.18c-3.21,5.59-5.25,11.63-6.64,17.91c-0.4,1.82-0.84,3.63-1.11,5.46
	c-0.25,1.67-0.25,3.38-0.46,5.06c-0.12,0.95,0.06,1.73,0.55,2.54c2.96,4.86,5.72,9.81,7.38,15.3c0.08,0.25,0.15,0.5,0.23,0.75
	c0.05,0.18,0.09,0.36,0.14,0.54c-0.32,0.27-0.14,0.44,0.12,0.59c0.06,0.27,0.11,0.55,0.17,0.82c0.02,0.19,0.05,0.37,0.07,0.56
	c0.44,2.19,0.4,4.4,0.09,6.6c-0.11,0.75-0.06,1.32,0.55,1.9c4.04,3.79,8.89,5.99,14.25,6.99c2.23,0.41,4.57,0.46,6.89,0.1
	c3.79-0.58,6.83-2.27,8.98-5.5c1.9-2.84,2.71-6.04,2.95-9.37c0.23-3.22-0.48-6.34-1.29-9.44c-0.48-1.86-1-3.72-1.25-5.62
	c-0.18-1.37-0.42-2.68-0.95-3.95c-0.52-1.24-0.3-1.69,1.06-2.12c1.67,0.41,2.97,1.43,4.03,2.71c2.2,2.65,3.63,5.67,4.36,9.06
	c0.63,2.91,1.24,5.8,1.04,8.79c-0.26,4.02-1.01,7.94-3.04,11.5c-3.04,5.33-7.67,8.41-13.64,9.58c-0.64,0.13-1.3,0.19-1.95,0.29
	c-0.58,0.07-1.15,0.14-1.73,0.21c-0.84,0-1.68,0-2.52,0c-0.48-0.07-0.96-0.14-1.45-0.21c-6.08-0.95-11.69-3.07-16.64-6.81
	c-0.15-0.11-0.3-0.22-0.46-0.33c-1.47-1.05-1.84-0.94-2.56,0.72c-0.94,2.17-2.71,3.59-4.6,4.84c-3.01,1.99-6.43,2.81-9.95,3.28
	c-0.67,0.07-1.34,0.14-2.02,0.21c-0.56,0-1.11-0.01-1.67-0.01c-0.49-0.06-0.97-0.12-1.46-0.19c-4.61-0.46-8.59-2.37-12.15-5.25
	c-0.91-0.74-1.76-1.56-2.64-2.35c-0.28-0.25-0.53-0.55-0.84-0.76c-0.8-0.55-1.4-0.41-1.89,0.4c-0.1,0.16-0.17,0.34-0.24,0.51
	c-1.24,3.38-5.75,5.55-9.54,4.32c-1.63-0.53-3.18-1.18-4.51-2.28c-0.07-0.06-0.14-0.13-0.21-0.19c-0.68-0.5-1.31-0.55-1.64-0.11
	c-0.45,0.59-0.07,1.05,0.27,1.52c0.41,0.56,0.99,1.09,1.17,1.72c0.46,1.62,0.8,3.28,1.07,4.94c0.29,1.76,0.46,3.53,0.66,5.3
	c0.28,2.53,0.38,5.08,0.81,7.58c0.71,4.07,1.51,8.13,3.06,11.99c0.56,1.4,1.14,2.79,1.82,4.14c0.33,0.66,0.84,1.25,1.36,1.78
	c0.26,0.26,0.74,0.4,1.14,0.42c1.1,0.05,1.43-0.34,1.34-1.45c-0.01-0.09-0.01-0.19-0.04-0.28c-0.81-3.61-0.19-7.15,0.86-10.57
	c0.95-3.09,2.26-6.09,3.59-9.05c0.52-1.17,1.42-2.23,2.33-3.14c1.23-1.23,2.93-1.41,4.59-1.57c1.04-0.01,2.09-0.01,3.13-0.02
	c2.47,0.09,4.26,1.31,5.54,3.35c0.48,0.76,0.92,1.53,1.41,2.28c0.3,0.47,0.61,0.96,0.99,1.37c0.63,0.67,1.21,0.57,1.67-0.25
	c0.11-0.2,0.18-0.43,0.28-0.65c0.95-1.99,1.94-3.96,2.86-5.96c1.49-3.26,4.14-4.87,7.55-5.41c0.69-0.11,1.37-0.23,2.06-0.34
	c1.03,0,2.05,0,3.08,0c0.45,0.46,0.93,0.89,1.34,1.39c0.62,0.75,1.18,1.55,1.84,2.44c1.44-0.52,2.74-1,4.05-1.45
	c4.82-1.63,9.48-1.35,13.84,1.38c1,0.63,1.92,1.56,2.57,2.56c1.56,2.4,2.29,5.12,2.72,7.95c0.52,3.43,0.18,6.86,0.27,10.29
	c0.02,0.7,0.06,1.42,0.25,2.09c0.29,1.03,1.04,1.32,1.97,0.79c0.57-0.32,1.06-0.77,1.59-1.17c0.75-0.56,1.52-1.11,2.26-1.7
	c0.65-0.52,1.38-0.53,2.14-0.5c0.53,0.02,0.79,0.31,0.79,0.8c0,0.51-0.01,1.04-0.11,1.54c-0.71,3.31-1.33,6.64-2.23,9.9
	c-0.57,2.07-1.59,4.02-2.41,6.02c-0.16,0.39-0.42,0.74-0.55,1.14c-0.31,1,0.09,1.51,1.14,1.57c1.27,0.07,2.54,0.08,3.79,0.27
	c0.87,0.13,1.73,0.46,2.55,0.81c1,0.43,1.16,0.81,1,1.9c-0.06,0.42-0.15,0.84-0.31,1.23c-1.78,4.1-3.36,8.32-5.44,12.26
	c-2.41,4.58-6.25,7.87-10.98,10.01c-1.06,0.48-2.25,0.65-3.38,0.96c-1.23,0-2.46,0-3.68,0c-2.16-0.21-4.26-0.74-6.24-1.61
	c-1.15-0.5-2.22-1.23-3.23-1.98c-1.32-0.99-1.73-1.08-2.9,0.08c-1.88,1.87-3.92,3.51-6.26,4.78c-2.32,1.26-4.8,1.89-7.4,2.12
	c-0.86,0.07-1.72,0.14-2.58,0.2c-0.93,0-1.87,0-2.8,0c-1.06-0.05-2.12-0.11-3.18-0.17c-1.02-0.01-2.04-0.02-3.06-0.04
	c-1.54-0.01-3.08-0.03-4.62-0.01c-0.45,0.01-0.9,0.16-1.35,0.25c-2.76,0.19-5.4,0.86-7.89,2.06c-2.99,1.44-5.16,3.76-6.72,6.66
	c-0.71,1.33-1.28,2.73-1.94,4.09c-0.37,0.76-0.73,1.54-1.21,2.24c-1.04,1.51-2.82,1.64-4.1,0.3c-0.48-0.51-0.89-1.1-1.23-1.72
	c-1.6-2.92-2.67-6.02-2.97-9.36c-0.2-2.16-0.39-4.31-0.59-6.47c-0.01-0.14-0.02-0.28-0.04-0.42c-0.36-2.26-1.38-3.21-3.66-3.3
	c-2.18-0.08-4.26-0.68-6.35-1.19c-1.76-0.43-3.14-1.49-4.24-2.9c-0.41-0.52-0.77-1.07-1.18-1.59c-0.98-1.23-1.94-1.1-2.51,0.34
	c-0.23,0.57-0.39,1.16-0.63,1.73c-1.33,3.2-3.72,5.13-7.09,5.89C287.88,391.3,286.93,391.31,285.97,391.32z M281.75,283.46
	c0.2,0.07,0.4,0.15,0.6,0.22c1.03,0.03,1.94,0.36,2.62,1.17c0.71,0.86,1.19,1.88,1.06,2.97c-0.24,2.03-0.56,4.06-1.02,6.06
	c-0.29,1.26-0.87,2.46-1.38,3.66c-0.22,0.53-0.25,0.96,0.08,1.45c2.26,3.41,4.92,6.43,8.4,8.64c3.67,2.32,7.71,3.16,12,3.03
	c0.19-0.01,0.38-0.01,0.57-0.02c1.41-0.28,2.88-0.41,4.23-0.86c3.92-1.3,6.98-3.72,8.86-7.43c1.02-2.01,1.52-4.22,1.63-6.46
	c0.11-2.2-0.01-4.38-0.5-6.58c-0.51-2.29-1.2-4.49-2.04-6.65c-0.17-0.44-0.34-0.94-0.67-1.23c-1.03-0.91-1.82-1.94-2.04-3.38
	c-1.49,0.93-2.81,1.84-4.2,2.61c-1.43,0.78-2.94,1.42-4.44,2.14c0.18,0.51,0.35,0.95,0.49,1.4c1.01,3.23,2.05,6.46,3.01,9.71
	c0.27,0.89,0.37,1.84,0.44,2.78c0.02,0.3-0.24,0.87-0.44,0.9c-0.34,0.05-0.87-0.11-1.08-0.37c-0.49-0.62-0.91-1.33-1.23-2.05
	c-1.37-3.05-2.71-6.11-4.05-9.18c-0.53-1.21-1.09-2.41-1.49-3.66c-0.47-1.48,0.23-2.73,1.72-3.01c3.24-0.6,6.01-2.16,8.62-4.06
	c3.14-2.27,5.76-5.03,7.41-8.58c2.07-4.45,1.5-8.8-1.94-12.39c-0.75-0.78-1.49-1.59-2.34-2.25c-3.57-2.78-7.11-5.6-10.8-8.21
	c-1.79-1.27-3.82-2.25-5.85-3.11c-4.2-1.78-7.6-0.88-10.42,2.7c-1.31,1.66-2.51,3.42-3.6,5.24c-2.62,4.36-4.79,8.94-6.14,13.87
	c0.11,0.06,0.21,0.13,0.32,0.19c0.62-0.22,1.24-0.47,1.87-0.64c1.41-0.37,2.81-0.88,4.24-1.01c3.11-0.29,4.78,1.75,4.09,4.79
	c-0.44,1.91-1.36,3.61-2.34,5.28c-2.46,4.2-5.3,8.12-8.5,11.79c-0.06,0.06-0.13,0.13-0.19,0.19c0.07,0.03,0.13,0.05,0.2,0.08
	C278.93,283.28,280.34,283.37,281.75,283.46z M354.53,360.75c-1.12,1.32-2.23,2.67-3.38,3.96c-0.4,0.45-0.88,0.88-1.4,1.17
	c-0.95,0.52-1.92,1.05-2.95,1.35c-2.21,0.64-4.46,1.16-6.7,1.69c-0.97,0.23-1.04,0.3-1.11,1.27c-0.08,1.02-0.17,2.05-0.36,3.06
	c-0.5,2.66-1.78,4.9-3.76,6.77c-2.44,2.3-5.3,3.91-8.29,5.33c-2.49,1.18-5.04,2.26-7.7,3.45c0.1,4.62,0.68,9.18,2.5,13.65
	c1.39-1.38,2.59-2.64,3.87-3.81c4.79-4.4,10.45-6.81,16.94-7.08c2.68-0.11,5.37,0.08,8.06,0.09c2.59,0.01,5.18,0.09,7.76-0.09
	c2.6-0.18,5.14-0.85,7.36-2.3c4.97-3.26,8.41-7.7,9.65-13.58c0.88-4.2-0.19-7.84-3.74-10.56c-1.59-1.22-3.33-2.14-5.15-2.93
	c-0.52-0.23-1.06-0.43-1.53-0.73c-1.62-1.03-1.77-2.33-0.44-3.71c0.29-0.3,0.63-0.57,0.96-0.83c0.74-0.58,1.53-1.11,2.25-1.72
	c1.8-1.51,3.44-3.18,5.09-4.96c-0.42-0.39-0.7-0.71-1.03-0.95c-1.28-0.92-2.06-2.18-2.5-3.67c-0.53-1.83-0.61-3.71-0.5-5.6
	c0.15-2.58,0.63-5.12,0.9-7.68c0.35-3.36,0.84-6.73,0.17-10.11c-0.24-1.21-0.43-1.53-1.63-1.41c-3.5,0.37-6.69,1.47-8.63,4.64
	c-1.06,1.74-1.97,3.63-2.61,5.57c-1.31,4.01-2.39,8.09-3.57,12.14c-0.16,0.54-0.4,1.05-0.53,1.59c-0.33,1.41-0.59,2.84-0.95,4.24
	c-0.16,0.63-0.45,1.24-0.78,1.8c-0.36,0.6-1.45,0.83-2.31,0.57c-0.66-0.2-0.98-0.72-1.07-1.36c-0.05-0.37-0.07-0.77,0.01-1.12
	c0.58-2.37,1.11-4.75,1.84-7.07c0.39-1.23,0.72-2.42,0.69-3.71c0-0.47,0-0.94,0-1.41c0.02-1.81-0.19-3.58-0.84-5.27
	c-0.72-1.9-1.96-3.35-3.9-4.03c-2.45-0.86-4.62-0.27-6.55,1.43c-2.26,2-3.6,4.58-4.55,7.35c-0.84,2.45-1.58,4.94-1.79,7.58
	c-0.3,3.76-0.55,7.47,0.34,11.21c0.82,3.47,2.98,5.5,6.53,5.74c0.52,0.03,1.04,0.01,1.55,0.04c4.59,0.26,9.12-0.47,13.67-0.75
	C354.46,360.24,354.5,360.5,354.53,360.75z M217.06,264.99c0,0.03,0,0.07,0,0.1c-1.74,0-3.49,0-5.23,0c-0.33,0-0.66,0.03-0.99,0
	c-1.05-0.09-1.74-0.74-1.81-1.65c-0.06-0.84,0.46-1.54,1.42-1.87c0.18-0.06,0.36-0.11,0.55-0.14c0.74-0.11,1.47-0.25,2.22-0.32
	c3.28-0.31,6.57-0.58,9.85-0.92c1.91-0.2,3.88,0.06,5.71-0.78c0.98-0.45,2.03-0.76,3.01-1.22c1.87-0.89,3.77-1.78,5.18-3.36
	c1.55-1.73,1.14-3.89-0.93-4.93c-0.67-0.33-1.39-0.58-2.11-0.8c-2.1-0.64-3.98-1.66-5.68-3.06c-4.2-3.45-8.96-5.92-14.1-7.61
	c-1.5-0.49-3.15-0.49-4.69-0.9c-1.86-0.49-3.73-0.56-5.6-0.39c-2.36,0.21-4.67,0.7-6.5,2.39c-3.11,2.87-4.37,6.67-4.98,10.66
	c-0.32,2.11-0.12,4.32-0.04,6.48c0.12,3.32,1.27,6.31,3.34,8.88c0.69,0.85,1.66,1.55,2.64,2.05c1.67,0.86,3.55,1.18,5.39,1.41
	c3.12,0.38,6.26,0.56,9.39,0.91c0.92,0.1,1.84,0.42,2.68,0.81c1.37,0.64,2.15,1.78,2.32,3.31c0.1,0.92,0.14,1.86,0.34,2.76
	c0.69,3.16,0.55,6.37,0.63,9.56c0.03,1.33-0.46,1.91-1.2,1.93c-0.73,0.01-1.22-0.56-1.41-1.84c-0.17-1.16-0.23-2.34-0.37-3.51
	c-0.27-2.39-0.5-4.78-0.85-7.15c-0.21-1.43-0.41-1.53-1.88-1.47c-1.22,0.05-2.45,0.15-3.67,0.24c-2.92,0.22-5.82,0.07-8.71-0.41
	c-0.64-0.11-1.13-0.07-1.57,0.57c-0.59,0.85-1.37,1.55-2.04,2.34c-1.8,2.11-2.74,4.59-3.09,7.32c-0.43,3.36,0.81,6.19,2.78,8.79
	c1.86,2.46,4.1,4.56,6.48,6.49c3.85,3.13,7.87,5.99,12.27,8.31c2.49,1.31,4.92,1.37,7.45,0.22c5.48-2.5,10.13-5.97,13.33-11.19
	c2.38-3.9,4.85-7.75,7.19-11.68c0.74-1.24,1.31-2.61,1.79-3.98c0.81-2.29,0.52-4.54-0.56-6.71c-0.85-1.72-2.02-3.17-3.56-4.33
	c-1.6-1.2-3.35-2.08-5.22-2.77c-3.68-1.36-7.55-1.79-11.4-2.21C222.25,265.09,219.65,265.11,217.06,264.99z M316.53,314.24
	c-0.31,0.08-0.47,0.08-0.58,0.15c-1.69,1.04-3.51,1.77-5.41,2.34c-0.43,0.13-0.86,0.4-1.19,0.71c-1.2,1.13-2.37,2.3-3.51,3.49
	c-0.25,0.27-0.44,0.72-0.43,1.09c0.02,1.74,0.14,3.48,0.17,5.23c0.05,2.74,0.62,5.33,2.01,7.71c0.84,1.42,1.7,2.83,2.51,4.27
	c2.52,4.46,2.11,8.66-1.18,12.57c-0.36,0.43-0.72,0.87-1.07,1.32c-0.59,0.76-0.79,1.61-0.48,2.53c0.36,1.07,0.78,2.12,1.15,3.18
	c0.52,1.5,1.04,3,1.49,4.52c0.09,0.29-0.03,0.84-0.25,0.98c-0.21,0.14-0.67-0.07-1-0.19c-0.21-0.08-0.38-0.27-0.55-0.43
	c-1.6-1.54-3.08-3.19-4.22-5.11c-1.72-2.89-1.65-5.72,0.38-8.45c0.59-0.79,1.23-1.55,1.78-2.38c0.96-1.45,1.28-3.06,0.68-4.72
	c-0.36-1.01-0.84-2-1.38-2.93c-1.35-2.38-2.7-4.76-3.37-7.45c-0.22-0.89-0.42-1.8-0.45-2.71c-0.08-2.02,0.03-4.06-0.1-6.08
	c-0.11-1.72-0.25-3.45-0.91-5.09c-0.48-1.19-1.07-2.1-2.55-1.93c-0.17,0.02-0.36-0.07-0.54-0.13c-1.24-0.43-2.49-0.81-3.69-1.32
	c-0.7-0.29-1.26-0.31-1.8,0.23c-0.34,0.33-0.7,0.63-1.01,0.98c-1.39,1.58-2.38,3.38-3.07,5.36c-1.18,3.39-1.44,6.9-1.32,10.46
	c0.16,4.75,0.59,9.49-0.37,14.22c-0.39,1.92-0.6,3.88-0.99,5.8c-0.77,3.72-1.91,7.36-2.49,11.13c-0.67,4.32-0.7,8.63-0.2,12.96
	c0.41,3.49,1.39,6.78,2.9,9.94c1.16,2.43,2.58,2.02,4.14,0.76c0.22-0.18,0.42-0.38,0.62-0.58c1.48-1.55,2.17-3.51,2.76-5.51
	c0.36-1.2,0.61-2.44,1-3.63c0.32-0.98,0.7-1.95,1.19-2.85c1.16-2.13,3.68-2.43,5.32-0.63c0.53,0.58,0.89,1.32,1.31,2
	c0.62,1,1.16,2.06,1.84,3.01c0.71,1,1.57,1.88,2.72,2.41c2.24,1.02,4.69,1.15,6.93,0.6c4.23-1.04,8.26-2.77,12.15-4.76
	c1.68-0.86,3.3-1.85,4.57-3.28c1.23-1.39,1.83-3.03,1.28-4.84c-0.49-1.6-1.13-3.18-1.9-4.67c-1.41-2.72-2.95-5.37-4.46-8.04
	c-3.36-5.95-5.73-12.22-6.5-19.06c-0.46-4.13-0.7-8.26-0.76-12.41c-0.03-1.79,0-3.59-0.11-5.37
	C317.52,317.83,317.35,316.01,316.53,314.24z M344.79,290.12c-0.35-0.24-0.62-0.34-0.78-0.54c-2.25-2.86-4.37-5.8-5.46-9.34
	c-0.61-1.97-0.55-3.93,0.24-5.81c0.6-1.42,1.28-2.85,2.16-4.12c1.95-2.82,2.24-5.72,0.86-8.83c-0.15-0.34-0.26-0.71-0.4-1.06
	c-1.63-4.17-3.23-8.35-4.89-12.51c-0.77-1.92-1.59-3.83-2.5-5.69c-0.4-0.83-1-1.61-1.64-2.28c-1.12-1.17-1.76-1.12-2.82,0.06
	c-0.38,0.42-0.75,0.87-1,1.36c-0.91,1.86-1.88,3.7-2.61,5.63c-0.68,1.8-1.01,3.73-1.65,5.55c-0.32,0.92-0.22,1.62,0.11,2.5
	c0.66,1.76,1.03,3.6,0.82,5.51c-0.26,2.37-0.9,4.62-2,6.74c-0.36,0.69-0.51,1.38-0.51,2.16c0.02,2.97-0.02,5.94-0.01,8.91
	c0,0.51,0.05,1.05,0.23,1.52c0.93,2.46,1.92,4.9,2.26,7.55c0.17,1.34,0.55,2.65,0.71,3.99c0.32,2.76,0.28,5.5-0.21,8.28
	c-0.42,2.38-1.18,4.59-2.15,6.75c-0.54,1.21-0.54,1.54,0.46,2.38c1.09,0.91,2.09,0.92,3.15-0.07c0.51-0.48,0.94-1.05,1.37-1.61
	c0.52-0.67,0.97-1.39,1.5-2.05c1.57-1.94,3.67-2.46,5.95-1.44c1.03,0.46,2,1.05,3.01,1.57c2.16,1.14,4.3,2.27,6.67,2.96
	c4.03,1.17,7.96,1.47,11.94-0.33c3.43-1.55,6.2-3.59,7.49-7.32c0.85-2.46,1.24-4.9,0.61-7.45c-0.99-4.04-2.69-7.8-4.67-11.44
	c-1.33-2.44-2.66-4.89-3.9-7.37c-1.36-2.73-2.23-5.61-2.71-8.64c-0.62-3.83-0.81-7.68-0.78-11.55c0.02-3.11,0.07-6.23-0.01-9.34
	c-0.04-1.5-0.23-3.01-0.54-4.47c-0.43-2.01-1.04-2.22-2.67-1.03c-0.99,0.72-1.85,1.61-2.84,2.33c-2.01,1.48-4.07,2.89-6.11,4.34
	c-0.29,0.21-0.56,0.46-0.84,0.69c0.16,0.48,0.29,0.89,0.44,1.28c1.56,4.3,3.12,8.59,4.69,12.88c1.42,3.89,1.1,7.58-1.13,11.1
	c-0.6,0.95-1.13,1.96-1.65,2.96c-0.89,1.71-1.07,3.5-0.41,5.33c0.43,1.2,0.9,2.38,1.33,3.57c0.4,1.11,0.83,2.21,1.12,3.35
	C345.26,288.02,345.48,289.01,344.79,290.12z M281.97,267.21c-0.08-0.06-0.15-0.12-0.23-0.18c-0.48,0.16-0.97,0.29-1.44,0.48
	c-1.71,0.68-3.4,1.39-5.11,2.07c-1.97,0.78-3.81-0.35-3.79-2.37c0.01-0.93,0.18-1.86,0.34-2.78c0.39-2.29,0.89-4.56,1.22-6.86
	c0.33-2.24,0.62-4.49,0.72-6.74c0.09-2.2,0-4.43-0.18-6.63c-0.16-1.9-0.69-2.38-2.59-2.49c-1.31-0.08-2.63,0.11-3.95,0.13
	c-3.97,0.07-7.72,1.13-11.39,2.55c-2.11,0.82-3.87,2.1-5.36,3.81c-3.67,4.23-6.18,9.11-8.23,14.26c-0.1,0.25-0.12,0.53-0.18,0.82
	c0.8,0.53,1.55,1,2.28,1.51c4.4,3.11,6.91,7.34,7.44,12.72c0.19,1.89-0.22,3.74-0.57,5.57c-0.41,2.15-1.41,4.09-2.46,5.99
	c-1.6,2.89-3.18,5.78-4.85,8.63c-0.52,0.89-0.42,1.52,0.17,2.29c1.79,2.35,4.02,4.16,6.77,5.17c6.25,2.31,12.42,2.07,18.32-1.12
	c5.32-2.88,8.36-7.51,9.76-13.39c-1.02-0.15-1.99-0.29-2.96-0.43c-0.87-0.12-1.79-0.09-2.61-0.36c-3.71-1.23-7.39-2.54-11.07-3.83
	c-0.4-0.14-0.81-0.28-1.16-0.51c-0.82-0.55-0.76-1.37,0.16-1.71c0.56-0.21,1.19-0.28,1.8-0.31c2.64-0.15,5.27-0.28,7.91-0.36
	c0.78-0.03,1.27-0.26,1.69-0.99c0.99-1.71,2.07-3.36,3.16-5.01c1.86-2.83,3.77-5.64,5.63-8.47
	C281.53,268.23,281.72,267.71,281.97,267.21z M404.17,368.31c-0.68-0.08-1.14-0.17-1.6-0.18c-5.99-0.1-11.97-0.19-17.96-0.28
	c-0.47-0.01-0.95,0.02-1.41-0.05c-0.8-0.12-1.37-0.67-1.48-1.33c-0.11-0.66,0.25-1.33,0.97-1.73c0.28-0.16,0.6-0.28,0.92-0.35
	c0.96-0.21,1.92-0.46,2.89-0.55c2.2-0.21,4.42-0.39,6.63-0.45c0.98-0.03,1.49-0.32,1.87-1.27c1.43-3.5,2.99-6.96,4.44-10.45
	c0.28-0.67,0.78-1.37,0.47-2.27c-0.98,0.45-1.85,0.9-2.76,1.27c-1.94,0.79-4.68-0.59-4.47-3.09c0.09-1.12,0.01-2.26,0.03-3.39
	c0.07-3.42,0.21-6.84-0.54-10.23c-0.55-2.51-1.53-4.77-3.48-6.48c-2.7-2.37-5.81-2.57-9.11-1.59c-2.36,0.7-4.34,2.04-6.11,3.71
	c-0.34,0.32-0.56,0.87-0.62,1.35c-0.32,2.57-0.61,5.15-0.81,7.73c-0.11,1.4-0.07,2.82,0,4.22c0.09,2.02,0.97,3.52,3.02,4.13
	c0.13,0.04,0.26,0.11,0.39,0.18c1.26,0.7,1.78,1.93,1.13,3.23c-0.56,1.12-1.28,2.22-2.12,3.15c-1.48,1.65-3.1,3.16-4.66,4.73
	c-0.21,0.21-0.4,0.45-0.58,0.64c1.53,1.06,3,1.99,4.37,3.05c3.5,2.7,5.21,6.37,5.42,10.72c0.12,2.55-0.59,5-1.38,7.41
	c-0.35,1.05-0.86,2.05-1.28,3.05c2.38,1.97,5.59,3.3,8.69,3.64c3.43,0.38,6.45-0.6,8.99-2.89c1.01-0.91,1.95-1.93,2.77-3.01
	c2.67-3.5,4.82-7.32,6.8-11.24C403.79,369.32,403.92,368.91,404.17,368.31z M237.26,260.1c-0.08-0.04-0.15-0.09-0.23-0.13
	c-0.44,0.33-0.87,0.66-1.51,1.14c0.61,0.13,0.95,0.2,1.38,0.3C237.04,260.92,237.15,260.51,237.26,260.1z"/>
<path class="st15" d="M373.41,291.7c-0.05-0.18-0.09-0.36-0.14-0.54c-0.08-0.25-0.15-0.5-0.23-0.75c-1.66-5.49-4.42-10.44-7.38-15.3
	c-0.49-0.81-0.67-1.59-0.55-2.54c0.22-1.68,0.21-3.39,0.46-5.06c0.27-1.84,0.71-3.65,1.11-5.46c1.39-6.27,3.44-12.32,6.64-17.91
	c0.86-1.5,1.93-2.92,3.11-4.18c2.3-2.44,5.15-3.17,8.4-2.19c2.6,0.79,4.95,2.08,7.2,3.57c6.11,4.04,10.98,9.31,15,15.39
	c0.41,0.63,0.75,1.31,1.05,2c0.56,1.3,0.5,2.55-0.55,3.6c-1.57,1.56-3.12,3.15-4.77,4.62c-3.96,3.49-7.98,6.92-11.97,10.37
	c-0.04,0.03-0.07,0.06-0.11,0.09c-1.5,1.32-1.68,1.87-1.03,3.65c1.43,3.94,2.88,7.87,4.74,11.63c0.28,0.56,0.41,1.29,1.36,1.28
	c0.26-0.87,0.06-1.69-0.1-2.5c-0.75-3.79-1.51-7.57-2.3-11.46c3.04-2.62,6.14-5.29,9.24-7.97c0.81,0.41,1.63,0.82,2.44,1.23
	c-1.36,0.43-1.58,0.88-1.06,2.12c0.53,1.26,0.77,2.58,0.95,3.95c0.25,1.89,0.77,3.76,1.25,5.62c0.81,3.1,1.51,6.22,1.29,9.44
	c-0.24,3.34-1.06,6.53-2.95,9.37c-2.15,3.23-5.2,4.91-8.98,5.5c-2.32,0.36-4.66,0.31-6.89-0.1c-5.36-1-10.21-3.2-14.25-6.99
	c-0.61-0.57-0.65-1.15-0.55-1.9c0.32-2.2,0.35-4.41-0.09-6.6c-0.02-0.19-0.05-0.37-0.07-0.56c-0.06-0.27-0.11-0.55-0.17-0.82
	C373.49,292.09,373.45,291.9,373.41,291.7z M392.18,267.73c2.08-0.01,3.46-1.69,2.89-3.49c-0.28-0.88-0.66-1.77-1.18-2.53
	c-1.75-2.57-3.72-4.97-5.99-7.11c-0.65-0.61-1.34-1.19-2.04-1.74c-0.58-0.46-1.23-0.73-1.96-0.36c-0.8,0.4-0.93,1.14-0.87,1.92
	c0.03,0.47,0.08,0.95,0.23,1.38c1.29,3.78,3.3,7.17,5.72,10.32C389.78,267.16,390.91,267.77,392.18,267.73z"/>
<path class="st4" d="M341.17,394.95c0.45-0.09,0.9-0.24,1.35-0.25c1.54-0.02,3.08,0,4.62,0.01c-0.21,0.08-0.43,0.21-0.64,0.22
	C344.72,394.95,342.95,394.94,341.17,394.95z"/>
<path class="st4" d="M217.78,313.22c1.32,0,2.65,0,3.97,0.01C220.43,313.64,219.1,313.62,217.78,313.22z"/>
<path class="st4" d="M384.78,391.31c1.23,0,2.46,0,3.68,0C387.24,391.74,386.01,391.73,384.78,391.31z"/>
<path class="st4" d="M296.48,235.06c-1.23,0-2.47-0.01-3.7-0.01C294.02,234.65,295.25,234.65,296.48,235.06z"/>
<path class="st4" d="M344.32,324.47c-1.04,0.01-2.09,0.01-3.13,0.02C342.23,324.09,343.27,324.08,344.32,324.47z"/>
<path class="st16" d="M369.77,318.84c-1.03,0-2.05,0-3.08,0C367.72,318.47,368.74,318.37,369.77,318.84z"/>
<path class="st16" d="M350.2,394.75c1.06,0.06,2.12,0.11,3.18,0.17C352.32,394.86,351.26,394.8,350.2,394.75z"/>
<path class="st16" d="M285.97,391.32c0.95-0.01,1.91-0.01,2.86-0.02C287.88,391.71,286.93,391.73,285.97,391.32z"/>
<path class="st16" d="M356.18,394.91c0.86-0.07,1.72-0.14,2.58-0.2C357.9,394.78,357.04,394.85,356.18,394.91z"/>
<path class="st16" d="M353.92,317.09c0.67-0.07,1.34-0.14,2.02-0.21C355.26,316.96,354.59,317.02,353.92,317.09z"/>
<path class="st16" d="M394.11,315.39c0.58-0.07,1.15-0.14,1.73-0.21C395.26,315.25,394.69,315.32,394.11,315.39z"/>
<path class="st16" d="M350.79,316.89c0.49,0.06,0.97,0.13,1.46,0.19C351.76,317.02,351.28,316.96,350.79,316.89z"/>
<path class="st16" d="M390.15,315.19c0.48,0.07,0.96,0.14,1.45,0.21C391.11,315.32,390.63,315.25,390.15,315.19z"/>
<path class="st15" d="M217.06,264.99c2.59,0.11,5.19,0.09,7.76,0.37c3.85,0.41,7.72,0.84,11.4,2.21c1.87,0.69,3.63,1.57,5.22,2.77
	c1.54,1.16,2.71,2.6,3.56,4.33c1.08,2.17,1.37,4.42,0.56,6.71c-0.49,1.37-1.05,2.74-1.79,3.98c-2.35,3.92-4.81,7.78-7.19,11.68
	c-3.19,5.23-7.84,8.7-13.33,11.19c-2.53,1.15-4.96,1.09-7.45-0.22c-4.4-2.32-8.43-5.19-12.27-8.31c-2.38-1.94-4.61-4.03-6.48-6.49
	c-1.97-2.6-3.21-5.44-2.78-8.79c0.35-2.72,1.29-5.2,3.09-7.32c0.67-0.79,1.46-1.5,2.04-2.34c0.44-0.64,0.93-0.68,1.57-0.57
	c2.89,0.47,5.79,0.62,8.71,0.41c1.22-0.09,2.44-0.19,3.67-0.24c1.46-0.06,1.67,0.04,1.88,1.47c0.35,2.37,0.58,4.77,0.85,7.15
	c0.13,1.17,0.19,2.35,0.37,3.51c0.19,1.28,0.67,1.85,1.41,1.84c0.74-0.01,1.23-0.59,1.2-1.93c-0.08-3.19,0.06-6.4-0.63-9.56
	c-0.2-0.9-0.24-1.84-0.34-2.76c-0.17-1.53-0.94-2.67-2.32-3.31c-0.84-0.39-1.77-0.71-2.68-0.81c-3.12-0.36-6.27-0.54-9.39-0.91
	c-1.85-0.22-3.72-0.55-5.39-1.41c-0.98-0.5-1.95-1.21-2.64-2.05c-2.08-2.57-3.22-5.56-3.34-8.88c-0.08-2.16-0.28-4.36,0.04-6.48
	c0.61-3.99,1.87-7.79,4.98-10.66c1.83-1.69,4.14-2.18,6.5-2.39c1.87-0.17,3.74-0.1,5.6,0.39c1.53,0.4,3.19,0.4,4.69,0.9
	c5.15,1.69,9.9,4.15,14.1,7.61c1.7,1.4,3.58,2.42,5.68,3.06c0.72,0.22,1.44,0.47,2.11,0.8c2.07,1.03,2.48,3.19,0.93,4.93
	c-1.42,1.59-3.31,2.47-5.18,3.36c-0.98,0.46-2.03,0.77-3.01,1.22c-1.83,0.84-3.8,0.59-5.71,0.78c-3.28,0.34-6.57,0.61-9.85,0.92
	c-0.74,0.07-1.48,0.2-2.22,0.32c-0.19,0.03-0.37,0.08-0.55,0.14c-0.96,0.33-1.49,1.02-1.42,1.87c0.07,0.91,0.77,1.55,1.81,1.65
	c0.33,0.03,0.66,0,0.99,0c1.74,0,3.49,0,5.23,0C217.06,265.06,217.06,265.03,217.06,264.99z"/>
<path class="st15" d="M349.97,338.1c0.03,1.29-0.3,2.48-0.69,3.71c-0.73,2.32-1.26,4.71-1.84,7.07c-0.09,0.36-0.07,0.76-0.01,1.12
	c0.09,0.64,0.41,1.16,1.07,1.36c0.86,0.26,1.95,0.03,2.31-0.57c0.34-0.56,0.62-1.17,0.78-1.8c0.36-1.4,0.62-2.83,0.95-4.24
	c0.13-0.54,0.37-1.05,0.53-1.59c1.18-4.05,2.26-8.13,3.57-12.14c0.63-1.94,1.55-3.83,2.61-5.57c1.93-3.18,5.13-4.28,8.63-4.64
	c1.2-0.12,1.39,0.19,1.63,1.41c0.66,3.39,0.18,6.76-0.17,10.11c-0.27,2.56-0.74,5.1-0.9,7.68c-0.11,1.89-0.03,3.77,0.5,5.6
	c0.43,1.49,1.21,2.75,2.5,3.67c0.33,0.24,0.61,0.56,1.03,0.95c-1.65,1.78-3.29,3.46-5.09,4.96c-0.72,0.6-1.5,1.14-2.25,1.72
	c-0.33,0.26-0.67,0.53-0.96,0.83c-1.32,1.38-1.18,2.69,0.44,3.71c0.47,0.3,1.01,0.5,1.53,0.73c1.82,0.79,3.56,1.71,5.15,2.93
	c3.55,2.72,4.62,6.36,3.74,10.56c-1.24,5.89-4.67,10.32-9.65,13.58c-2.21,1.45-4.75,2.11-7.36,2.3c-2.58,0.18-5.17,0.1-7.76,0.09
	c-2.69-0.01-5.38-0.2-8.06-0.09c-6.5,0.27-12.15,2.68-16.94,7.08c-1.28,1.17-2.48,2.44-3.87,3.81c-1.83-4.48-2.4-9.03-2.5-13.65
	c2.66-1.19,5.2-2.27,7.7-3.45c2.99-1.42,5.86-3.03,8.29-5.33c1.98-1.87,3.26-4.11,3.76-6.77c0.19-1.01,0.28-2.03,0.36-3.06
	c0.07-0.97,0.14-1.04,1.11-1.27c2.24-0.53,4.49-1.04,6.7-1.69c1.03-0.3,2-0.83,2.95-1.35c0.52-0.29,1-0.72,1.4-1.17
	c1.15-1.3,2.26-2.64,3.38-3.96c0.13-0.22,0.26-0.43,0.38-0.65c-0.16-0.04-0.32-0.08-0.47-0.13c-4.56,0.28-9.09,1.01-13.67,0.75
	c-0.52-0.03-1.04-0.01-1.55-0.04c-3.55-0.24-5.7-2.27-6.53-5.74c-0.89-3.74-0.63-7.45-0.34-11.21c0.21-2.63,0.95-5.12,1.79-7.58
	c0.95-2.77,2.29-5.36,4.55-7.35c1.93-1.7,4.1-2.29,6.55-1.43c1.95,0.68,3.18,2.13,3.9,4.03c0.64,1.7,0.86,3.47,0.84,5.27
	C349.61,337.15,349.61,337.63,349.97,338.1z"/>
<path class="st15" d="M316.53,314.24c0.82,1.77,0.98,3.59,1.09,5.4c0.1,1.79,0.08,3.58,0.11,5.37c0.06,4.15,0.29,8.28,0.76,12.41
	c0.77,6.84,3.14,13.11,6.5,19.06c1.51,2.67,3.05,5.32,4.46,8.04c0.77,1.49,1.41,3.07,1.9,4.67c0.55,1.81-0.05,3.45-1.28,4.84
	c-1.27,1.44-2.89,2.42-4.57,3.28c-3.89,2-7.92,3.72-12.15,4.76c-2.24,0.55-4.69,0.43-6.93-0.6c-1.16-0.53-2.02-1.4-2.72-2.41
	c-0.68-0.96-1.22-2.01-1.84-3.01c-0.42-0.68-0.78-1.42-1.31-2c-1.64-1.8-4.16-1.5-5.32,0.63c-0.49,0.9-0.87,1.88-1.19,2.85
	c-0.39,1.19-0.64,2.43-1,3.63c-0.59,2-1.28,3.95-2.76,5.51c-0.2,0.2-0.4,0.41-0.62,0.58c-1.56,1.26-2.98,1.67-4.14-0.76
	c-1.51-3.16-2.49-6.45-2.9-9.94c-0.5-4.33-0.47-8.64,0.2-12.96c0.58-3.77,1.72-7.41,2.49-11.13c0.4-1.92,0.6-3.88,0.99-5.8
	c0.96-4.72,0.53-9.47,0.37-14.22c-0.12-3.55,0.14-7.07,1.32-10.46c0.69-1.98,1.68-3.79,3.07-5.36c0.31-0.35,0.68-0.65,1.01-0.98
	c0.55-0.54,1.1-0.52,1.8-0.23c1.2,0.5,2.46,0.89,3.69,1.32c0.17,0.06,0.37,0.15,0.54,0.13c1.48-0.17,2.07,0.74,2.55,1.93
	c0.66,1.64,0.8,3.38,0.91,5.09c0.13,2.02,0.02,4.05,0.1,6.08c0.04,0.91,0.23,1.82,0.45,2.71c0.67,2.68,2.01,5.07,3.37,7.45
	c0.53,0.94,1.02,1.92,1.38,2.93c0.59,1.66,0.28,3.26-0.68,4.72c-0.54,0.82-1.19,1.58-1.78,2.38c-2.03,2.73-2.1,5.55-0.38,8.45
	c1.14,1.92,2.62,3.57,4.22,5.11c0.17,0.16,0.34,0.36,0.55,0.43c0.33,0.12,0.79,0.33,1,0.19c0.21-0.14,0.33-0.69,0.25-0.98
	c-0.45-1.52-0.97-3.02-1.49-4.52c-0.37-1.07-0.79-2.12-1.15-3.18c-0.31-0.92-0.11-1.77,0.48-2.53c0.35-0.45,0.7-0.89,1.07-1.32
	c3.3-3.91,3.7-8.11,1.18-12.57c-0.81-1.44-1.67-2.84-2.51-4.27c-1.4-2.38-1.97-4.97-2.01-7.71c-0.03-1.74-0.15-3.48-0.17-5.23
	c0-0.37,0.18-0.82,0.43-1.09c1.14-1.2,2.31-2.36,3.51-3.49c0.33-0.31,0.76-0.58,1.19-0.71c1.9-0.57,3.72-1.3,5.41-2.34
	C316.07,314.32,316.22,314.32,316.53,314.24z"/>
<path class="st9" d="M344.79,290.12c0.69-1.11,0.47-2.1,0.23-3.03c-0.29-1.14-0.72-2.24-1.12-3.35c-0.43-1.2-0.9-2.38-1.33-3.57
	c-0.66-1.84-0.47-3.62,0.41-5.33c0.52-1,1.05-2.01,1.65-2.96c2.22-3.52,2.55-7.21,1.13-11.1c-1.57-4.29-3.13-8.59-4.69-12.88
	c-0.14-0.4-0.27-0.8-0.44-1.28c0.28-0.23,0.55-0.48,0.84-0.69c2.04-1.45,4.1-2.86,6.11-4.34c0.99-0.72,1.85-1.61,2.84-2.33
	c1.63-1.19,2.23-0.98,2.67,1.03c0.32,1.46,0.51,2.98,0.54,4.47c0.08,3.11,0.03,6.22,0.01,9.34c-0.03,3.87,0.16,7.72,0.78,11.55
	c0.49,3.03,1.36,5.91,2.71,8.64c1.24,2.49,2.57,4.93,3.9,7.37c1.98,3.64,3.68,7.4,4.67,11.44c0.62,2.55,0.24,4.99-0.61,7.45
	c-1.3,3.73-4.06,5.77-7.49,7.32c-3.98,1.8-7.91,1.51-11.94,0.33c-2.37-0.69-4.51-1.82-6.67-2.96c-1-0.53-1.98-1.11-3.01-1.57
	c-2.28-1.02-4.38-0.5-5.95,1.44c-0.53,0.66-0.99,1.38-1.5,2.05c-0.43,0.56-0.86,1.13-1.37,1.61c-1.06,0.99-2.06,0.99-3.15,0.07
	c-1-0.84-1-1.17-0.46-2.38c0.97-2.17,1.73-4.38,2.15-6.75c0.5-2.78,0.54-5.51,0.21-8.28c-0.16-1.34-0.53-2.65-0.71-3.99
	c-0.34-2.65-1.33-5.08-2.26-7.55c-0.18-0.47-0.23-1.01-0.23-1.52c-0.01-2.97,0.03-5.94,0.01-8.91c-0.01-0.78,0.15-1.47,0.51-2.16
	c1.1-2.11,1.74-4.37,2-6.74c0.21-1.91-0.16-3.75-0.82-5.51c-0.33-0.88-0.43-1.58-0.11-2.5c0.64-1.82,0.96-3.75,1.65-5.55
	c0.73-1.93,1.7-3.77,2.61-5.63c0.24-0.5,0.62-0.95,1-1.36c1.06-1.18,1.69-1.22,2.82-0.06c0.64,0.67,1.24,1.45,1.64,2.28
	c0.91,1.86,1.73,3.77,2.5,5.69c1.66,4.16,3.26,8.34,4.89,12.51c0.14,0.35,0.25,0.71,0.4,1.06c1.38,3.11,1.1,6.01-0.86,8.83
	c-0.88,1.27-1.56,2.69-2.16,4.12c-0.8,1.88-0.85,3.84-0.24,5.81c1.09,3.54,3.2,6.48,5.46,9.34
	C344.17,289.78,344.44,289.88,344.79,290.12z"/>
<path class="st9" d="M304.11,310.66c-4.29,0.13-8.33-0.71-12-3.03c-3.49-2.21-6.15-5.23-8.4-8.64c-0.32-0.49-0.3-0.93-0.08-1.45
	c0.51-1.2,1.09-2.4,1.38-3.66c0.46-1.99,0.78-4.02,1.02-6.06c0.13-1.09-0.35-2.11-1.06-2.97c-0.67-0.81-1.58-1.14-2.62-1.17
	c-0.1-0.35-0.25-0.57-0.6-0.22c-1.41-0.09-2.83-0.18-4.24-0.27c-0.01-0.09-0.01-0.18,0-0.27c3.2-3.67,6.04-7.59,8.5-11.79
	c0.98-1.67,1.9-3.36,2.34-5.28c0.69-3.03-0.98-5.08-4.09-4.79c-1.43,0.13-2.84,0.64-4.24,1.01c-0.64,0.17-1.25,0.42-1.87,0.64
	c-0.11-0.06-0.21-0.13-0.32-0.19c1.35-4.93,3.52-9.51,6.14-13.87c1.09-1.81,2.29-3.57,3.6-5.24c2.82-3.58,6.21-4.49,10.42-2.7
	c2.03,0.86,4.06,1.84,5.85,3.11c3.69,2.61,7.23,5.43,10.8,8.21c0.85,0.66,1.6,1.47,2.34,2.25c3.44,3.59,4.01,7.94,1.94,12.39
	c-1.65,3.54-4.27,6.3-7.41,8.58c-2.61,1.89-5.38,3.45-8.62,4.06c-1.49,0.28-2.19,1.53-1.72,3.01c0.4,1.25,0.96,2.45,1.49,3.66
	c1.33,3.07,2.67,6.13,4.05,9.18c0.33,0.72,0.74,1.43,1.23,2.05c0.21,0.26,0.74,0.43,1.08,0.37c0.2-0.03,0.47-0.59,0.44-0.9
	c-0.07-0.93-0.18-1.88-0.44-2.78c-0.97-3.25-2-6.48-3.01-9.71c-0.14-0.45-0.31-0.89-0.49-1.4c1.5-0.71,3.01-1.35,4.44-2.14
	c1.4-0.76,2.72-1.67,4.2-2.61c0.23,1.43,1.01,2.47,2.04,3.38c0.33,0.29,0.5,0.8,0.67,1.23c0.84,2.17,1.53,4.37,2.04,6.65
	c0.49,2.2,0.61,4.38,0.5,6.58c-0.11,2.24-0.61,4.45-1.63,6.46c-1.89,3.71-4.95,6.14-8.86,7.43c-1.36,0.45-2.82,0.58-4.23,0.86
	C304.49,310.65,304.3,310.66,304.11,310.66z M297.22,256.02c-1.23-0.03-1.94,0.62-1.86,1.59c0.04,0.58,0.25,1.21,0.56,1.71
	c1.24,1.99,2.49,3.99,3.85,5.9c0.98,1.38,2.19,2.59,3.68,3.45c1.08,0.63,2.14,0.71,2.62,0.14c0.71-0.83,0.35-1.71-0.1-2.49
	c-2.05-3.57-4.57-6.77-7.58-9.59C298.01,256.35,297.46,256.16,297.22,256.02z"/>
<path class="st15" d="M281.97,267.21c-0.25,0.5-0.45,1.02-0.75,1.48c-1.87,2.83-3.77,5.64-5.63,8.47c-1.09,1.65-2.17,3.3-3.16,5.01
	c-0.42,0.72-0.91,0.96-1.69,0.99c-2.64,0.09-5.28,0.22-7.91,0.36c-0.61,0.03-1.24,0.1-1.8,0.31c-0.92,0.34-0.98,1.16-0.16,1.71
	c0.35,0.23,0.76,0.37,1.16,0.51c3.69,1.29,7.37,2.6,11.07,3.83c0.82,0.27,1.74,0.24,2.61,0.36c0.97,0.13,1.93,0.28,2.96,0.43
	c-1.4,5.87-4.43,10.51-9.76,13.39c-5.9,3.19-12.08,3.43-18.32,1.12c-2.75-1.01-4.98-2.82-6.77-5.17c-0.58-0.77-0.69-1.4-0.17-2.29
	c1.67-2.84,3.25-5.74,4.85-8.63c1.05-1.9,2.06-3.84,2.46-5.99c0.35-1.84,0.75-3.68,0.57-5.57c-0.53-5.38-3.04-9.61-7.44-12.72
	c-0.73-0.51-1.48-0.98-2.28-1.51c0.06-0.29,0.08-0.57,0.18-0.82c2.05-5.15,4.56-10.04,8.23-14.26c1.49-1.71,3.24-2.99,5.36-3.81
	c3.67-1.42,7.42-2.48,11.39-2.55c1.32-0.02,2.64-0.21,3.95-0.13c1.9,0.12,2.44,0.6,2.59,2.49c0.18,2.2,0.27,4.42,0.18,6.63
	c-0.09,2.25-0.39,4.51-0.72,6.74c-0.34,2.3-0.83,4.57-1.22,6.86c-0.16,0.92-0.33,1.85-0.34,2.78c-0.03,2.01,1.82,3.15,3.79,2.37
	c1.71-0.68,3.4-1.39,5.11-2.07c0.47-0.19,0.96-0.32,1.44-0.48C281.82,267.09,281.89,267.15,281.97,267.21z"/>
<path class="st9" d="M404.17,368.31c-0.25,0.61-0.38,1.01-0.57,1.38c-1.98,3.92-4.13,7.74-6.8,11.24c-0.82,1.08-1.76,2.1-2.77,3.01
	c-2.55,2.29-5.56,3.27-8.99,2.89c-3.1-0.34-6.3-1.68-8.69-3.64c0.42-0.99,0.93-1.99,1.28-3.05c0.79-2.4,1.51-4.86,1.38-7.41
	c-0.21-4.35-1.93-8.02-5.42-10.72c-1.37-1.06-2.84-1.99-4.37-3.05c0.17-0.2,0.36-0.43,0.58-0.64c1.56-1.57,3.18-3.09,4.66-4.73
	c0.84-0.93,1.56-2.02,2.12-3.15c0.65-1.3,0.13-2.53-1.13-3.23c-0.12-0.07-0.25-0.14-0.39-0.18c-2.06-0.61-2.93-2.12-3.02-4.13
	c-0.07-1.41-0.11-2.82,0-4.22c0.2-2.58,0.5-5.16,0.81-7.73c0.06-0.47,0.28-1.03,0.62-1.35c1.77-1.66,3.75-3.01,6.11-3.71
	c3.3-0.98,6.42-0.78,9.11,1.59c1.95,1.71,2.93,3.97,3.48,6.48c0.75,3.39,0.6,6.81,0.54,10.23c-0.02,1.13,0.06,2.27-0.03,3.39
	c-0.21,2.5,2.53,3.89,4.47,3.09c0.91-0.37,1.79-0.82,2.76-1.27c0.31,0.9-0.18,1.59-0.47,2.27c-1.46,3.49-3.02,6.94-4.44,10.45
	c-0.39,0.95-0.89,1.24-1.87,1.27c-2.21,0.07-4.42,0.25-6.63,0.45c-0.97,0.09-1.93,0.34-2.89,0.55c-0.32,0.07-0.64,0.19-0.92,0.35
	c-0.72,0.4-1.08,1.07-0.97,1.73c0.11,0.66,0.68,1.2,1.48,1.33c0.46,0.07,0.94,0.04,1.41,0.05c5.99,0.09,11.97,0.18,17.96,0.28
	C403.03,368.13,403.48,368.23,404.17,368.31z"/>
<path class="st13" d="M237.26,260.1c-0.11,0.41-0.22,0.81-0.35,1.31c-0.43-0.09-0.77-0.17-1.38-0.3c0.63-0.48,1.07-0.81,1.51-1.14
	C237.11,260.02,237.19,260.06,237.26,260.1z"/>
<path class="st17" d="M349.97,338.1c-0.36-0.47-0.36-0.94,0-1.41C349.97,337.15,349.97,337.63,349.97,338.1z"/>
<path class="st18" d="M354.43,359.98c0.16,0.04,0.32,0.08,0.47,0.13c-0.13,0.22-0.26,0.43-0.38,0.65
	C354.5,360.5,354.46,360.24,354.43,359.98z"/>
<path class="st18" d="M304.11,310.66c0.19-0.01,0.38-0.01,0.57-0.02C304.49,310.65,304.3,310.65,304.11,310.66z"/>
<path class="st17" d="M281.75,283.46c0.36-0.34,0.5-0.13,0.6,0.22C282.16,283.61,281.96,283.54,281.75,283.46z"/>
<path class="st19" d="M373.03,290.41c0.08,0.25,0.16,0.5,0.23,0.75C373.19,290.91,373.11,290.66,373.03,290.41z"/>
<path class="st19" d="M373.41,291.7c0.04,0.2,0.08,0.4,0.12,0.59C373.27,292.14,373.09,291.97,373.41,291.7z"/>
<path class="st19" d="M373.69,293.11c0.02,0.19,0.05,0.37,0.07,0.56C373.74,293.49,373.72,293.3,373.69,293.11z"/>
<path class="st17" d="M277.51,282.92c0,0.09,0,0.18,0,0.27c-0.07-0.03-0.13-0.05-0.2-0.08
	C277.38,283.05,277.44,282.98,277.51,282.92z"/>
<path class="st17" d="M277.83,262.52c0.11,0.06,0.21,0.13,0.32,0.19C278.04,262.65,277.93,262.58,277.83,262.52z"/>
<path class="st20" d="M392.18,267.73c-1.27,0.04-2.4-0.58-3.2-1.61c-2.42-3.14-4.43-6.54-5.72-10.32c-0.15-0.44-0.19-0.92-0.23-1.38
	c-0.06-0.79,0.07-1.53,0.87-1.92c0.73-0.36,1.39-0.09,1.96,0.36c0.7,0.55,1.39,1.13,2.04,1.74c2.26,2.14,4.24,4.54,5.99,7.11
	c0.52,0.76,0.9,1.65,1.18,2.53C395.64,266.04,394.26,267.72,392.18,267.73z"/>
<path class="st20" d="M297.22,256.02c0.24,0.14,0.8,0.33,1.19,0.7c3,2.82,5.52,6.03,7.58,9.59c0.45,0.78,0.8,1.66,0.1,2.49
	c-0.48,0.57-1.54,0.49-2.62-0.14c-1.49-0.86-2.7-2.07-3.68-3.45c-1.36-1.91-2.61-3.9-3.85-5.9c-0.31-0.5-0.51-1.12-0.56-1.71
	C295.28,256.63,295.98,255.99,297.22,256.02z"/>
</svg>
